<svg width="386" height="306" viewBox="0 0 386 306" fill="none" xmlns="http://www.w3.org/2000/svg">
<g clip-path="url(#clip0_17_2125)">
<rect x="3" y="3.51123" width="380" height="299" rx="20" fill="#FEDE95" fill-opacity="0.08"/>
<path d="M89.4525 87.0415C86.9499 88.7654 84.6364 90.749 82.5506 92.9592C81.8093 93.7316 81.0992 94.5352 80.3642 95.3076C80.1675 95.5861 79.8849 95.7924 79.5597 95.8948C79.2345 95.9972 78.8847 95.99 78.564 95.8744C78.2372 95.7232 77.9759 95.459 77.8283 95.1306C77.6807 94.8022 77.6566 94.4315 77.7604 94.0866C78.0808 91.9656 78.6022 89.8798 79.3177 87.8575C82.1208 79.2176 86.7242 71.5495 92.4612 64.5417C94.5791 61.9441 96.6846 59.303 99.2697 57.1415C100.042 56.5185 101.138 56.1012 101.662 55.3039C102.185 54.5065 102.334 53.4351 102.746 52.5568C104.901 47.8475 107.804 43.674 111.983 40.5532C116.26 37.3273 121.609 35.8607 126.933 36.4544C127.07 36.4544 127.208 36.4544 127.482 36.4544C126.448 35.4649 125.217 34.705 123.869 34.2244C123.246 33.9939 122.623 33.8257 122.056 33.5454C121.758 33.434 121.494 33.2485 121.287 33.0063C121.081 32.7641 120.94 32.4733 120.878 32.1614C120.815 31.8495 120.834 31.5269 120.931 31.2241C121.028 30.9212 121.201 30.6482 121.433 30.4308C121.674 30.1432 121.953 29.8896 122.262 29.6771C126.379 26.9113 130.789 24.8495 135.748 24.158C139.558 23.6622 143.431 24.2719 146.904 25.9146C150.108 27.4651 153.195 29.245 156.142 31.2406L156.765 31.6455C156.644 31.0919 156.434 30.5617 156.142 30.0757C155.82 29.4286 155.56 28.7529 155.363 28.0575C155.225 27.5866 155.265 27.0815 155.475 26.6381C155.685 26.1947 156.051 25.8441 156.503 25.653C157.306 25.3047 158.17 25.1225 159.045 25.1173C164.583 24.8308 169.385 26.7556 173.739 30.0197C174.05 30.2828 174.347 30.5614 174.63 30.8544C175.708 28.7178 177.614 27.4532 179.613 26.3133C184.004 23.8732 188.884 22.4452 193.897 22.1335C204.686 21.2615 214.939 23.4541 224.819 27.6775C230.506 30.1069 235.913 33.0844 241.457 35.7754C244.97 37.4947 248.533 39.1018 252.376 39.9427C255.927 40.7214 259.378 40.684 262.679 38.8775C264.181 38.0553 265.333 38.8775 265.221 40.5719C265.064 41.9083 264.692 43.2104 264.118 44.4277C263.31 46.33 262.325 48.1526 261.178 49.872C260.836 50.4077 260.848 50.632 261.521 50.8189C265.182 51.7754 268.748 53.0661 272.173 54.6747C276.466 56.6803 280.398 59.3829 283.809 62.673C284.599 63.4106 285.257 64.2787 285.752 65.2394C286.568 66.9213 286.057 68.4163 284.344 69.1887C283.647 69.5064 282.899 69.7057 282.121 69.9735C282.456 70.3611 282.865 70.6786 283.323 70.9079C286.889 73.1415 290.253 75.6823 293.377 78.5013C300.907 85.422 306.259 94.3849 308.781 104.296C309.129 105.444 309.269 106.644 309.193 107.841C308.968 109.896 307.386 110.75 305.536 109.828C304.712 109.361 303.925 108.832 303.181 108.246C302.559 107.791 301.88 107.349 301.12 106.832C301.16 107.289 301.338 107.723 301.63 108.077C303.684 111.129 306.426 113.655 309.635 115.453C312.503 117.073 315.604 118.241 318.829 118.916C319.219 119.003 319.604 119.111 319.982 119.24C320.366 119.328 320.713 119.535 320.972 119.831C321.232 120.128 321.391 120.499 321.427 120.892C321.463 121.284 321.374 121.678 321.172 122.017C320.971 122.356 320.667 122.622 320.305 122.778C319.76 123.081 319.196 123.349 318.617 123.582C314.955 125.071 311.205 126.329 307.405 127.45C306.95 127.587 306.782 127.693 307.149 128.16C310.432 132.228 312.133 136.962 312.893 142.064C314.4 152.504 312.6 162.483 308.532 172.126C308.109 173.165 307.55 174.143 306.869 175.035C305.424 176.903 303.593 177.022 301.973 175.334C301.064 174.387 300.248 173.34 299.375 172.35C298.847 171.754 298.256 171.217 297.613 170.749C297.522 170.654 297.409 170.583 297.284 170.543C297.159 170.504 297.026 170.496 296.897 170.52C296.768 170.545 296.647 170.602 296.546 170.685C296.445 170.769 296.366 170.876 296.317 170.998C295.751 171.879 295.25 172.799 294.816 173.751C292.901 177.936 290.727 181.997 288.306 185.911C285.33 190.696 281.84 195.141 277.897 199.166C277.081 200.006 276.193 200.773 275.244 201.459C274.748 201.84 274.187 202.125 273.587 202.3C273.248 202.411 272.887 202.442 272.534 202.39C272.181 202.338 271.845 202.204 271.553 201.999C271.26 201.794 271.02 201.523 270.851 201.209C270.682 200.894 270.588 200.545 270.578 200.188C270.567 199.192 270.701 198.199 270.977 197.242C271.203 196.429 271.337 195.593 271.375 194.75C270.866 195.008 270.408 195.356 270.024 195.778C267.924 197.979 266.164 200.482 264.804 203.203C263.701 205.24 262.798 207.37 261.826 209.476C261.456 210.316 261.04 211.135 260.58 211.93C259.172 214.254 257.266 214.627 255.049 213.058C254.127 212.403 254.114 212.397 253.666 213.456C252.476 216.278 251.467 219.168 250.159 221.94C247.643 227.12 244.379 231.901 240.472 236.13C240.264 236.344 240.106 236.601 240.011 236.884C239.942 237.122 239.846 237.352 239.725 237.569C239.61 237.85 239.408 238.086 239.149 238.244C238.89 238.402 238.588 238.473 238.286 238.448C237.663 238.36 237.339 237.862 237.146 237.295C237.004 236.764 236.952 236.212 236.99 235.663C236.99 234.249 237.034 232.829 237.04 231.409C237.063 230.777 236.981 230.145 236.797 229.54C234.306 232.393 232.474 235.613 230.001 238.491C231.583 238.691 233.01 238.853 234.43 239.058C238.139 239.521 241.772 240.463 245.238 241.861C246.063 242.207 246.858 242.624 247.611 243.107C250.009 244.695 251 246.907 250.383 249.729C249.935 251.79 249.305 253.815 248.838 255.877C247.935 259.851 248.153 263.844 248.739 267.831C249.013 269.73 249.361 271.612 249.673 273.505C249.741 273.916 249.872 274.041 250.296 273.979C252.035 273.765 253.799 273.999 255.422 274.658C256.579 275.039 257.602 275.746 258.366 276.694C259.131 277.642 259.606 278.791 259.733 280.002C259.929 281.76 260.322 283.49 260.904 285.16C260.97 285.355 261.085 285.529 261.237 285.667C261.39 285.804 261.576 285.9 261.776 285.945C272.004 289.103 282.158 292.461 291.738 297.326C294.37 298.645 296.873 300.207 299.213 301.991C299.419 302.147 299.712 302.241 299.774 302.546H292.729C291.853 301.891 290.914 301.326 289.926 300.858C284.126 297.743 278.009 295.357 271.861 292.978C268.747 291.763 265.595 290.573 262.561 289.122C262.368 289.028 262.175 288.804 261.938 289.122C261.861 289.264 261.755 289.388 261.626 289.485C261.497 289.582 261.348 289.65 261.19 289.685C261.033 289.72 260.869 289.721 260.711 289.687C260.553 289.653 260.405 289.586 260.275 289.489C259.124 288.831 258.155 287.898 257.453 286.773C256.483 285.142 255.935 283.294 255.858 281.398C255.734 279.579 254.993 278.283 253.28 277.573C252.495 277.255 251.716 276.919 250.931 276.62C250.146 276.321 250.059 276.389 250.196 277.212C250.339 278.423 250.377 279.644 250.308 280.862C250.336 281.087 250.291 281.314 250.178 281.511C250.066 281.707 249.893 281.862 249.685 281.952C249.2 282.102 248.938 281.666 248.726 281.298C248.059 280.103 247.55 278.825 247.212 277.498C246.033 273.288 245.264 268.974 244.914 264.616C244.644 261.244 244.897 257.851 245.661 254.556C246.091 252.719 246.733 250.937 247.082 249.081C247.237 248.499 247.194 247.883 246.959 247.329C246.724 246.775 246.311 246.315 245.786 246.022C244.318 245.128 242.736 244.437 241.083 243.967C237.719 242.997 234.296 242.244 230.836 241.712C229.472 241.463 228.12 241.132 226.756 240.871C226.395 240.802 225.865 240.671 226.002 241.382C226.442 243.67 226.891 245.954 227.348 248.234C227.41 248.57 227.584 248.651 227.865 248.408C228.145 248.165 228.488 247.86 228.83 247.592C229.707 246.782 230.69 246.094 231.752 245.549C231.912 245.448 232.101 245.402 232.29 245.415C232.479 245.428 232.659 245.501 232.804 245.624C232.94 245.752 233.034 245.917 233.075 246.099C233.116 246.281 233.102 246.471 233.035 246.645C232.742 247.652 232.195 248.566 231.446 249.299C228.274 252.533 224.756 255.41 220.956 257.876C214.422 262.318 207.346 265.725 200.051 268.684C191.791 272.083 183.244 274.737 174.512 276.614C169.099 277.792 163.595 278.499 158.061 278.725C153.612 278.915 149.157 278.673 144.755 278.003C141.859 277.536 139.074 276.72 136.657 274.888C135.499 274.01 134.44 273.019 134.072 271.524C134.022 271.325 133.742 271.039 134.072 270.87C134.402 270.702 134.452 271.026 134.633 271.151C135.836 272.074 137.132 272.87 138.501 273.524C141.04 274.547 143.725 275.163 146.456 275.349C149.523 275.652 152.605 275.787 155.687 275.754C156.154 275.754 156.167 275.573 156.03 275.218C155.818 274.658 155.619 274.097 155.438 273.524C154.373 270.079 153.875 266.504 153.052 262.997C152.573 260.941 152.137 258.879 151.676 256.824C151.601 256.5 151.532 256.138 151.053 256.462C149.446 257.414 147.782 258.265 146.069 259.01C142.425 260.804 138.912 262.822 135.48 264.934C132.87 266.529 130.278 268.167 128.223 270.49C125.931 273.082 125.507 275.654 127.924 278.495C130.003 280.921 131.547 283.759 132.452 286.823C133.281 289.608 133.947 292.43 134.564 295.276C135.087 297.675 135.66 300.067 136.04 302.496H133.761C133.001 299.774 132.284 297.039 131.668 294.28C131.555 293.775 131.3 294.024 131.082 294.186C130.035 294.901 128.903 295.483 127.712 295.918C122.972 297.787 118.026 299.032 113.167 300.546C111.161 301.169 109.106 301.667 107.162 302.496H95.825C96.4004 302.108 97.0302 301.808 97.6937 301.605C104.041 298.933 110.644 297.045 117.26 295.195C121.62 293.949 125.98 292.704 130.297 291.153C130.739 290.997 130.883 290.841 130.764 290.368C129.842 286.63 128.584 283.08 126.105 280.052C125.725 279.561 125.382 279.042 125.077 278.501C124.364 277.394 123.984 276.105 123.984 274.789C123.984 273.472 124.364 272.183 125.077 271.076C126.42 268.907 128.242 267.074 130.403 265.719C135.495 262.41 140.799 259.441 146.281 256.83C147.747 256.147 149.154 255.343 150.486 254.425C150.655 254.332 150.788 254.183 150.86 254.004C150.933 253.825 150.941 253.626 150.885 253.441C150.324 250.632 149.489 247.891 148.823 245.107C148.717 244.652 148.443 244.739 148.15 244.776C145.279 245.092 142.388 245.171 139.504 245.013C135.695 244.833 131.947 243.99 128.428 242.521C126.527 241.752 124.806 240.595 123.376 239.125C121.945 237.655 120.836 235.903 120.119 233.981C118.873 230.867 118.25 227.547 117.54 224.264C115.948 216.561 113.596 209.035 110.52 201.795C108.269 196.394 106.458 190.819 105.106 185.126C103.185 177.39 103.503 169.267 106.022 161.704C106.228 161.05 106.19 160.82 105.461 160.608C99.712 158.945 95.9869 155.051 93.7008 149.67C92.2794 146.255 91.6265 142.569 91.7885 138.874C91.8308 138.666 91.7891 138.45 91.6724 138.272C91.5556 138.095 91.3734 137.971 91.1656 137.928C89.6892 137.423 88.6739 136.426 88.5555 134.813C88.5111 134.084 88.69 133.359 89.0684 132.735C89.4469 132.11 90.0068 131.616 90.6735 131.318C91.2654 130.948 91.9164 130.683 92.5983 130.534C92.8013 130.519 92.9939 130.438 93.146 130.303C93.2981 130.168 93.4012 129.986 93.4392 129.786C94.1239 127.678 95.0433 125.653 96.18 123.75C96.2617 123.608 96.3088 123.449 96.3175 123.286C96.3262 123.122 96.2961 122.959 96.2299 122.809C95.5447 120.212 94.2615 117.764 94.4732 114.948C94.6103 113.111 94.7473 111.279 95.0152 109.454L95.4575 106.408C94.5753 107.276 93.7919 108.239 93.1215 109.28C90.4803 113.173 88.9916 117.527 88.0447 122.093C87.9334 122.653 87.7835 123.204 87.5962 123.744C87.5255 124.028 87.3673 124.284 87.1438 124.474C86.9202 124.664 86.6428 124.779 86.3504 124.803C86.0491 124.829 85.7473 124.758 85.4894 124.599C85.2316 124.441 85.0312 124.205 84.9177 123.924C84.3582 122.755 83.9781 121.507 83.7902 120.224C81.8082 110.054 83.19 99.5151 87.7271 90.1997C88.2441 89.1345 88.9231 88.144 89.5273 87.1162L89.6768 86.9729C89.6768 86.9729 89.8014 86.892 89.6768 86.8795C89.6768 86.9169 89.6768 86.9543 89.6768 86.9916C89.5958 86.8671 89.5335 86.9543 89.4525 87.0415ZM111.952 156.765L111.56 158.11C111.435 158.521 111.653 158.596 111.983 158.54C113.051 158.437 114.1 158.185 115.098 157.792C116.635 157.368 118.093 156.697 119.415 155.805C124.828 152.311 128.266 147.321 130.303 141.291C130.478 140.78 130.602 140.388 129.824 140.432C129.749 140.425 129.676 140.403 129.61 140.368C129.544 140.332 129.485 140.284 129.438 140.226C128.659 139.217 127.444 138.98 126.379 138.482C125.602 138.112 124.754 137.916 123.894 137.906C123.033 137.897 122.181 138.074 121.396 138.426C119.901 139.049 118.549 139.958 117.035 140.475C116.624 140.619 116.169 141.154 115.839 140.843C115.509 140.531 115.777 139.877 115.983 139.441C117.156 136.747 119.2 134.524 121.788 133.131C124.23 131.829 126.547 132.371 128.31 134.52C129.455 136.037 130.285 137.767 130.752 139.609C130.803 139.516 130.844 139.418 130.876 139.317C130.92 139.18 130.951 139.03 130.989 138.887C131.773 135.714 131.961 132.423 131.543 129.182C131.063 125.644 130.073 122.28 127.806 119.402C124.747 115.49 120.791 113.391 115.777 113.422C115.434 113.422 115.117 113.391 114.905 113.808C114.225 115.024 113.722 116.331 113.41 117.689C113.115 119.338 112.907 121.001 112.787 122.672C112.5 126.421 112.544 130.187 112.918 133.928C113.167 136.495 113.485 139.074 113.186 141.665C113.005 142.744 112.914 143.835 112.912 144.929C112.986 146.374 113.042 147.813 112.98 149.252C112.822 151.768 112.479 154.268 111.952 156.733V156.765ZM108.607 177.364C108.627 178.708 108.773 180.047 109.043 181.364C110.196 187.443 112.158 193.299 114.238 199.11C115.684 203.134 117.428 207.046 118.549 211.201C120.474 218.334 122 225.566 123.732 232.748C123.984 233.818 124.522 234.8 125.289 235.588C127.175 237.592 129.463 239.174 132.004 240.229C135.642 241.693 139.479 241.824 143.322 241.674C150.1 241.4 156.603 239.749 162.982 237.588C169.622 235.333 175.882 232.206 182.161 229.116C193.586 223.51 204.368 216.913 213.874 208.373C214.144 208.109 214.461 207.898 214.808 207.75C215.369 207.532 215.487 207.788 215.574 208.274C215.768 209.339 215.294 210.142 214.734 211.002C212.043 215.101 208.392 218.197 204.337 220.838C196.853 225.675 189.077 230.044 181.052 233.919C172.082 238.279 162.988 242.247 153.052 243.992C152.573 244.079 152.51 244.241 152.728 244.677C153.688 246.675 154.397 248.784 154.84 250.956C155.968 256.089 156.709 261.29 157.494 266.479C158.013 269.355 158.18 272.283 157.992 275.2C157.955 275.573 158.117 275.686 158.459 275.654C158.908 275.623 159.356 275.617 159.805 275.58C167.002 274.992 174.125 273.7 181.071 271.724C192.284 268.609 203.079 264.591 213.232 258.892C217.199 256.644 220.967 254.062 224.495 251.174C224.731 250.981 225.055 250.85 224.669 250.439C223.508 249.094 222.714 247.471 222.364 245.729C221.355 241.436 220.763 237.055 220.595 232.648C220.328 225.876 220.794 219.094 221.984 212.422C222.358 210.117 222.607 207.775 223.672 205.645C223.878 205.24 223.554 205.19 223.299 205.103C221.959 204.648 220.601 204.225 219.306 203.651C218.851 203.458 218.247 203.247 218.359 202.661C218.471 202.075 219.144 202.1 219.661 202.088C221.481 202.058 223.293 202.34 225.018 202.923C230.269 204.617 235.221 203.926 239.968 201.16C245.899 197.616 251.235 193.16 255.778 187.954C258.191 185.41 259.892 182.275 260.711 178.866C261.683 174.457 261.944 169.921 261.483 165.429C261.243 162.639 260.351 159.945 258.88 157.562C257.634 155.6 256.07 153.974 253.622 153.613C252.052 153.468 250.471 153.745 249.044 154.416C245.194 155.936 242.03 158.453 239.077 161.268C236.256 164.082 233.624 167.078 231.197 170.238C230.626 170.993 229.99 171.698 229.297 172.344C228.787 172.805 228.22 173.097 227.541 172.693C226.968 172.344 226.818 171.727 227.123 170.892C227.31 170.381 227.559 169.889 227.784 169.391C228.286 168.421 228.727 167.42 229.104 166.395C229.204 166.345 229.26 166.239 229.179 166.183C229.098 166.127 229.067 166.264 229.017 166.32C228.033 167.273 227.067 168.239 226.064 169.167C224.952 170.274 223.747 171.284 222.464 172.188C222.213 172.4 221.898 172.52 221.57 172.528C221.243 172.537 220.921 172.434 220.66 172.236C220.398 172.039 220.212 171.758 220.131 171.44C220.05 171.122 220.08 170.786 220.215 170.487C220.589 169.46 221 168.444 221.393 167.423C223.493 162.074 225.174 156.569 226.419 150.959C226.538 150.429 226.388 150.23 225.927 150.025C225.11 149.658 224.315 149.242 223.548 148.779C217.362 145.041 210.604 142.55 204.013 139.703C202.71 139.099 201.233 138.984 199.852 139.379C199.662 139.41 199.488 139.506 199.362 139.652C199.235 139.798 199.164 139.983 199.161 140.176C198.509 145.891 196.001 151.234 192.022 155.388C185.562 162.103 177.614 164.943 168.401 163.666C158.839 162.346 151.713 157.288 147.141 148.76C145.107 144.969 144.037 140.735 144.026 136.433C144.019 136.26 143.974 136.092 143.895 135.939C143.815 135.786 143.703 135.652 143.565 135.548C142.656 134.607 141.435 134.433 140.339 133.953C138.588 133.192 136.622 133.088 134.801 133.661C134.617 133.681 134.449 133.773 134.333 133.916C134.216 134.059 134.16 134.243 134.178 134.427C134.111 135.87 133.902 137.304 133.555 138.706C131.886 146.1 128.279 152.292 122.181 156.92C121.053 157.78 119.795 158.434 118.593 159.175C118.493 159.186 118.395 159.207 118.3 159.238C115.954 160.353 113.417 161.012 110.825 161.181C112.071 161.804 112.351 162.321 112.183 163.673C112.014 164.957 111.609 166.199 110.987 167.335C110.827 167.724 110.572 168.067 110.246 168.333C109.919 168.598 109.532 168.778 109.118 168.855C108.869 168.855 108.8 169.042 108.775 169.26C108.424 171.947 108.368 174.665 108.607 177.364ZM226.463 143.727C226.171 142.545 225.766 141.393 225.255 140.288C223.591 136.551 221.984 132.813 221.231 128.758C220.745 126.142 220.228 123.519 220.558 120.835C220.601 120.486 220.396 120.355 220.165 120.212C218.995 119.407 217.917 118.476 216.951 117.434C213.668 113.864 211.75 109.591 210.541 104.975C209.657 101.58 209.464 98.1232 209.065 94.641C208.9 92.3719 208.063 90.2032 206.661 88.4119C205.627 87.168 204.438 86.0625 203.122 85.1229C194.819 79.093 185.681 75.2621 175.284 75.1562C173.19 75.0469 171.095 75.33 169.105 75.9909C168.764 76.0698 168.448 76.2301 168.183 76.4581C167.261 77.4548 167.043 77.4797 165.897 76.6948C164.329 75.5831 162.564 74.7798 160.696 74.3277C157.114 73.4868 153.563 73.8605 150.062 74.7451C140.453 77.0453 131.941 82.6115 125.98 90.4924C122.496 94.9265 119.761 99.9008 117.882 105.218C117.814 105.417 117.621 105.648 117.826 105.841C118.032 106.034 118.2 105.841 118.387 105.785C119.882 105.343 121.481 105.409 122.934 105.972C125.797 107.13 128.234 109.139 129.917 111.728C130.532 112.676 130.826 113.796 130.758 114.923C130.708 115.895 130.135 116.206 129.301 115.677C128.605 115.197 127.977 114.627 127.432 113.983C126.26 112.724 124.957 111.594 123.545 110.613C122.668 109.924 121.602 109.519 120.489 109.451C119.377 109.383 118.27 109.656 117.316 110.233C117.11 110.339 116.792 110.382 116.855 110.719C116.917 111.055 117.21 110.937 117.415 110.955C119.934 111.145 122.375 111.907 124.555 113.183C126.734 114.459 128.594 116.215 129.992 118.318C131.816 120.884 133.089 123.801 133.729 126.883C133.779 127.12 133.68 127.556 134.228 127.251C137.71 125.338 141.167 125.7 144.543 127.519C145.204 127.874 145.372 127.83 145.627 127.12C147.671 121.466 151.522 116.643 156.584 113.398C161.646 110.154 167.636 108.669 173.627 109.174C184.391 110.089 192.147 115.696 196.812 125.413C197.543 127.08 198.804 128.457 200.4 129.331C206.492 132.707 212.547 136.183 218.633 139.535C221.156 140.936 223.716 142.257 226.463 143.727ZM171.989 161.48C175.228 161.501 178.439 160.884 181.439 159.663C184.439 158.443 187.169 156.643 189.472 154.366C191.776 152.089 193.609 149.381 194.865 146.396C196.121 143.411 196.776 140.207 196.794 136.968C196.774 130.214 194.087 123.74 189.318 118.957C184.549 114.174 178.083 111.468 171.329 111.429C168.09 111.402 164.877 112.019 161.878 113.243C158.879 114.468 156.153 116.275 153.858 118.561C151.563 120.847 149.745 123.566 148.508 126.56C147.272 129.554 146.642 132.763 146.655 136.003C146.673 142.729 149.343 149.176 154.087 153.945C158.83 158.714 165.263 161.42 171.989 161.474V161.48ZM94.4732 140.301C94.5146 144.053 95.5092 147.734 97.3636 150.996C98.3228 152.729 99.6169 154.255 101.171 155.483C102.724 156.712 104.507 157.62 106.415 158.154C106.919 158.297 107.131 158.191 107.255 157.693C107.604 156.366 108.028 155.064 108.346 153.737C109.149 150.398 109.591 146.985 110.445 143.652C110.544 143.241 110.825 142.768 110.706 142.437C110.544 141.995 109.934 142.251 109.529 142.145C104.926 140.992 100.266 140.07 95.5883 139.248C94.4296 139.036 94.4296 139.036 94.4732 140.282V140.301ZM110.856 137.298C110.638 134.857 110.401 132.384 110.196 129.904C109.934 126.727 109.697 123.544 110.14 120.368C110.369 118.247 110.831 116.158 111.516 114.138C110.471 114.379 109.463 114.76 108.52 115.272C102.11 118.611 98.217 123.993 95.9059 130.702C95.7751 131.082 95.8561 131.219 96.2236 131.325C101.245 132.935 106.137 134.926 110.856 137.28V137.298Z" fill="#FE6B01"/>
<path d="M135.997 302.571C135.617 300.142 135.044 297.75 134.521 295.351C133.898 292.511 133.237 289.683 132.409 286.898C131.503 283.834 129.96 280.996 127.88 278.57C125.463 275.729 125.887 273.157 128.179 270.565C130.235 268.242 132.826 266.604 135.436 265.009C138.9 262.897 142.413 260.879 146.026 259.085C147.738 258.34 149.402 257.489 151.009 256.537C151.495 256.213 151.564 256.575 151.632 256.899C152.093 258.954 152.529 261.016 153.009 263.072C153.831 266.579 154.329 270.154 155.394 273.599C155.575 274.172 155.774 274.733 155.986 275.293C156.123 275.648 156.111 275.829 155.644 275.829C152.561 275.863 149.48 275.727 146.412 275.424C143.681 275.238 140.996 274.622 138.457 273.599C137.089 272.945 135.792 272.149 134.589 271.226C134.408 271.101 134.253 270.815 134.028 270.945C133.804 271.076 134.028 271.4 134.028 271.599C134.396 273.088 135.455 274.091 136.614 274.963C138.999 276.77 141.784 277.586 144.711 278.078C149.113 278.748 153.569 278.99 158.017 278.8C163.551 278.574 169.056 277.867 174.468 276.689C183.201 274.812 191.748 272.158 200.008 268.759C207.302 265.8 214.378 262.393 220.913 257.951C224.713 255.485 228.23 252.608 231.403 249.374C232.152 248.641 232.699 247.727 232.991 246.72C233.058 246.546 233.072 246.356 233.031 246.174C232.99 245.992 232.896 245.827 232.761 245.699C232.616 245.576 232.436 245.503 232.246 245.49C232.057 245.477 231.869 245.523 231.708 245.624C230.646 246.169 229.663 246.857 228.787 247.667C228.456 247.935 228.164 248.209 227.821 248.483C227.478 248.757 227.366 248.645 227.304 248.309C226.851 246.025 226.403 243.741 225.958 241.457C225.821 240.746 226.351 240.877 226.712 240.946C228.076 241.207 229.428 241.538 230.792 241.787C234.256 242.31 237.683 243.055 241.052 244.017C242.705 244.487 244.287 245.178 245.755 246.072C246.28 246.365 246.693 246.825 246.928 247.379C247.162 247.933 247.206 248.55 247.05 249.131C246.702 251 246.06 252.769 245.63 254.606C244.865 257.901 244.613 261.295 244.883 264.666C245.238 269.016 246.012 273.322 247.194 277.523C247.531 278.85 248.04 280.128 248.707 281.323C248.919 281.691 249.181 282.127 249.667 281.977C249.874 281.887 250.047 281.733 250.16 281.536C250.272 281.339 250.318 281.112 250.29 280.887C250.358 279.669 250.321 278.448 250.177 277.237C250.04 276.415 250.128 276.352 250.913 276.645C251.697 276.938 252.476 277.268 253.261 277.598C254.974 278.296 255.715 279.604 255.84 281.423C255.916 283.32 256.464 285.167 257.434 286.799C258.144 287.916 259.12 288.841 260.275 289.49C260.405 289.593 260.556 289.666 260.718 289.704C260.88 289.742 261.048 289.744 261.21 289.71C261.373 289.675 261.526 289.605 261.658 289.505C261.79 289.404 261.899 289.276 261.976 289.128C262.218 288.792 262.412 289.016 262.598 289.128C265.632 290.58 268.772 291.77 271.899 292.984C278.022 295.364 284.139 297.75 289.963 300.864C290.951 301.332 291.89 301.898 292.766 302.552L135.997 302.571Z" fill="#FEA869"/>
<path d="M107.162 302.571C109.106 301.742 111.161 301.25 113.167 300.621C118.026 299.107 122.972 297.88 127.712 295.993C128.903 295.558 130.035 294.976 131.082 294.261C131.3 294.099 131.556 293.85 131.668 294.355C132.291 297.114 133.001 299.849 133.761 302.571H107.162Z" fill="#FEA869"/>
<path d="M118.649 159.238C119.851 158.496 121.14 157.842 122.237 156.983C128.335 152.354 131.942 146.163 133.611 138.769C133.959 137.366 134.167 135.933 134.234 134.489C134.217 134.305 134.272 134.122 134.389 133.978C134.505 133.835 134.673 133.743 134.857 133.723C136.678 133.151 138.644 133.255 140.395 134.016C141.491 134.495 142.712 134.67 143.621 135.61C143.759 135.715 143.871 135.848 143.951 136.001C144.03 136.154 144.075 136.323 144.082 136.495C144.093 140.797 145.163 145.031 147.197 148.822C151.769 157.35 158.895 162.408 168.457 163.729C177.67 165.006 185.618 162.165 192.078 155.45C196.057 151.297 198.565 145.953 199.217 140.239C199.22 140.046 199.291 139.86 199.418 139.714C199.544 139.569 199.718 139.472 199.908 139.441C201.289 139.047 202.766 139.162 204.069 139.765C210.66 142.612 217.418 145.104 223.604 148.841C224.371 149.304 225.166 149.72 225.983 150.087C226.444 150.293 226.606 150.492 226.476 151.021C225.23 156.631 223.549 162.136 221.449 167.485C221.056 168.507 220.645 169.522 220.271 170.55C220.136 170.849 220.106 171.184 220.187 171.502C220.268 171.82 220.454 172.101 220.716 172.299C220.978 172.497 221.299 172.6 221.627 172.591C221.954 172.582 222.269 172.462 222.52 172.25C223.803 171.347 225.008 170.336 226.121 169.229C227.123 168.301 228.089 167.36 229.073 166.382L229.16 166.457C228.783 167.483 228.342 168.483 227.84 169.453C227.616 169.952 227.366 170.444 227.179 170.955C226.874 171.789 227.024 172.406 227.597 172.755C228.276 173.16 228.843 172.867 229.353 172.406C230.046 171.76 230.682 171.056 231.253 170.301C233.668 167.142 236.288 164.145 239.096 161.331C242.036 158.496 245.2 155.98 249.063 154.479C250.49 153.808 252.071 153.53 253.641 153.675C256.089 154.036 257.646 155.662 258.898 157.624C260.37 160.007 261.262 162.702 261.502 165.492C261.962 169.983 261.702 174.519 260.73 178.928C259.911 182.338 258.21 185.472 255.796 188.016C251.253 193.222 245.918 197.679 239.987 201.222C235.259 203.988 230.307 204.679 225.037 202.985C223.312 202.403 221.5 202.121 219.68 202.15C219.163 202.15 218.502 202.094 218.378 202.723C218.253 203.353 218.87 203.521 219.325 203.714C220.62 204.287 221.978 204.711 223.317 205.165C223.573 205.252 223.897 205.302 223.691 205.707C222.62 207.838 222.377 210.18 222.003 212.485C220.813 219.157 220.347 225.938 220.614 232.711C220.781 237.118 221.374 241.499 222.383 245.792C222.733 247.534 223.527 249.156 224.688 250.501C225.074 250.912 224.75 251.043 224.513 251.236C220.985 254.124 217.218 256.706 213.251 258.954C203.098 264.654 192.277 268.69 181.09 271.786C174.144 273.763 167.021 275.054 159.824 275.642C159.375 275.679 158.926 275.686 158.478 275.717C158.135 275.717 157.973 275.636 158.011 275.262C158.199 272.346 158.032 269.417 157.512 266.541C156.734 261.352 155.986 256.151 154.859 251.018C154.416 248.846 153.707 246.737 152.747 244.739C152.529 244.303 152.591 244.116 153.071 244.054C162.988 242.31 172.101 238.367 181.071 233.981C189.096 230.106 196.872 225.738 204.356 220.9C208.411 218.259 212.061 215.163 214.752 211.064C215.313 210.217 215.786 209.401 215.593 208.336C215.506 207.85 215.388 207.595 214.827 207.813C214.48 207.96 214.163 208.172 213.893 208.436C204.387 216.976 193.604 223.566 182.18 229.179C175.901 232.293 169.641 235.408 163 237.65C156.622 239.812 150.118 241.463 143.341 241.737C139.491 241.886 135.661 241.737 132.023 240.292C129.482 239.236 127.193 237.654 125.308 235.651C124.541 234.862 124.003 233.881 123.75 232.81C122.019 225.628 120.493 218.396 118.568 211.264C117.446 207.109 115.702 203.197 114.257 199.173C112.177 193.361 110.214 187.506 109.062 181.426C108.792 180.109 108.646 178.771 108.626 177.427C110.433 177.439 112.237 177.278 114.014 176.947C117.646 176.206 120.735 174.549 122.735 171.31C124.99 167.653 123.931 163.785 120.916 161.094C120.175 160.396 119.272 159.998 118.649 159.238ZM191.929 160.714C188.278 160.82 184.746 161.785 182.074 164.825C181.002 165.941 180.226 167.306 179.816 168.797C179.406 170.289 179.375 171.859 179.726 173.365C180.448 176.592 182.435 178.972 185.064 180.803C188.028 182.878 191.493 184.121 195.099 184.403C197.942 184.723 200.82 184.41 203.527 183.488C206.642 182.379 208.965 180.373 210.093 177.227C211.22 174.082 210.404 170.998 208.729 168.12C207.433 165.915 205.234 164.744 203.154 163.542C199.79 161.592 196.046 160.845 191.929 160.714ZM143.403 213.039C147.423 213.104 151.391 212.121 154.915 210.186C165.114 204.915 173.591 196.835 179.346 186.901C180.429 185.22 181.16 183.336 181.495 181.364C181.781 179.177 180.336 177.726 178.156 178.037C177.072 178.193 176.001 178.442 174.923 178.61C172.967 178.909 171.136 179.725 169.205 180.031C163.804 180.884 158.347 180.89 152.897 180.865C147.789 180.865 142.693 180.703 137.598 180.361C133.58 180.087 129.556 179.881 125.619 178.916C123.75 178.492 121.857 178.18 119.951 177.981C118.487 177.794 117.733 178.641 118.038 180.093C118.115 180.534 118.232 180.968 118.387 181.389C120.748 187.387 122.747 193.529 125.295 199.453C126.541 202.319 127.918 205.115 130.154 207.358C133.72 210.82 138.437 212.847 143.403 213.051V213.039ZM134.683 148.829C134.645 148.474 134.614 148.056 134.203 147.844C134.007 147.76 133.789 147.741 133.581 147.79C133.374 147.84 133.187 147.955 133.051 148.119C132.859 148.279 132.691 148.465 132.552 148.673C130.739 151.527 129.15 154.518 127.799 157.618C127.531 158.189 127.453 158.83 127.575 159.449C127.697 160.067 128.014 160.63 128.478 161.057C130.234 162.868 132.486 164.12 134.95 164.657C135.48 164.775 136.122 164.993 136.439 164.402C136.757 163.81 136.171 163.424 135.816 163.037C134.722 162.024 133.714 160.922 132.801 159.742C131.556 157.936 131.649 156.048 132.477 154.136C132.994 152.952 133.624 151.819 134.172 150.648C134.44 150.079 134.604 149.467 134.658 148.841L134.683 148.829Z" fill="#FEE1CB"/>
<path d="M226.463 143.727C223.716 142.263 221.156 140.943 218.633 139.541C212.547 136.159 206.492 132.689 200.4 129.338C198.804 128.464 197.543 127.086 196.812 125.42C192.147 115.696 184.391 110.09 173.621 109.08C167.63 108.576 161.639 110.061 156.578 113.305C151.516 116.549 147.665 121.372 145.621 127.027C145.366 127.737 145.197 127.78 144.537 127.425C141.161 125.606 137.685 125.245 134.222 127.158C133.673 127.463 133.773 127.027 133.723 126.79C133.083 123.707 131.81 120.791 129.986 118.225C128.588 116.122 126.728 114.365 124.549 113.09C122.369 111.814 119.927 111.052 117.409 110.862C117.203 110.862 116.911 110.937 116.848 110.625C116.786 110.314 117.104 110.245 117.309 110.139C118.263 109.563 119.37 109.29 120.483 109.358C121.596 109.426 122.662 109.831 123.539 110.519C124.95 111.501 126.254 112.631 127.426 113.889C127.971 114.534 128.599 115.104 129.294 115.584C130.117 116.113 130.702 115.802 130.752 114.83C130.82 113.702 130.525 112.582 129.911 111.634C128.228 109.046 125.79 107.037 122.928 105.879C121.475 105.316 119.876 105.25 118.381 105.692C118.194 105.735 117.976 105.891 117.82 105.748C117.664 105.605 117.82 105.331 117.876 105.125C119.754 99.8076 122.49 94.8333 125.974 90.3992C131.934 82.5183 140.447 76.9521 150.056 74.6519C153.557 73.7673 157.108 73.406 160.689 74.2345C162.557 74.6866 164.323 75.4899 165.891 76.6016C167.037 77.3865 167.255 77.3616 168.177 76.3649C168.442 76.1369 168.758 75.9766 169.099 75.8977C171.088 75.2367 173.184 74.9536 175.278 75.063C185.699 75.1938 194.813 79.0248 203.116 85.0297C204.432 85.9693 205.621 87.0748 206.654 88.3187C208.057 90.11 208.894 92.2787 209.059 94.5478C209.457 98.005 209.651 101.487 210.535 104.882C211.744 109.523 213.65 113.796 216.945 117.34C217.91 118.382 218.988 119.314 220.159 120.119C220.39 120.281 220.595 120.411 220.552 120.741C220.221 123.426 220.738 126.049 221.224 128.665C221.978 132.708 223.585 136.464 225.248 140.195C225.768 141.33 226.175 142.513 226.463 143.727ZM176.225 98.9269C172.402 98.8403 168.613 99.66 165.168 101.319C163.966 101.824 162.916 102.633 162.122 103.667C161.708 104.143 161.486 104.756 161.499 105.387C161.486 105.594 161.534 105.8 161.637 105.98C161.74 106.16 161.894 106.305 162.08 106.397C162.266 106.49 162.475 106.526 162.68 106.5C162.886 106.474 163.08 106.388 163.237 106.252C163.629 105.991 164.003 105.698 164.414 105.468C169.198 102.801 174.381 102.297 179.688 102.876C186.86 103.602 193.478 107.059 198.17 112.531C198.42 112.809 198.7 113.058 199.005 113.273C199.349 113.526 199.764 113.663 200.192 113.663C200.619 113.663 201.034 113.526 201.378 113.273C201.728 113.007 201.983 112.636 202.105 112.214C202.228 111.792 202.211 111.342 202.057 110.931C201.842 110.397 201.52 109.914 201.11 109.51C198.412 106.464 195.131 103.988 191.461 102.228C186.711 99.9497 181.492 98.8168 176.225 98.9207V98.9269Z" fill="#FEE1CB"/>
<path d="M171.989 161.474C165.263 161.42 158.83 158.715 154.087 153.946C149.343 149.177 146.673 142.729 146.655 136.003C146.643 132.765 147.274 129.556 148.512 126.564C149.749 123.571 151.568 120.854 153.863 118.569C156.158 116.285 158.883 114.478 161.881 113.255C164.879 112.031 168.091 111.415 171.329 111.441C178.083 111.481 184.549 114.186 189.318 118.97C194.087 123.753 196.774 130.226 196.794 136.981C196.774 140.218 196.117 143.42 194.859 146.403C193.602 149.386 191.769 152.092 189.466 154.367C187.162 156.641 184.433 158.44 181.435 159.659C178.436 160.879 175.226 161.495 171.989 161.474ZM179.769 131.144C175.322 131.2 171.995 132.303 169.011 134.414C166.926 135.8 165.252 137.721 164.165 139.977C163.714 140.844 163.552 141.833 163.704 142.799C163.798 143.247 163.947 143.746 164.439 143.839C164.931 143.933 165.062 143.428 165.28 143.117C165.606 142.476 166.026 141.888 166.526 141.372C169.721 138.686 173.777 137.242 177.95 137.305C181.535 137.442 185.067 138.203 188.39 139.553C188.759 139.712 189.09 139.945 189.362 140.239C190.365 141.204 191.362 142.176 192.371 143.135C193.106 143.839 193.168 143.827 194.308 142.986C194.9 142.543 194.551 142.051 194.308 141.622C193.934 140.924 193.486 140.264 193.062 139.572C189.966 134.147 185.176 131.487 179.769 131.144Z" fill="#FEE1CB"/>
<path d="M111.952 156.734C112.477 154.25 112.816 151.731 112.968 149.196C113.03 147.757 112.968 146.319 112.899 144.873C112.901 143.78 112.993 142.688 113.173 141.609C113.472 139.018 113.173 136.439 112.905 133.873C112.532 130.132 112.488 126.365 112.775 122.617C112.894 120.946 113.102 119.282 113.397 117.633C113.709 116.275 114.213 114.969 114.892 113.752C115.104 113.335 115.422 113.366 115.765 113.366C120.748 113.335 124.735 115.434 127.793 119.346C130.042 122.224 131.032 125.575 131.531 129.126C131.948 132.367 131.76 135.658 130.976 138.831C130.939 138.974 130.908 139.124 130.864 139.261C130.832 139.362 130.79 139.46 130.739 139.554C130.273 137.712 129.442 135.981 128.298 134.464C126.535 132.315 124.218 131.773 121.776 133.075C119.188 134.469 117.143 136.691 115.97 139.385C115.765 139.822 115.466 140.444 115.827 140.787C116.188 141.13 116.612 140.563 117.023 140.42C118.561 139.903 119.913 138.993 121.383 138.37C122.168 138.018 123.021 137.841 123.881 137.851C124.741 137.86 125.59 138.057 126.367 138.426C127.432 138.931 128.646 139.161 129.425 140.17C129.473 140.228 129.531 140.277 129.598 140.312C129.664 140.347 129.737 140.369 129.811 140.376C130.59 140.332 130.434 140.725 130.291 141.236C128.254 147.265 124.815 152.255 119.402 155.75C118.081 156.642 116.623 157.313 115.086 157.737C114.101 157.213 112.961 157.176 111.952 156.734Z" fill="#FEE1CB"/>
<path d="M118.649 159.238C119.272 159.998 120.175 160.396 120.897 161.038C123.912 163.729 124.971 167.597 122.716 171.254C120.717 174.493 117.627 176.15 113.995 176.891C112.219 177.222 110.414 177.383 108.607 177.371C108.386 174.695 108.455 172.003 108.813 169.342C108.813 169.123 108.906 168.968 109.155 168.937C109.569 168.859 109.957 168.68 110.283 168.414C110.609 168.149 110.864 167.806 111.024 167.417C111.646 166.28 112.051 165.038 112.22 163.754C112.388 162.384 112.077 161.885 110.862 161.262C113.454 161.093 115.991 160.434 118.337 159.319C118.438 159.28 118.542 159.253 118.649 159.238ZM118.792 164.04C118.792 162.795 118.456 162.047 117.914 161.848C117.372 161.648 116.487 162.004 115.883 162.795C115.867 162.814 115.852 162.835 115.839 162.857C114.585 164.84 113.776 167.072 113.466 169.398C113.333 169.882 113.398 170.4 113.647 170.837C113.896 171.274 114.308 171.594 114.793 171.727C115.278 171.86 115.796 171.795 116.232 171.546C116.669 171.298 116.99 170.885 117.123 170.4C117.947 168.36 118.508 166.223 118.792 164.04Z" fill="#FEC8A1"/>
<path d="M111.952 156.733C112.961 157.176 114.101 157.213 115.067 157.761C114.068 158.154 113.02 158.406 111.952 158.509C111.622 158.565 111.404 158.509 111.529 158.079L111.952 156.733Z" fill="#FEC8A1"/>
<path d="M229.011 166.383C229.061 166.327 229.079 166.177 229.173 166.246C229.266 166.314 229.173 166.408 229.098 166.457L229.011 166.383Z" fill="#FEE1CB"/>
<path d="M191.929 160.714C196.046 160.845 199.79 161.592 203.141 163.542C205.222 164.744 207.421 165.915 208.716 168.12C210.392 170.973 211.239 173.994 210.08 177.227C208.922 180.46 206.623 182.379 203.515 183.488C200.807 184.41 197.929 184.723 195.087 184.403C191.48 184.121 188.015 182.878 185.052 180.803C182.423 178.934 180.436 176.592 179.713 173.365C179.363 171.859 179.394 170.289 179.804 168.797C180.214 167.306 180.99 165.94 182.062 164.825C184.746 161.792 188.278 160.82 191.929 160.714ZM200.556 175.614C200.458 173.143 200.065 170.692 199.385 168.313C199.186 167.592 198.784 166.944 198.226 166.445C198.048 166.269 197.829 166.14 197.589 166.069C197.35 165.997 197.096 165.985 196.851 166.034C196.605 166.082 196.375 166.19 196.181 166.347C195.986 166.504 195.833 166.707 195.735 166.937C195.451 167.517 195.318 168.16 195.348 168.806C195.392 171.017 195.66 173.216 195.847 175.415C195.871 176.363 196.07 177.298 196.432 178.174C196.589 178.585 196.867 178.938 197.228 179.188C197.589 179.438 198.017 179.573 198.457 179.576C198.892 179.544 199.306 179.377 199.642 179.098C199.977 178.818 200.216 178.441 200.326 178.018C200.543 177.237 200.621 176.423 200.556 175.614ZM186.497 169.615C186.486 171.132 186.601 172.646 186.839 174.144C186.902 174.462 186.996 174.773 187.12 175.072C187.259 175.526 187.535 175.926 187.911 176.216C188.287 176.506 188.744 176.672 189.219 176.692C189.69 176.622 190.126 176.403 190.462 176.066C190.799 175.73 191.018 175.294 191.088 174.823C191.088 174.748 191.119 174.673 191.131 174.599C191.415 171.799 191.122 168.971 190.272 166.289C190.197 166.067 190.09 165.857 189.954 165.666C189.069 164.42 187.624 164.501 186.952 165.915C186.416 167.111 186.503 168.376 186.497 169.615Z" fill="#FEC8A1"/>
<path d="M143.403 213.052C138.438 212.849 133.721 210.824 130.154 207.364C127.918 205.122 126.541 202.325 125.295 199.46C122.716 193.542 120.748 187.4 118.387 181.395C118.232 180.974 118.115 180.541 118.038 180.099C117.733 178.648 118.487 177.801 119.951 177.988C121.857 178.187 123.75 178.499 125.619 178.922C129.556 179.887 133.58 180.093 137.598 180.367C142.693 180.71 147.789 180.853 152.897 180.872C158.347 180.872 163.804 180.872 169.205 180.037C171.136 179.732 172.942 178.916 174.923 178.617C176.001 178.449 177.072 178.199 178.156 178.044C180.336 177.732 181.781 179.184 181.495 181.37C181.16 183.342 180.429 185.226 179.346 186.908C173.591 196.842 165.114 204.921 154.915 210.192C151.391 212.13 147.424 213.115 143.403 213.052ZM120.742 180.299C121.128 181.071 121.483 181.731 121.794 182.404C123.582 186.191 124.797 190.197 126.286 194.102C127.432 197.124 128.485 200.201 130.297 202.91C133.879 208.249 139.018 210.385 145.303 209.974C148.362 209.769 151.128 208.535 153.8 207.115C160.84 203.37 166.942 198.082 171.653 191.648C173.767 188.937 175.619 186.032 177.184 182.971C177.327 182.672 177.658 182.304 177.446 182.03C177.234 181.756 176.823 182.03 176.53 182.061C170.924 182.902 165.355 183.656 159.68 183.631C153.881 183.6 148.088 183.6 142.301 183.183C138.528 182.965 134.772 182.524 131.051 181.862C127.681 181.214 124.267 180.878 120.742 180.299Z" fill="#FE6D04"/>
<path d="M134.658 148.841C134.597 149.476 134.421 150.094 134.141 150.666C133.592 151.837 132.963 152.971 132.446 154.155C131.618 156.061 131.543 157.948 132.77 159.761C133.682 160.941 134.691 162.043 135.785 163.056C136.146 163.442 136.744 163.816 136.408 164.42C136.072 165.025 135.449 164.794 134.919 164.676C132.454 164.139 130.203 162.887 128.447 161.075C127.982 160.649 127.666 160.086 127.544 159.467C127.422 158.849 127.5 158.207 127.768 157.637C129.122 154.543 130.713 151.558 132.527 148.71C132.666 148.503 132.834 148.316 133.026 148.156C133.162 147.992 133.349 147.877 133.556 147.828C133.764 147.778 133.982 147.797 134.178 147.882C134.589 148.087 134.62 148.486 134.658 148.841Z" fill="#FE6D04"/>
<path d="M176.225 98.9206C181.496 98.8022 186.721 99.9223 191.48 102.191C195.149 103.949 198.43 106.423 201.129 109.467C201.539 109.87 201.861 110.354 202.076 110.887C202.23 111.298 202.247 111.748 202.124 112.17C202.002 112.592 201.747 112.963 201.397 113.229C201.053 113.482 200.637 113.619 200.21 113.619C199.783 113.619 199.367 113.482 199.024 113.229C198.719 113.014 198.439 112.765 198.189 112.488C193.497 107.015 186.879 103.558 179.707 102.833C174.412 102.253 169.217 102.758 164.433 105.424C164.022 105.654 163.648 105.947 163.256 106.209C163.099 106.344 162.905 106.43 162.699 106.456C162.493 106.482 162.285 106.446 162.099 106.354C161.913 106.261 161.759 106.116 161.656 105.936C161.552 105.756 161.504 105.55 161.518 105.343C161.504 104.712 161.726 104.099 162.141 103.624C162.935 102.59 163.985 101.78 165.187 101.275C168.629 99.632 172.411 98.8253 176.225 98.9206Z" fill="#FE6D04"/>
<path d="M179.769 131.144C185.176 131.487 189.966 134.147 193.112 139.572C193.511 140.264 193.959 140.924 194.358 141.621C194.588 142.051 194.937 142.543 194.358 142.986C193.218 143.827 193.156 143.839 192.421 143.135C191.412 142.176 190.415 141.204 189.412 140.239C189.139 139.945 188.808 139.712 188.44 139.553C185.117 138.203 181.584 137.442 178 137.305C173.827 137.242 169.771 138.686 166.576 141.372C166.076 141.888 165.656 142.476 165.33 143.117C165.112 143.428 164.938 143.92 164.489 143.839C164.041 143.758 163.866 143.216 163.754 142.799C163.602 141.833 163.764 140.844 164.215 139.977C165.302 137.721 166.976 135.8 169.061 134.414C171.995 132.303 175.322 131.2 179.769 131.144Z" fill="#FE6D04"/>
<path d="M118.792 164.04C118.508 166.223 117.947 168.36 117.122 170.4C116.989 170.885 116.669 171.298 116.232 171.546C115.796 171.795 115.278 171.86 114.793 171.727C114.308 171.594 113.896 171.274 113.647 170.837C113.398 170.4 113.333 169.882 113.466 169.398C113.776 167.072 114.585 164.84 115.839 162.857C115.852 162.835 115.867 162.814 115.883 162.795C116.506 162.004 117.309 161.617 117.914 161.848C118.518 162.078 118.804 162.813 118.792 164.04Z" fill="#FE6D04"/>
<path d="M200.556 175.614C200.627 176.422 200.555 177.236 200.344 178.018C200.235 178.441 199.995 178.818 199.66 179.098C199.325 179.377 198.911 179.544 198.475 179.576C198.036 179.573 197.608 179.438 197.246 179.188C196.885 178.938 196.608 178.585 196.451 178.174C196.088 177.298 195.89 176.363 195.865 175.415C195.679 173.216 195.411 171.017 195.367 168.806C195.337 168.16 195.469 167.517 195.753 166.937C195.852 166.707 196.005 166.504 196.199 166.347C196.394 166.19 196.624 166.082 196.869 166.034C197.115 165.985 197.368 165.997 197.608 166.069C197.848 166.14 198.066 166.269 198.245 166.445C198.802 166.944 199.204 167.592 199.404 168.313C200.077 170.692 200.464 173.143 200.556 175.614Z" fill="#FE6D04"/>
<path d="M186.497 169.615C186.497 168.37 186.416 167.124 186.964 165.953C187.637 164.539 189.082 164.427 189.966 165.704C190.102 165.894 190.21 166.104 190.284 166.326C191.126 169 191.414 171.817 191.131 174.605C191.131 174.68 191.131 174.755 191.088 174.829C191.018 175.3 190.799 175.736 190.462 176.072C190.126 176.409 189.69 176.628 189.219 176.698C188.744 176.679 188.287 176.513 187.911 176.223C187.535 175.932 187.259 175.533 187.12 175.078C186.996 174.779 186.902 174.468 186.839 174.15C186.6 172.651 186.486 171.134 186.497 169.615Z" fill="#FE6D04"/>
</g>
<rect x="1.5" y="2.01123" width="383" height="302" rx="21.5" stroke="#FF6B00" stroke-width="3"/>
<defs>
<clipPath id="clip0_17_2125">
<rect x="3" y="3.51123" width="380" height="299" rx="20" fill="white"/>
</clipPath>
</defs>
</svg>
