<svg width="387" height="305" viewBox="0 0 387 305" fill="none" xmlns="http://www.w3.org/2000/svg">
<g clip-path="url(#clip0_17_2285)">
<rect x="3.12933" y="3" width="380" height="299" rx="20" fill="#FFFDF7"/>
<path d="M52.4623 302C54.0072 295.69 55.3028 289.323 56.6546 282.97C57.7135 277.986 59.2521 273.103 60.6724 268.2C60.986 267.182 61.3904 266.194 61.8808 265.248C63.0282 262.899 65.0157 261.067 67.4497 260.115C79.7835 255.019 92.3664 250.671 104.931 246.13C113.602 243.016 122.428 240.406 131.317 238.032C134.102 237.285 136.88 236.463 139.727 235.996C140.175 235.952 140.605 235.791 140.971 235.528C141.337 235.266 141.628 234.911 141.814 234.501C142.848 232.601 144.012 230.763 144.99 228.838C145.666 227.498 146.622 226.319 147.794 225.381C147.944 225.276 148.062 225.132 148.135 224.963C148.208 224.795 148.232 224.609 148.205 224.428C148.094 222.705 148.554 220.993 149.513 219.557C151.381 216.442 153.294 213.359 154.54 209.908C155.407 207.515 156.52 205.219 157.86 203.056C158.271 202.389 158.258 201.573 158.526 200.851C158.695 200.306 158.975 199.803 159.35 199.374C159.724 198.945 160.185 198.599 160.701 198.358C161.217 198.118 161.778 197.988 162.348 197.977C162.918 197.967 163.483 198.075 164.008 198.297C164.823 198.611 165.56 199.097 166.17 199.723C166.543 200.084 166.911 200.452 167.328 200.869C168.012 199.198 168.269 197.382 168.076 195.587C167.964 194.503 167.64 193.425 168.001 192.329C168.094 192.049 167.858 191.93 167.696 191.8C163.628 188.44 160.344 184.233 158.072 179.472C157.704 178.706 157.299 177.958 156.876 177.23C154.242 172.81 152.532 167.902 151.849 162.803C151.78 162.305 151.649 162.18 151.145 162.354C149.711 162.732 148.2 162.698 146.784 162.255C142.613 161.287 138.821 159.104 135.89 155.982C131.947 151.821 128.714 147.224 126.938 141.755C125.234 136.682 125.207 131.195 126.864 126.107C128.109 122.251 130.9 119.734 134.339 117.878C135.364 117.35 136.514 117.111 137.665 117.187C138.082 117.187 138.238 117.156 138.107 116.663C137.864 115.729 137.708 114.795 137.484 113.773C137.042 113.941 136.78 114.352 136.394 114.595C135.771 114.982 135.148 115.324 134.451 114.882C133.753 114.44 133.753 113.717 133.909 113.013C134.064 112.309 134.22 111.655 134.426 110.989C134.581 110.484 134.631 110.185 133.927 110.366C133.434 110.462 132.923 110.412 132.457 110.222C132.137 110.148 131.849 109.973 131.636 109.723C131.423 109.473 131.296 109.161 131.274 108.833C131.274 107.432 130.744 106.161 130.402 104.84C128.36 97.148 127.727 89.1497 128.533 81.2319C129.083 75.1745 130.553 69.2363 132.893 63.6221C135.322 58.0887 138.775 53.0647 143.072 48.8153C144.617 47.258 146.186 45.7008 147.931 44.2556C147.519 44.0999 147.183 43.9815 146.859 43.832C146.45 43.6544 146.054 43.4462 145.676 43.2091C144.642 42.5363 143.695 41.7639 143.807 40.3686C143.919 38.9733 145.009 38.3877 146.143 38.0202C149.716 36.9295 153.165 35.4681 156.433 33.6598C159.442 31.9343 162.226 29.8787 165.092 27.9476C170.144 24.5465 175.364 21.4631 181.126 19.4137C185.232 17.8359 189.62 17.1254 194.014 17.3269C196.462 17.4889 198.804 18.2052 201.165 18.7783C205.981 19.9463 210.893 20.6698 215.841 20.9398C220.039 21.1828 224.2 21.8244 228.374 22.3102C230.887 22.6485 233.371 23.1732 235.805 23.88C241.885 25.4077 247.295 28.8896 251.204 33.7906C254.63 38.0887 256.636 42.773 256.735 48.2672C256.735 49.1579 256.823 50.0425 256.879 51.0641C257.34 50.6903 257.726 50.3664 258.124 50.0612C260.566 48.1924 262.416 48.9462 262.815 51.9735C263.26 55.1828 263.26 58.4382 262.815 61.6474C262.747 62.1458 262.697 62.507 263.438 62.3451C265.631 61.8841 267.418 62.831 269.094 64.0893C270.164 64.8716 271.068 65.8582 271.754 66.9921C274.401 71.4895 276.625 76.1738 277.64 81.3191C278.234 84.4541 278.511 87.6407 278.469 90.8311C278.471 97.4579 277.495 104.049 275.572 110.391C274.83 112.998 273.874 115.54 272.713 117.99C272.595 118.233 272.445 118.426 272.894 118.489C276.868 119.006 279.055 121.647 280.182 125.135C281.659 129.898 281.797 134.975 280.581 139.811C279.749 143.332 278.246 146.659 276.152 149.609C273.293 153.702 270.327 157.707 266.634 161.084C265.1 162.509 263.39 163.732 261.544 164.721C260.788 165.173 259.932 165.432 259.053 165.475C258.673 165.475 258.548 165.668 258.43 165.974C257.404 168.565 256.366 171.152 255.315 173.735C254.558 175.525 253.617 177.23 252.506 178.824C247.828 185.869 241.985 191.906 235.762 197.512C232.133 200.713 228.073 203.39 223.702 205.466C223.483 205.54 223.291 205.679 223.154 205.865C223.017 206.051 222.941 206.275 222.936 206.507C222.827 207.347 222.586 208.165 222.22 208.93C221.062 211.989 220.43 215.222 220.351 218.492C220.351 219.058 220.5 219.115 221.03 219.214C224.165 219.608 227.096 220.979 229.408 223.132C230.053 223.782 230.549 224.564 230.861 225.425C231.172 226.285 231.293 227.204 231.215 228.116C231.152 230.458 231.028 232.794 230.891 235.13C230.859 235.628 230.94 235.821 231.482 235.871C232.303 235.988 233.07 236.351 233.681 236.911C239.991 242.057 246.625 246.797 252.842 252.048C255.571 254.359 258.536 256.271 261.37 258.396C264.204 260.52 267.406 262.058 270.433 263.884C274.688 266.444 279.154 268.599 283.589 270.779C288.492 273.184 293.145 276.018 297.798 278.877C299.832 280.078 301.599 281.683 302.988 283.594C304.378 285.504 305.361 287.679 305.877 289.984C306.83 293.933 307.473 297.951 307.802 302H303.018C303.018 301.676 303.018 301.346 303.018 301.028C302.69 298.043 302.189 295.079 301.517 292.151C301.184 290.316 300.566 288.545 299.686 286.9C298.44 284.857 296.602 283.518 294.621 282.278C289.731 279.22 284.798 276.242 279.64 273.645C275.588 271.634 271.661 269.381 267.879 266.898C264.042 264.338 259.975 262.114 256.524 259C256.256 258.757 256.094 258.857 255.901 259.062C255.037 259.846 254.128 260.578 253.179 261.255C251.665 262.532 249.877 263.46 248.519 264.942C248.201 265.291 248.127 265.46 248.65 265.634C251.241 266.586 253.71 267.841 256.007 269.371C257.148 269.987 258.184 270.78 259.078 271.72C260.177 273.027 260.762 274.69 260.722 276.398C260.722 282.44 260.828 288.489 260.46 294.525C260.311 297.016 260.336 299.508 260.28 302H255.652C255.546 297.97 255.807 293.939 255.82 289.915C255.82 287.953 255.82 285.991 255.907 284.022C256.032 281.468 255.944 278.896 255.957 276.336C255.982 275.9 255.889 275.465 255.687 275.078C255.485 274.691 255.182 274.366 254.811 274.137C252.388 272.435 249.806 270.975 247.099 269.776C246.569 269.552 246.046 269.328 245.542 269.06C245.05 268.84 244.613 268.512 244.263 268.103C243.913 267.693 243.658 267.21 243.517 266.689C243.377 266.169 243.353 265.624 243.449 265.093C243.545 264.563 243.758 264.06 244.072 263.622C244.582 262.828 245.168 262.085 245.822 261.404C247.317 259.785 249.292 258.769 250.967 257.374C251.497 256.938 251.553 256.708 251.073 256.228C249.746 254.914 248.226 253.823 246.843 252.584C243.461 249.538 239.792 246.859 236.254 244.025C234.521 242.773 232.94 241.322 231.545 239.702C231.364 239.471 231.271 239.116 230.866 239.017C230.866 239.204 230.866 239.353 230.866 239.496C230.866 243.62 230.903 247.75 230.741 251.88C230.718 253.913 230.51 255.94 230.118 257.935C229.738 259.629 229.028 261.124 226.941 261.224C226.655 261.224 226.586 261.454 226.574 261.697C226.577 261.922 226.565 262.147 226.536 262.37C226.084 265.086 225.843 267.833 225.814 270.586C225.77 273.962 225.889 277.345 225.702 280.727C225.571 283.082 225.702 285.449 225.546 287.81C225.415 289.678 225.496 291.585 225.415 293.472C225.291 296.306 225.378 299.147 225.372 301.987H220.737C220.737 301.639 220.687 301.296 220.693 300.947C220.806 294.475 221.142 288.009 221.466 281.543C221.696 276.871 221.883 272.199 222.83 267.584C223.31 265.254 223.503 262.843 224.699 260.732C224.855 260.451 224.649 260.339 224.549 260.152C224.076 259.224 223.117 258.726 222.562 257.879C221.516 256.271 220.475 254.664 219.448 253.063C219.122 252.52 218.716 252.029 218.245 251.606C218.314 254.34 217.722 256.838 217.348 259.361C216.725 263.522 216.171 267.69 215.548 271.851C215.274 273.651 214.664 275.289 212.951 276.248C212.596 276.442 212.757 276.628 212.888 276.871C213.431 277.797 213.834 278.799 214.084 279.843C215.853 287.149 217.541 294.475 217.791 302.037H213.007C213.008 300.579 212.917 299.123 212.733 297.677C212.402 293.939 211.792 290.264 211.319 286.558C210.951 283.661 210.652 280.752 210.347 277.837C210.291 277.258 210.079 277.214 209.606 277.258C208.879 277.418 208.138 277.499 207.394 277.5C205.061 277.415 202.765 276.887 200.629 275.943C200.231 275.744 200.212 275.85 200.137 276.205C199.703 278.579 199.443 280.981 199.359 283.393C199.172 286.539 198.885 289.672 198.592 292.806C198.3 295.939 198.082 298.923 197.832 301.987H193.347C193.422 301.14 193.484 300.299 193.572 299.458C194.195 293.335 195.135 287.262 195.926 281.163C196.238 278.746 196.549 276.311 198.013 274.23C198.078 274.156 198.114 274.061 198.114 273.962C198.114 273.864 198.078 273.768 198.013 273.694C196.668 271.826 196.238 269.664 196.013 267.465C195.665 264.039 195.584 260.613 195.559 257.168C195.559 254.303 195.26 251.512 193.528 249.071C193.468 249.134 193.412 249.2 193.36 249.27C191.846 251.662 189.921 253.792 188.738 256.396C188.581 256.707 188.386 256.998 188.158 257.262C187.422 258.295 186.395 259.086 185.209 259.535C184.022 259.984 182.729 260.071 181.493 259.785C179.287 259.344 177.205 258.423 175.395 257.088L174.149 256.222C174.118 256.34 174.081 256.39 174.093 256.427C174.218 256.782 174.336 257.131 174.473 257.48C176.086 261.741 177.905 265.927 178.946 270.381C179.743 273.775 180.434 277.195 181.338 280.559C183.328 287.552 184.552 294.742 184.988 302H179.905C179.762 300.542 179.606 299.091 179.469 297.639C179.087 293.665 178.394 289.726 177.395 285.86C176.734 283.244 176.055 280.621 175.432 277.993C174.554 274.255 173.975 270.48 172.691 266.867C170.972 262.021 169.49 257.094 168.013 252.166C167.694 250.885 167.051 249.707 166.145 248.747C165.587 248.183 165.06 247.588 164.569 246.965C162.22 243.944 159.778 241.004 157.206 238.176C154.49 235.198 152.359 231.76 149.799 228.658C148.852 227.511 148.859 227.412 148.124 228.701C146.678 231.284 145.294 233.898 143.969 236.544C142.234 240.153 141.058 244.005 140.48 247.968C140.412 248.366 140.462 248.774 140.625 249.143C140.788 249.512 141.056 249.825 141.396 250.042C142.022 250.45 142.716 250.741 143.446 250.902C145.352 251.363 147.264 251.786 149.164 252.26C150.061 252.478 151.033 252.715 151.55 253.506C152.067 254.297 152.378 254.066 152.945 253.718C155.056 252.352 157.393 251.371 159.847 250.821C160.339 250.715 160.862 250.647 161.093 251.126C161.323 251.606 160.987 252.067 160.601 252.403C160.388 252.575 160.161 252.727 159.922 252.858C158.807 253.512 157.654 254.104 156.577 254.82C153.73 256.599 151.023 258.592 148.479 260.781C146.548 262.532 144.617 264.282 142.667 266.014C142.384 266.24 142.185 266.554 142.103 266.907C142.02 267.259 142.059 267.629 142.212 267.957C142.596 269.061 143.056 270.137 143.589 271.178C145.275 274.422 146.676 277.807 147.775 281.294C148.261 282.833 148.771 284.371 149.382 285.866C151.457 291.094 153.072 296.492 154.21 302H149.426C149.446 301.793 149.446 301.584 149.426 301.377C148.666 298.219 147.968 295.036 146.934 291.958C146.074 289.467 145.065 286.975 144.23 284.483C143.228 281.493 142.318 278.466 141.085 275.557C140.219 273.526 139.216 271.552 138.531 269.44C137.733 267.029 138.039 264.942 140.044 263.211C142.58 261.055 145.159 258.956 147.843 256.982C148.105 256.789 148.622 256.701 148.522 256.303C148.423 255.904 147.937 256.035 147.613 255.954C145.37 255.418 143.072 255.138 140.892 254.316C139.699 253.928 138.665 253.162 137.947 252.133C137.23 251.104 136.868 249.869 136.917 248.616C137.018 247.053 137.346 245.513 137.889 244.044C138.431 242.25 139.029 240.468 139.758 238.624C138.194 239.185 136.78 239.802 135.304 240.2C128.782 241.976 122.36 244.075 115.944 246.199C108.749 248.585 101.729 251.45 94.5902 253.985C86.0189 257.031 77.4662 260.127 69.0506 263.585C68.3082 263.869 67.6349 264.309 67.0754 264.874C66.5159 265.439 66.0829 266.116 65.8052 266.861C64.9962 269.13 64.355 271.456 63.8866 273.819C62.9647 277.557 61.9058 281.25 61.1583 285.032C60.2177 289.803 59.3456 294.581 58.1745 299.303C57.9502 300.187 57.7696 301.084 57.5516 301.981L52.4623 302ZM261.482 72.3367C261.488 72.3571 261.488 72.3786 261.482 72.399C261.482 72.4799 261.513 72.4862 261.532 72.399C261.551 72.3118 261.47 72.3491 261.432 72.3242C261.326 70.4555 260.105 69.2096 258.984 67.8641C258.667 67.4935 258.264 67.2068 257.81 67.0297C257.355 66.8525 256.864 66.7904 256.38 66.8488C256.208 66.8881 256.028 66.8682 255.869 66.7925C255.709 66.7168 255.58 66.5896 255.502 66.4314C255.431 66.2575 255.413 66.0663 255.45 65.8822C255.488 65.698 255.58 65.5292 255.714 65.3974C255.938 65.1358 256.15 64.8554 256.337 64.5751C257.068 63.6181 257.418 62.4242 257.321 61.2238C257.321 61.0619 257.321 60.8376 257.084 60.8189C256.848 60.8003 256.81 60.9996 256.779 61.174C256.686 61.7097 256.611 62.2517 256.511 62.7874C256.411 63.3231 256.418 64.0706 255.633 64.0332C254.848 63.9958 254.973 63.2546 254.96 62.7375C254.933 61.3423 254.5 59.9852 253.714 58.8318C253.328 58.2588 253.01 57.6296 252.612 57.0628C251.434 55.4245 250.207 53.836 248.382 52.8394C248.332 52.8394 248.245 52.7771 248.239 52.7895C248.233 52.802 248.239 52.883 248.314 52.9017C248.986 54.1475 249.871 55.194 250.637 56.3464C251.883 58.1778 253.291 59.897 253.895 62.0772C254.499 64.2574 254.518 66.4065 252.649 68.1133C252.57 68.161 252.505 68.2301 252.463 68.3128C252.422 68.3954 252.404 68.4882 252.412 68.5805C253.239 68.4212 254.042 68.1531 254.798 67.7832C255.358 67.535 255.977 67.453 256.583 67.5469C257.188 67.6408 257.753 67.9066 258.212 68.3126C258.942 68.9163 259.588 69.6162 260.13 70.3932C260.536 71.0708 260.988 71.7201 261.482 72.3367ZM169.29 45.7132C169.435 45.7351 169.582 45.7351 169.726 45.7132C171.869 44.9175 173.893 43.8341 175.744 42.4927C175.931 42.3557 176.261 42.2124 176.142 41.9383C176.024 41.6643 175.725 41.7016 175.476 41.6705C174.357 41.6173 173.236 41.6989 172.137 41.9134C171.701 41.9757 171.116 42.2747 170.891 41.6269C170.667 40.979 171.321 40.8918 171.714 40.6738C172.106 40.4558 172.374 40.3374 172.716 40.1879C176.724 38.4479 180.638 36.521 184.458 34.4073C184.994 34.1145 185.542 33.8591 186.084 33.585C185.38 33.803 184.676 33.4978 183.96 33.7221C181.452 34.5631 178.99 35.5362 176.585 36.6373C173.595 37.9704 170.686 39.4716 167.802 40.9977C167.239 41.2507 166.741 41.6276 166.344 42.1003C166.264 42.1803 166.21 42.2828 166.19 42.3942C166.17 42.5055 166.185 42.6203 166.232 42.7232C166.356 42.935 166.581 42.8291 166.774 42.8042C168.699 42.5924 170.636 42.4554 172.573 42.4118C172.897 42.4118 173.339 42.2996 173.427 42.7855C173.514 43.2714 173.115 43.3524 172.804 43.5019C171.529 44.06 170.348 44.8123 169.303 45.7319L169.29 45.7132ZM249.69 143.611L249.883 143.393C251.658 140.981 252.841 138.186 253.334 135.233C254.032 131.389 254.792 127.564 254.811 123.64C254.811 120.893 253.702 118.856 251.229 117.585C250.326 117.118 249.441 116.607 248.544 116.121C247.303 115.437 245.974 114.926 244.595 114.602C241.275 113.742 237.899 113.118 234.491 112.733C230.99 112.434 227.508 112.16 224.007 112.677C221.349 113.088 218.78 113.945 216.408 115.212C215.52 115.644 214.775 116.321 214.261 117.164C213.746 118.006 213.484 118.978 213.505 119.965C213.436 121.834 214.016 123.584 214.489 125.366C215.392 128.711 217.211 131.651 218.594 134.784C219.777 137.337 221.309 139.712 223.148 141.842C225.167 143.943 227.662 145.526 230.423 146.458C233.787 147.417 237.244 147.379 240.695 147.361C240.95 147.392 241.209 147.355 241.445 147.254C241.681 147.154 241.886 146.993 242.041 146.788C242.508 146.165 243.199 146.065 243.548 146.563C243.655 146.729 243.817 146.851 244.006 146.907C244.194 146.963 244.397 146.949 244.576 146.869C246.603 146.399 248.408 145.249 249.69 143.611ZM182.147 144.234C183.501 144.049 184.817 143.652 186.047 143.056C189.307 141.816 192.032 139.476 193.752 136.441C195.222 133.862 196.481 131.19 197.801 128.542C199.096 125.929 200.038 123.156 200.604 120.295C201.308 116.782 200.467 116.501 198.337 115.156C195.609 113.43 192.556 112.521 189.554 111.475C188.08 110.944 186.546 110.597 184.988 110.44C181.437 110.201 177.871 110.356 174.355 110.901C170.924 111.391 167.612 112.503 164.581 114.184C161.653 115.76 159.841 118.289 159.872 121.846C159.872 124.338 159.947 126.767 160.14 129.221C160.419 133.331 161.656 137.318 163.753 140.864C164.287 141.802 165.144 142.514 166.163 142.87C166.9 143.371 167.727 143.725 168.599 143.91C172.093 144.844 175.663 144.769 179.232 144.601C180.219 144.632 181.204 144.5 182.147 144.209V144.234ZM184.359 146.102C183.252 146.373 182.131 146.581 181.001 146.725C178.153 146.953 175.291 146.953 172.442 146.725C169.275 146.592 166.193 145.657 163.485 144.009C162.951 143.598 162.494 143.096 162.133 142.527C160.431 139.741 159.214 136.687 158.533 133.495C157.886 129.411 157.646 125.273 157.816 121.142C157.806 120.194 157.944 119.25 158.227 118.345C158.477 117.629 158.227 117.536 157.604 117.567C154.994 117.704 152.397 117.934 149.799 118.19C149.401 118.233 149.326 118.426 149.301 118.775C149.222 120.021 149.122 121.285 149.002 122.569C148.865 124.051 148.722 125.54 148.522 127.016C148.522 127.333 148.42 127.641 148.231 127.895C148.043 128.15 147.778 128.337 147.476 128.43C147.18 128.488 146.874 128.453 146.599 128.329C146.325 128.205 146.096 127.999 145.943 127.739C145.335 127.046 144.847 126.257 144.498 125.403C144.101 124.275 143.556 123.205 142.879 122.22C142.748 122.045 142.654 121.765 142.399 121.802C141.564 121.933 140.979 121.429 140.35 121.043C139.816 120.664 139.191 120.435 138.539 120.38C137.887 120.326 137.232 120.447 136.643 120.731C134.058 122.052 131.816 123.846 130.95 126.736C129.474 131.676 129.91 136.584 131.691 141.381C132.781 144.333 134.613 146.869 136.425 149.398C138.161 151.871 140.333 154.007 142.835 155.702C145.233 157.303 148.036 157.9 150.871 158.287C151.431 158.368 151.22 157.994 151.195 157.788C150.879 154.64 150.738 151.477 150.771 148.314C150.744 147.623 150.874 146.935 151.151 146.302C151.937 146.927 152.449 147.834 152.578 148.831C153.537 152.793 154.446 156.761 155.574 160.666C156.626 164.479 157.374 168.378 159.261 171.916C160.638 174.483 161.971 177.074 163.36 179.634C164.901 182.492 166.937 185.054 169.371 187.202C174.649 191.911 180.332 196.147 186.352 199.86C191.385 202.944 196.643 205.404 202.591 206.089C205.421 206.535 208.296 206.609 211.144 206.307C213.452 205.905 215.685 205.153 217.766 204.077C220.961 202.564 224.163 201.081 227.066 199.019C231.805 195.536 236.124 191.514 239.935 187.034C242.035 184.642 244.395 182.481 246.127 179.765C247.504 177.61 249.354 175.753 250.456 173.424C253.328 167.363 256.063 161.246 257.066 154.537C257.163 153.395 257.43 152.274 257.857 151.21C258.1 150.712 258.299 150.102 259.015 150.089C259.732 150.077 259.943 150.712 260.186 151.185C260.741 152.313 260.635 153.515 260.529 154.711C260.392 156.312 260.211 157.913 260.049 159.526C260.311 159.522 260.561 159.417 260.747 159.234C261.741 158.569 262.677 157.821 263.544 156.997C266.783 154.045 269.349 150.525 271.959 147.031C275.687 142.217 277.54 136.214 277.173 130.137C277.061 128.063 276.818 126.013 275.722 124.182C273.436 120.357 269.219 120.563 266.434 123.814C264.734 125.808 263.824 128.324 262.859 130.76C262.466 131.827 262.004 132.868 261.476 133.875C261.314 134.167 261.058 134.498 260.759 134.061C260.579 133.804 260.343 133.591 260.068 133.439C259.901 133.346 259.773 133.196 259.709 133.016C259.645 132.835 259.648 132.638 259.719 132.461C259.937 131.719 259.992 130.939 259.881 130.174C259.7 126.126 259.439 122.077 259.321 118.021C259.289 116.776 258.99 115.978 257.763 115.492C257.155 115.25 256.639 114.822 256.288 114.27C255.937 113.717 255.769 113.069 255.807 112.415C255.796 110.274 255.931 108.134 256.212 106.012C256.53 103.47 256.935 100.947 257.047 98.3746C257.209 94.6994 256.58 91.0927 256.187 87.4611C255.684 82.3115 253.494 77.4722 249.958 73.6946C249.577 73.2341 249.087 72.8764 248.532 72.6544C247.501 72.2743 246.588 71.6299 245.884 70.7856C243.76 68.3749 241.592 66.0016 239.923 63.2296C239.147 62.0312 238.102 61.0307 236.871 60.3082C235.16 59.2367 233.411 58.2338 231.626 57.2995C231.321 57.1281 230.983 57.022 230.635 56.988C229.445 56.8946 228.256 56.7388 227.066 56.7139C220.949 56.5707 214.931 57.1936 209.138 59.2803C203.556 61.2973 197.663 62.3219 191.728 62.3077C187.542 62.3077 183.368 62.532 179.195 62.7251C177.979 62.8478 176.753 62.8206 175.544 62.6441C175.219 62.6235 174.906 62.5138 174.639 62.327C174.372 62.1402 174.162 61.8836 174.031 61.5851C173.919 61.2799 173.769 61.2238 173.47 61.3422C172.608 61.592 171.807 62.0161 171.116 62.588C168.667 64.98 166.313 67.4717 164.967 70.6859C162.663 76.1738 160.949 81.8175 160.763 87.8348C160.78 89.18 160.594 90.5201 160.208 91.8091C160.05 92.4308 159.707 92.9899 159.224 93.4125C158.742 93.8352 158.142 94.1014 157.505 94.1761C156.811 94.2665 156.151 94.5317 155.588 94.9468C155.025 95.362 154.576 95.9134 154.284 96.5494C153.889 97.2684 153.557 98.0209 153.294 98.7982C151.425 104.255 150.385 109.905 149.6 115.617C149.525 116.14 149.749 116.209 150.179 116.121C151.596 115.852 153.03 115.681 154.471 115.611C156.009 115.48 157.555 115.48 159.093 115.611C159.269 115.654 159.454 115.65 159.628 115.599C159.802 115.547 159.959 115.45 160.084 115.318C161.964 113.455 164.237 112.035 166.736 111.163C170.851 109.571 175.203 108.676 179.612 108.516C182.121 108.343 184.642 108.439 187.131 108.802C187.909 108.945 188.663 109.35 189.467 109.226C190.824 109.055 192.191 108.967 193.559 108.964C194.332 108.964 195.104 108.964 195.957 108.964C195.901 108.829 195.816 108.707 195.708 108.607C195.601 108.508 195.473 108.432 195.334 108.385C193.68 107.463 191.94 106.704 190.139 106.117C185.985 104.872 181.674 104.66 177.388 104.317C174.506 104.084 171.605 104.214 168.755 104.703C168.291 104.807 167.808 104.787 167.353 104.647C166.867 104.473 166.849 104.186 167.235 103.9C167.46 103.745 167.708 103.628 167.97 103.551C169.353 103.06 170.768 102.665 172.206 102.367C176.012 101.558 179.849 101.614 183.723 101.776C188.16 101.97 192.511 103.056 196.518 104.971C197.252 105.294 197.939 105.713 198.561 106.217C199.228 106.784 199.651 107.494 199.296 108.385C199.066 108.964 199.352 108.933 199.751 108.933C201.065 108.933 202.392 108.933 203.707 108.97C208.104 109.176 212.502 109.413 216.9 109.637C217.124 109.637 217.467 109.78 217.355 109.313C217.13 108.404 217.641 107.849 218.32 107.401C219.214 106.853 220.2 106.471 221.229 106.273C225.14 105.377 229.147 104.971 233.158 105.065C237.706 105.112 242.166 106.328 246.108 108.597C246.391 108.778 246.613 109.04 246.747 109.348C246.88 109.657 246.918 109.998 246.856 110.328C246.769 110.617 246.581 110.865 246.325 111.025C246.07 111.186 245.765 111.248 245.467 111.2C244.726 111.014 243.966 110.901 243.237 110.64C240.869 109.719 238.421 109.018 235.924 108.547C231.995 107.952 227.995 108.017 224.088 108.74C222.697 108.943 221.335 109.315 220.033 109.849C222.139 110.085 224.026 110.403 225.994 110.216C229.657 109.874 233.32 110.31 236.927 110.839C242.277 111.636 247.516 112.864 252.207 115.791C255.191 117.66 256.735 120.152 256.617 123.596C256.551 126.408 256.272 129.211 255.782 131.981C254.904 136.665 254.019 141.325 250.98 145.243C249.294 147.167 247.002 148.457 244.483 148.899C244.109 148.968 243.984 149.161 243.934 149.522C243.756 150.98 243.43 152.416 242.963 153.808C242.765 154.507 242.369 155.135 241.823 155.614C241.597 155.813 241.324 155.951 241.03 156.016C240.736 156.081 240.431 156.071 240.142 155.987C239.853 155.902 239.59 155.746 239.378 155.533C239.165 155.32 239.01 155.056 238.926 154.767C238.745 154.147 238.798 153.482 239.076 152.898C239.468 151.933 239.873 150.967 240.322 150.021C240.546 149.529 240.396 149.398 239.91 149.398C239.015 149.432 238.119 149.419 237.226 149.36C236.752 149.323 236.634 149.472 236.565 149.896C236.408 151.083 235.968 152.216 235.282 153.197C235.085 153.567 234.753 153.847 234.355 153.98C233.958 154.112 233.525 154.087 233.145 153.91C232.765 153.733 232.467 153.417 232.313 153.027C232.16 152.637 232.161 152.203 232.317 151.815C232.498 151.064 232.783 150.343 233.164 149.672C233.388 149.267 233.283 149.049 232.853 149.011C230.607 148.728 228.43 148.044 226.424 146.993C221.908 144.421 219.043 140.44 216.943 135.818C216.358 134.529 215.766 133.239 215.137 131.968C213.326 128.532 212.198 124.777 211.817 120.912C211.773 120.289 211.543 120.133 211.026 119.996C208.777 119.373 206.491 119.454 204.174 119.535C202.797 119.585 202.809 119.616 202.486 120.949C200.935 127.216 198.125 132.928 194.805 138.391C193.226 140.945 190.962 143.004 188.271 144.333C187.025 145.025 185.686 145.548 184.359 146.102ZM199.464 239.895C196.867 237.472 194.749 234.787 192.506 232.233C190.083 229.523 187.318 227.15 184.789 224.534C179.892 219.47 174.853 214.567 168.748 210.873C167.525 210.154 166.362 209.335 165.273 208.425C164.679 207.994 164.242 207.382 164.027 206.681C163.968 206.515 163.948 206.338 163.969 206.163C163.99 205.988 164.051 205.821 164.147 205.673C164.244 205.526 164.373 205.403 164.525 205.314C164.677 205.226 164.848 205.173 165.023 205.161C165.702 205.161 165.839 204.812 165.877 204.264C165.904 204.067 165.958 203.874 166.039 203.691C166.5 202.414 166.5 202.414 165.354 201.692L165.098 201.536C163.385 200.564 162.339 201.019 161.984 202.919C161.587 205.202 160.961 207.439 160.115 209.596C158.333 214.308 155.862 218.729 152.783 222.715C152.576 222.959 152.435 223.252 152.374 223.566C152.313 223.881 152.334 224.205 152.434 224.509C152.679 225.375 153.104 226.179 153.68 226.87C154.845 228.352 156.103 229.773 157.187 231.324C158.314 232.932 159.563 234.45 160.925 235.865C163.148 238.182 165.248 240.611 167.285 243.097C170.378 246.911 173.95 250.311 177.912 253.213C179.244 254.177 180.734 254.902 182.316 255.356C182.833 255.558 183.406 255.569 183.931 255.385C184.456 255.201 184.897 254.835 185.175 254.353C186.526 252.223 188.289 250.385 189.691 248.317C191.478 245.828 193.614 243.608 196.032 241.726C197.038 240.886 198.206 240.262 199.464 239.895ZM171.95 194.97C171.889 195.054 171.85 195.151 171.836 195.253C171.822 195.355 171.833 195.459 171.869 195.556C172.144 197.027 172.186 198.532 171.994 200.016C171.714 202.252 171.072 204.376 169.459 206.027C168.923 206.581 169.047 206.706 169.596 207.036C172.218 208.618 174.922 210.064 177.363 211.932C183.817 216.86 189.448 222.684 195.135 228.433C198.873 232.171 202.218 236.319 206.142 239.901C206.597 240.325 206.802 240.35 207.226 239.87C209.362 237.41 211.631 235.069 214.022 232.856C215.529 231.486 216.968 230.028 218.426 228.602C218.551 228.477 218.98 228.309 218.551 228.053C217.087 227.194 216.682 225.724 216.364 224.229C216.002 222.04 215.941 219.812 216.184 217.607C216.37 214.567 216.645 211.552 217.822 208.693C217.822 208.637 217.822 208.562 217.822 208.494C217.529 208.438 217.33 208.612 217.105 208.706C215.342 209.461 213.489 209.988 211.593 210.275C207.4 210.898 203.252 210.412 199.134 209.74C194.388 208.961 190.139 206.868 186.009 204.551C181.785 202.167 177.75 199.459 173.944 196.453C173.265 195.905 172.573 195.481 171.95 194.97ZM207.313 272.723C208.248 272.693 209.176 272.568 210.085 272.349C210.27 272.316 210.441 272.23 210.576 272.1C210.711 271.97 210.805 271.803 210.845 271.62C211.11 270.639 211.302 269.64 211.418 268.63C212.004 264.855 212.608 261.087 213.443 257.362C213.972 255.019 214.365 252.634 215.461 250.453C216.046 249.295 216.046 249.208 214.981 248.448C213.044 247.102 211.244 245.564 209.375 244.137C208.659 243.589 208.54 243.601 207.98 244.274C206.802 245.707 205.326 245.813 204.043 244.461C203.152 243.527 202.28 242.592 201.358 241.664C201.128 241.434 200.959 241.284 200.623 241.577C198.589 243.22 196.712 245.048 195.017 247.04C194.886 247.208 194.743 247.351 195.017 247.501C196.07 248.037 196.53 249.058 197.029 249.992C199.159 254.06 199.757 258.508 200.181 262.993C200.309 265.072 200.613 267.138 201.09 269.166C201.42 270.412 202.018 271.433 203.314 271.863C204.609 272.303 205.951 272.592 207.313 272.723ZM221.323 226.004L221.946 225.63C222.145 225.531 222.344 225.431 222.568 225.344C223.297 225.032 223.652 225.169 224.007 225.873C224.162 226.215 224.233 226.59 224.212 226.965C224.191 227.341 224.081 227.705 223.889 228.028C223.396 228.921 222.765 229.73 222.02 230.427C219.043 233.572 215.822 236.469 212.789 239.559C212.44 239.914 211.848 240.269 211.829 240.649C211.811 241.029 212.539 241.272 212.938 241.589C216.483 244.218 219.684 247.239 222.948 250.192C224.037 251.182 224.982 252.318 225.758 253.568C225.851 253.711 225.889 253.942 226.175 253.96C226.231 253.12 226.293 252.31 226.331 251.469C226.586 246.485 226.511 241.564 226.599 236.618C226.655 233.784 226.754 230.944 226.867 228.109C226.913 227.474 226.784 226.837 226.494 226.269C226.204 225.702 225.764 225.224 225.222 224.889C224.219 224.195 223.252 223.451 222.325 222.659C221.734 222.167 221.08 221.743 220.401 221.239C220.301 222.939 221.036 224.347 221.323 225.96V226.004ZM220.152 111.2C211.132 110.578 202.087 110.023 193.061 110.578C193.365 110.74 193.681 110.878 194.008 110.989C196.3 111.82 198.486 112.922 200.517 114.271C201.208 114.652 201.784 115.212 202.185 115.891C202.586 116.57 202.797 117.345 202.797 118.134C202.797 118.632 202.965 118.682 203.42 118.594C206.069 118.087 208.803 118.236 211.381 119.031C211.786 119.155 211.854 119.031 211.923 118.657C212.11 117.396 212.62 116.205 213.402 115.199C214.185 114.193 215.213 113.406 216.389 112.913C217.622 112.284 218.856 111.705 220.152 111.157V111.2ZM173.676 48.5288L173.844 48.6845L177.388 44.947L177.233 44.7975C175.457 45.5077 174.492 46.9466 173.676 48.5288Z" fill="#FE6B01"/>
<path d="M57.5391 302C57.7384 301.103 57.919 300.206 58.162 299.321C59.3331 294.6 60.2051 289.822 61.1458 285.05C61.8933 281.275 62.9522 277.575 63.8741 273.838C64.3425 271.475 64.9837 269.149 65.7927 266.88C66.0704 266.135 66.5034 265.457 67.0629 264.892C67.6224 264.328 68.2957 263.888 69.0381 263.603C77.4537 260.146 86.0064 257.05 94.5777 254.004C101.716 251.469 108.737 248.604 115.931 246.218C122.347 244.094 128.77 241.994 135.292 240.219C136.768 239.82 138.182 239.204 139.745 238.643C139.01 240.512 138.412 242.268 137.877 244.062C137.333 245.531 137.006 247.072 136.905 248.635C136.856 249.888 137.217 251.123 137.935 252.152C138.652 253.181 139.686 253.947 140.879 254.334C143.059 255.157 145.358 255.437 147.6 255.973C147.924 256.054 148.423 255.973 148.51 256.321C148.597 256.67 148.092 256.807 147.831 257C145.146 258.969 142.567 261.068 140.032 263.23C138.026 264.936 137.721 267.023 138.518 269.459C139.21 271.57 140.206 273.545 141.072 275.576C142.318 278.485 143.215 281.512 144.218 284.502C145.059 286.994 146.087 289.486 146.921 291.977C147.968 295.054 148.666 298.237 149.413 301.396C149.433 301.603 149.433 301.811 149.413 302.019H106.7C106.619 301.551 106.55 301.09 106.457 300.629C105.547 296.02 104.052 291.566 102.719 287.075C101.299 282.297 99.0191 277.862 96.9136 273.371C95.9356 271.278 94.8767 269.222 94.0046 267.079C93.581 266.045 93.1014 265.036 92.6155 264.027C92.5034 263.796 92.3165 263.485 91.9926 263.553C91.6687 263.622 91.6188 263.977 91.5939 264.282C91.5814 264.407 91.5814 264.532 91.5939 264.656C91.8753 266.498 92.4164 268.292 93.201 269.982C95.593 275.053 97.1503 280.435 99.1437 285.648C100.433 289.012 101.012 292.594 101.872 296.082C102.452 298.025 102.916 300.001 103.261 302H57.5391Z" fill="#FE9A51"/>
<path d="M154.21 302C153.092 296.498 151.497 291.104 149.444 285.879C148.821 284.384 148.323 282.845 147.837 281.307C146.738 277.819 145.338 274.434 143.651 271.19C143.118 270.15 142.658 269.074 142.274 267.97C142.121 267.642 142.083 267.272 142.165 266.919C142.248 266.567 142.446 266.252 142.729 266.026C144.679 264.295 146.61 262.544 148.541 260.794C151.086 258.605 153.793 256.612 156.639 254.833C157.717 254.116 158.869 253.525 159.984 252.87C160.223 252.739 160.451 252.587 160.663 252.416C161.049 252.079 161.442 251.662 161.155 251.139C160.869 250.616 160.37 250.728 159.909 250.834C157.455 251.383 155.119 252.364 153.007 253.73C152.44 254.079 152.085 254.272 151.612 253.518C151.139 252.765 150.123 252.478 149.226 252.273C147.326 251.799 145.414 251.375 143.508 250.915C142.778 250.754 142.084 250.463 141.458 250.055C141.119 249.838 140.85 249.525 140.688 249.156C140.525 248.787 140.474 248.378 140.543 247.981C141.12 244.018 142.296 240.166 144.031 236.556C145.352 233.915 146.737 231.301 148.186 228.714C148.921 227.399 148.915 227.524 149.862 228.67C152.422 231.785 154.552 235.211 157.268 238.188C159.841 241.016 162.251 243.957 164.631 246.978C165.123 247.6 165.649 248.195 166.207 248.759C167.113 249.72 167.757 250.898 168.076 252.179C169.552 257.106 171.035 262.034 172.754 266.88C174.037 270.493 174.623 274.286 175.495 278.005C176.118 280.634 176.797 283.256 177.457 285.873C178.434 289.736 179.107 293.671 179.469 297.64C179.606 299.091 179.762 300.542 179.905 302H154.21Z" fill="#FE9A51"/>
<path d="M225.328 302C225.328 299.159 225.247 296.319 225.371 293.485C225.452 291.616 225.371 289.704 225.502 287.822C225.658 285.461 225.502 283.094 225.658 280.74C225.845 277.357 225.727 273.975 225.77 270.599C225.799 267.845 226.04 265.098 226.493 262.382C226.521 262.159 226.533 261.935 226.53 261.71C226.53 261.467 226.611 261.249 226.898 261.236C228.984 261.137 229.695 259.642 230.074 257.947C230.466 255.952 230.674 253.926 230.697 251.893C230.859 247.763 230.816 243.633 230.822 239.509C230.822 239.366 230.822 239.216 230.822 239.029C231.227 239.129 231.32 239.484 231.501 239.715C232.897 241.334 234.477 242.785 236.21 244.038C239.755 246.872 243.424 249.55 246.8 252.596C248.183 253.842 249.703 254.926 251.029 256.24C251.509 256.72 251.453 256.951 250.924 257.387C249.248 258.782 247.273 259.797 245.778 261.417C245.125 262.098 244.539 262.841 244.028 263.635C243.714 264.073 243.501 264.575 243.405 265.106C243.31 265.636 243.333 266.182 243.474 266.702C243.614 267.223 243.869 267.705 244.219 268.115C244.569 268.525 245.006 268.852 245.498 269.073C246.002 269.34 246.526 269.565 247.055 269.789C249.762 270.987 252.345 272.448 254.767 274.149C255.139 274.378 255.442 274.703 255.643 275.091C255.845 275.478 255.938 275.912 255.913 276.348C255.913 278.908 255.988 281.481 255.863 284.035C255.764 286.003 255.782 287.966 255.776 289.928C255.776 293.952 255.502 297.982 255.608 302.012L225.328 302Z" fill="#FE9A51"/>
<path d="M260.286 302C260.342 299.508 260.317 297.016 260.467 294.525C260.834 288.489 260.734 282.44 260.728 276.398C260.768 274.69 260.183 273.027 259.084 271.72C258.191 270.78 257.154 269.987 256.013 269.371C253.716 267.841 251.247 266.586 248.656 265.634C248.133 265.459 248.208 265.291 248.525 264.942C249.883 263.46 251.671 262.532 253.185 261.255C254.134 260.578 255.043 259.846 255.907 259.062C256.1 258.857 256.262 258.757 256.53 259C259.981 262.114 264.048 264.338 267.886 266.898C271.667 269.381 275.594 271.633 279.646 273.645C284.804 276.242 289.737 279.22 294.627 282.278C296.608 283.524 298.452 284.857 299.692 286.9C300.572 288.545 301.19 290.316 301.523 292.151C302.186 295.075 302.679 298.035 302.999 301.016C303.037 301.333 302.999 301.638 302.999 301.987L260.286 302Z" fill="#FE9A51"/>
<path d="M197.839 302C198.088 298.935 198.318 295.877 198.599 292.818C198.879 289.76 199.178 286.552 199.365 283.406C199.418 280.978 199.649 278.556 200.056 276.162C200.131 275.807 200.15 275.701 200.548 275.9C202.684 276.844 204.98 277.372 207.313 277.457C208.057 277.456 208.798 277.375 209.525 277.214C209.998 277.146 210.21 277.214 210.266 277.794C210.571 280.696 210.889 283.605 211.238 286.514C211.711 290.221 212.321 293.908 212.652 297.634C212.836 299.08 212.927 300.536 212.926 301.994L197.839 302Z" fill="#FE9A51"/>
<path d="M103.261 302C102.932 299.994 102.482 298.01 101.916 296.057C101.037 292.569 100.477 288.987 99.1873 285.623C97.194 280.41 95.6367 275.034 93.2447 269.957C92.4594 268.265 91.9183 266.469 91.6375 264.625C91.6251 264.501 91.6251 264.375 91.6375 264.251C91.6375 263.946 91.7061 263.597 92.0362 263.522C92.3664 263.448 92.5221 263.765 92.6591 263.996C93.145 265.005 93.6246 266.014 94.0482 267.048C94.9203 269.191 95.9793 271.247 96.9572 273.34C99.0627 277.837 101.318 282.272 102.763 287.044C104.102 291.535 105.597 295.989 106.5 300.598C106.594 301.059 106.662 301.52 106.743 301.987L103.261 302Z" fill="#FE6B01"/>
<path d="M251.011 145.237C254.051 141.337 254.935 136.659 255.813 131.975C256.309 129.206 256.594 126.403 256.667 123.59C256.785 120.133 255.24 117.642 252.257 115.785C247.547 112.858 242.327 111.63 236.976 110.833C233.37 110.291 229.707 109.855 226.044 110.21C224.076 110.397 222.188 110.079 220.083 109.843C221.384 109.309 222.746 108.937 224.138 108.734C228.045 108.011 232.045 107.946 235.974 108.541C238.47 109.012 240.918 109.713 243.287 110.634C244.015 110.895 244.775 111.007 245.517 111.194C245.814 111.242 246.119 111.18 246.375 111.019C246.63 110.859 246.819 110.611 246.906 110.322C246.968 109.992 246.93 109.651 246.796 109.342C246.663 109.034 246.441 108.772 246.158 108.591C242.216 106.322 237.756 105.105 233.208 105.059C229.197 104.965 225.19 105.371 221.279 106.267C220.249 106.465 219.264 106.847 218.37 107.395C217.691 107.843 217.18 108.397 217.404 109.307C217.516 109.774 217.174 109.643 216.95 109.631C212.552 109.407 208.154 109.17 203.756 108.964C202.442 108.902 201.115 108.927 199.801 108.927C199.402 108.927 199.116 108.958 199.346 108.379C199.701 107.488 199.277 106.778 198.611 106.211C197.988 105.707 197.301 105.288 196.568 104.965C192.561 103.05 188.209 101.963 183.773 101.77C179.899 101.608 176.061 101.552 172.255 102.361C170.818 102.659 169.403 103.054 168.02 103.545C167.758 103.621 167.509 103.739 167.284 103.894C166.898 104.18 166.917 104.467 167.403 104.641C167.857 104.781 168.34 104.801 168.804 104.697C171.655 104.208 174.555 104.078 177.438 104.311C181.724 104.654 186.034 104.878 190.189 106.111C191.99 106.698 193.73 107.457 195.384 108.379C195.523 108.426 195.651 108.502 195.758 108.601C195.865 108.701 195.95 108.823 196.007 108.958C195.154 108.958 194.381 108.958 193.609 108.958C192.241 108.961 190.874 109.049 189.516 109.22C188.713 109.344 187.959 108.939 187.18 108.796C184.692 108.433 182.171 108.337 179.662 108.51C175.253 108.67 170.901 109.565 166.786 111.157C164.28 112.027 162.001 113.446 160.115 115.312C159.991 115.444 159.833 115.541 159.659 115.593C159.485 115.644 159.3 115.648 159.124 115.605C157.586 115.474 156.04 115.474 154.502 115.605C153.061 115.675 151.627 115.846 150.21 116.115C149.781 116.203 149.556 116.115 149.631 115.611C150.416 109.911 151.437 104.261 153.325 98.7921C153.588 98.0148 153.92 97.2623 154.315 96.5433C154.607 95.9073 155.056 95.3559 155.619 94.9407C156.182 94.5256 156.842 94.2604 157.536 94.17C158.173 94.0953 158.773 93.8291 159.255 93.4064C159.738 92.9838 160.081 92.4247 160.239 91.8029C160.625 90.514 160.812 89.1739 160.794 87.8287C160.981 81.8114 162.694 76.1677 164.998 70.6798C166.344 67.4718 168.699 64.9802 171.147 62.5819C171.838 62.01 172.639 61.5859 173.501 61.3361C173.8 61.2177 173.95 61.2738 174.062 61.579C174.193 61.8775 174.403 62.1341 174.67 62.3209C174.937 62.5077 175.25 62.6174 175.576 62.638C176.784 62.8145 178.01 62.8417 179.226 62.719C183.399 62.5259 187.573 62.2829 191.759 62.3016C197.695 62.3158 203.587 61.2912 209.169 59.2742C214.931 57.1937 220.949 56.5708 227.066 56.6954C228.256 56.6954 229.445 56.876 230.635 56.9694C230.983 57.0035 231.321 57.1095 231.626 57.2809C233.415 58.2153 235.164 59.2182 236.871 60.2896C238.11 61.0395 239.154 62.0727 239.917 63.3045C241.586 66.0765 243.754 68.4498 245.878 70.8605C246.581 71.7047 247.494 72.3492 248.525 72.7292C249.08 72.9513 249.571 73.309 249.952 73.7695C253.488 77.547 255.677 82.3863 256.181 87.536C256.573 91.1676 257.203 94.7743 257.041 98.4495C256.928 101.022 256.524 103.545 256.206 106.086C255.925 108.209 255.789 110.349 255.801 112.49C255.762 113.143 255.93 113.792 256.282 114.345C256.633 114.897 257.149 115.325 257.757 115.567C259.003 116.053 259.283 116.85 259.314 118.096C259.433 122.151 259.694 126.194 259.875 130.249C259.986 131.014 259.931 131.794 259.713 132.535C259.642 132.713 259.638 132.91 259.702 133.09C259.767 133.27 259.894 133.421 260.062 133.513C260.337 133.666 260.573 133.879 260.753 134.136C261.052 134.572 261.308 134.242 261.469 133.949C261.998 132.943 262.46 131.902 262.852 130.835C263.818 128.399 264.721 125.852 266.428 123.889C269.212 120.638 273.429 120.432 275.716 124.257C276.812 126.088 277.055 128.138 277.167 130.212C277.533 136.289 275.681 142.292 271.953 147.105C269.343 150.6 266.777 154.12 263.538 157.072C262.671 157.896 261.735 158.644 260.741 159.308C260.555 159.492 260.305 159.597 260.043 159.601C260.205 157.988 260.386 156.387 260.523 154.786C260.629 153.59 260.734 152.388 260.18 151.26C259.937 150.762 259.738 150.158 259.009 150.164C258.28 150.17 258.093 150.787 257.85 151.285C257.423 152.349 257.157 153.47 257.059 154.612C256.044 161.314 253.303 167.45 250.438 173.492C249.335 175.822 247.485 177.678 246.108 179.834C244.377 182.549 242.016 184.711 239.917 187.103C236.105 191.582 231.786 195.604 227.047 199.088C224.144 201.15 220.943 202.632 217.747 204.146C215.666 205.221 213.433 205.973 211.125 206.376C208.277 206.677 205.402 206.604 202.573 206.158C196.624 205.448 191.36 202.987 186.333 199.929C180.313 196.216 174.631 191.98 169.353 187.271C166.918 185.123 164.883 182.561 163.341 179.703C161.952 177.143 160.619 174.551 159.243 171.985C157.374 168.447 156.608 164.547 155.555 160.735C154.459 156.804 153.518 152.836 152.559 148.899C152.43 147.903 151.919 146.996 151.132 146.37C150.855 147.004 150.725 147.692 150.752 148.382C150.719 151.546 150.86 154.709 151.176 157.857C151.176 158.063 151.413 158.436 150.852 158.355C148.018 157.969 145.215 157.371 142.816 155.77C140.314 154.076 138.142 151.94 136.407 149.466C134.594 146.937 132.762 144.402 131.672 141.449C129.891 136.653 129.455 131.744 130.931 126.805C131.797 123.908 134.046 122.12 136.625 120.8C137.214 120.515 137.868 120.394 138.52 120.449C139.172 120.504 139.797 120.732 140.331 121.111C140.954 121.497 141.577 122.002 142.38 121.871C142.636 121.834 142.729 122.114 142.86 122.288C143.538 123.274 144.082 124.344 144.48 125.472C144.828 126.325 145.316 127.115 145.925 127.808C146.077 128.068 146.306 128.274 146.581 128.398C146.855 128.522 147.161 128.557 147.457 128.499C147.76 128.406 148.024 128.218 148.213 127.964C148.401 127.71 148.503 127.401 148.504 127.085C148.703 125.609 148.846 124.12 148.983 122.637C149.099 121.391 149.199 120.127 149.282 118.844C149.282 118.495 149.382 118.302 149.781 118.258C152.378 118.009 154.976 117.779 157.586 117.635C158.209 117.604 158.483 117.698 158.209 118.414C157.925 119.319 157.787 120.263 157.797 121.211C157.628 125.342 157.868 129.48 158.514 133.563C159.195 136.756 160.412 139.81 162.114 142.596C162.475 143.165 162.932 143.666 163.466 144.078C163.459 144.19 163.424 144.298 163.365 144.394C163.307 144.489 163.226 144.569 163.13 144.626C162.35 145.202 161.665 145.896 161.099 146.682C160.02 148.154 159.492 149.957 159.606 151.778C159.72 153.599 160.469 155.323 161.722 156.649C164.214 159.284 167.328 160.386 170.829 160.648C175.046 160.922 178.983 159.994 182.309 157.215C185 154.973 186.396 151.69 185.175 148.027C184.95 147.367 184.433 146.844 184.346 146.159C185.673 145.604 187.012 145.075 188.289 144.414C190.981 143.085 193.245 141.026 194.824 138.472C198.156 132.984 200.953 127.259 202.504 121.03C202.828 119.697 202.816 119.666 204.192 119.616C206.478 119.535 208.765 119.46 211.044 120.077C211.561 120.214 211.792 120.389 211.835 120.993C212.208 124.861 213.327 128.62 215.131 132.062C215.754 133.308 216.377 134.622 216.937 135.912C219.036 140.534 221.921 144.514 226.418 147.087C226.069 148.946 226.202 150.863 226.804 152.656C227.212 154.023 228.057 155.22 229.209 156.063C230.214 156.795 231.328 157.364 232.51 157.751C234.511 158.409 236.573 158.863 238.665 159.109C240.238 159.353 241.839 159.37 243.417 159.159C245.237 158.9 246.949 158.141 248.362 156.965C249.774 155.789 250.832 154.243 251.416 152.5C252.362 150.039 252.711 147.579 251.011 145.237ZM204.404 179.852C206.481 179.863 208.54 179.467 210.465 178.687C212.994 177.672 215.118 176.009 217.317 174.495C219.475 173.129 221.373 171.391 222.923 169.362C223.505 168.638 223.852 167.753 223.919 166.826C223.986 165.899 223.769 164.974 223.297 164.173C222.9 163.375 222.272 162.716 221.494 162.281C220.716 161.847 219.824 161.657 218.937 161.738C216.352 161.825 213.767 161.981 211.181 162.08C207.451 162.224 203.716 162.118 200 161.763C197.259 161.495 194.643 160.673 191.989 160C191.055 159.757 190.121 159.452 189.13 159.744C188.754 159.856 188.354 159.856 187.978 159.744C186.227 159.29 184.894 160.106 184.546 161.881C184.173 164.011 184.566 166.204 185.654 168.073C187.039 170.466 188.824 172.604 190.93 174.395C194.57 177.853 199.384 179.803 204.404 179.852ZM136.238 139.107C136.417 138.898 136.533 138.644 136.575 138.372C136.88 137.126 137.166 135.912 137.497 134.691C137.726 133.641 138.163 132.648 138.78 131.769C139.565 130.754 140.493 130.71 141.365 131.632C142.657 132.99 143.622 134.624 144.187 136.41C144.374 136.996 144.261 137.313 143.682 137.562C142.672 137.931 141.757 138.521 141.004 139.288C140.237 140.141 139.82 141.157 140.318 142.241C141.195 144.017 142.643 145.447 144.43 146.302C144.69 146.437 144.989 146.476 145.275 146.412C145.561 146.348 145.815 146.186 145.993 145.953C146.193 145.744 146.322 145.478 146.363 145.193C146.405 144.907 146.356 144.615 146.224 144.358C145.962 143.818 145.565 143.355 145.071 143.013C143.738 141.942 143.744 141.942 145.233 141.144C147.725 139.768 148.348 137.905 147.32 135.251C146.455 133.123 145.16 131.198 143.514 129.595C141.147 127.216 138.101 127.727 136.768 130.841C135.786 133.211 135.459 135.801 135.821 138.341C135.822 138.493 135.861 138.643 135.934 138.776C136.007 138.91 136.111 139.024 136.238 139.107ZM270.626 129.801C269.752 129.805 268.894 130.035 268.135 130.467C266.619 131.363 265.304 132.56 264.271 133.986C263.238 135.411 262.509 137.033 262.13 138.752C261.55 141.107 262.977 143.063 265.375 143.468C265.793 143.536 266.216 143.549 266.621 143.592C266.789 143.592 267.007 143.53 267.107 143.698C267.207 143.866 267.02 144.059 266.908 144.209C266.154 145.255 265.381 146.296 264.628 147.324C264.287 147.729 264.071 148.225 264.005 148.75C263.961 149.373 264.217 149.566 264.758 149.373C267.185 148.542 269.217 146.84 270.458 144.595C271.586 142.67 270.377 140.683 268.147 140.447C267.574 140.39 267.001 140.359 266.44 140.278C265.481 140.141 265.288 139.892 265.487 138.933C265.72 137.735 266.108 136.573 266.64 135.476C267.224 134.26 268.05 133.176 269.069 132.293C270.228 131.315 271.336 131.196 272.402 131.9C272.564 132.006 272.701 132.261 272.9 132.155C273.099 132.05 273.143 131.738 273.124 131.483C273.096 131.209 273 130.946 272.844 130.718C272.689 130.491 272.479 130.306 272.233 130.181C271.745 129.904 271.187 129.772 270.626 129.801ZM213.212 147.897C213.201 147.005 212.892 146.144 212.334 145.449C211.051 143.648 210.174 141.591 209.761 139.419C209.646 138.834 209.498 138.256 209.319 137.687C209.266 137.495 209.147 137.327 208.983 137.213C208.819 137.099 208.621 137.047 208.422 137.064C208.221 137.078 208.031 137.16 207.883 137.297C207.736 137.435 207.64 137.618 207.612 137.818C207.438 138.442 207.393 139.095 207.481 139.736C207.894 142.213 208.519 144.649 209.35 147.018C209.466 147.291 209.503 147.591 209.457 147.884C209.411 148.177 209.283 148.451 209.088 148.675C208.723 149.082 208.388 149.515 208.086 149.971C207.494 150.905 206.728 151.765 206.647 152.948C206.617 153.096 206.632 153.25 206.691 153.389C206.75 153.528 206.85 153.646 206.977 153.727C207.102 153.812 207.253 153.85 207.404 153.837C207.555 153.823 207.697 153.758 207.805 153.652C208.102 153.428 208.432 153.251 208.783 153.129C209.896 152.623 210.898 151.901 211.73 151.005C212.595 150.191 213.124 149.082 213.212 147.897Z" fill="#FEE0CA"/>
<path d="M171.95 194.971C172.573 195.45 173.271 195.905 173.912 196.41C177.719 199.416 181.753 202.124 185.978 204.508C190.108 206.825 194.356 208.918 199.103 209.696C203.239 210.369 207.388 210.868 211.561 210.232C213.458 209.945 215.311 209.418 217.074 208.662C217.298 208.569 217.498 208.395 217.791 208.451C217.791 208.519 217.834 208.594 217.791 208.65C216.613 211.509 216.339 214.524 216.152 217.564C215.91 219.769 215.971 221.997 216.333 224.185C216.657 225.68 217.056 227.151 218.519 228.01C218.949 228.266 218.519 228.434 218.395 228.558C216.937 229.985 215.498 231.442 213.991 232.813C211.597 235.031 209.326 237.379 207.189 239.846C206.765 240.325 206.566 240.3 206.105 239.877C202.18 236.295 198.823 232.171 195.098 228.409C189.41 222.659 183.779 216.835 177.326 211.908C174.884 210.039 172.181 208.594 169.558 207.012C169.01 206.682 168.885 206.557 169.421 206.003C171.034 204.346 171.676 202.228 171.956 199.991C172.149 198.507 172.107 197.002 171.832 195.531C171.805 195.435 171.802 195.334 171.823 195.237C171.843 195.139 171.887 195.048 171.95 194.971Z" fill="#FEE0CA"/>
<path d="M166.163 142.87C165.144 142.514 164.287 141.802 163.753 140.864C161.656 137.318 160.419 133.331 160.14 129.222C159.947 126.767 159.891 124.307 159.872 121.846C159.841 118.289 161.653 115.76 164.581 114.184C167.612 112.504 170.924 111.391 174.355 110.902C177.871 110.356 181.437 110.201 184.988 110.441C186.546 110.597 188.08 110.944 189.554 111.475C192.556 112.521 195.609 113.431 198.337 115.156C200.467 116.502 201.308 116.782 200.604 120.295C200.044 123.155 199.108 125.928 197.82 128.543C196.499 131.19 195.241 133.862 193.771 136.441C192.042 139.47 189.31 141.801 186.047 143.032C184.817 143.627 183.501 144.025 182.147 144.209C182.001 143.948 181.786 143.732 181.524 143.586C179.521 142.338 177.258 141.564 174.909 141.325C172.068 141.017 169.194 141.406 166.537 142.459C166.344 142.533 166.151 142.614 166.163 142.87ZM176.753 120.445C175.555 123.086 175.099 126.004 175.432 128.885C175.499 130.565 176.104 132.179 177.158 133.489C178.234 134.672 179.651 135.491 181.214 135.834C182.776 136.176 184.406 136.025 185.879 135.401C186.8 135.011 187.565 134.325 188.053 133.451C189.817 130.307 190.436 126.648 189.803 123.098C190.088 123.156 190.356 123.282 190.582 123.466C191.616 124.089 192.619 124.805 193.696 125.422C194.092 125.715 194.586 125.843 195.074 125.779C195.562 125.715 196.006 125.464 196.312 125.079C196.879 124.325 196.749 123.354 195.914 122.531C194.891 121.474 193.707 120.585 192.407 119.897C190.325 118.827 188.12 118.015 185.841 117.48C181.368 116.492 176.707 116.786 172.392 118.327C171.047 118.687 169.759 119.237 168.568 119.959C168.194 120.22 167.845 120.582 168.001 121.074C168.157 121.566 168.624 121.697 169.147 121.697C170.039 121.609 170.919 121.423 171.77 121.142C173.399 120.708 175.074 120.47 176.759 120.432L176.753 120.445Z" fill="#FEE0CA"/>
<path d="M226.923 144.844C225.485 144.092 224.204 143.073 223.148 141.842C221.309 139.713 219.777 137.337 218.594 134.784C217.211 131.67 215.392 128.711 214.489 125.366C214.016 123.584 213.436 121.846 213.505 119.965C213.484 118.978 213.746 118.006 214.261 117.164C214.775 116.322 215.52 115.644 216.408 115.212C218.78 113.945 221.349 113.088 224.007 112.677C227.508 112.16 230.99 112.434 234.491 112.733C237.899 113.118 241.275 113.742 244.595 114.602C245.983 114.924 247.32 115.435 248.569 116.122C249.466 116.608 250.35 117.118 251.254 117.586C253.745 118.831 254.848 120.893 254.835 123.64C254.835 127.565 254.057 131.389 253.359 135.233C252.866 138.186 251.683 140.982 249.908 143.393L249.715 143.611C249.592 143.615 249.469 143.593 249.355 143.546C249.241 143.499 249.139 143.427 249.055 143.337C246.995 141.691 244.592 140.531 242.022 139.942C240.101 139.448 238.104 139.319 236.136 139.562C233.32 139.992 230.697 140.808 228.567 142.832C227.907 143.443 227.589 144.278 226.923 144.844ZM225.751 124.164L225.795 124.201C225.356 125.86 225.101 127.563 225.035 129.278C224.967 132.635 226.1 135.376 229.209 137.033C229.905 137.432 230.699 137.629 231.501 137.6C233.008 137.589 234.476 137.122 235.714 136.262C236.951 135.402 237.899 134.187 238.434 132.779C239.885 129.34 239.481 125.864 238.397 122.363C238.833 122.363 239.375 122.407 239.91 122.463C241.779 122.656 243.648 123.049 245.517 123.086C245.89 123.086 246.308 123.123 246.47 122.687C246.632 122.251 246.345 122.021 246.077 121.728C244.564 120.065 242.558 119.548 240.471 119.274C237.412 118.875 234.36 119.186 231.308 119.442C227.584 119.804 223.949 120.802 220.563 122.395C219.655 122.759 218.874 123.381 218.314 124.182C217.61 125.229 217.691 126.344 218.482 127.029C219.273 127.714 220.201 127.583 221.235 126.774C222.601 125.682 224.123 124.802 225.751 124.164Z" fill="#FEE0CA"/>
<path d="M207.313 272.723C205.969 272.598 204.644 272.32 203.364 271.894C202.068 271.464 201.495 270.418 201.14 269.197C200.663 267.169 200.358 265.104 200.231 263.024C199.807 258.539 199.209 254.091 197.079 250.024C196.58 249.058 196.119 248.036 195.067 247.532C194.774 247.382 194.917 247.239 195.067 247.071C196.761 245.08 198.638 243.251 200.673 241.608C201.009 241.315 201.177 241.465 201.408 241.695C202.33 242.605 203.202 243.564 204.093 244.492C205.376 245.844 206.852 245.738 208.03 244.305C208.59 243.632 208.708 243.62 209.425 244.168C211.294 245.595 213.088 247.133 215.031 248.479C216.096 249.22 216.096 249.326 215.511 250.485C214.414 252.665 214.022 255.051 213.492 257.393C212.658 261.13 212.054 264.868 211.468 268.661C211.352 269.671 211.16 270.67 210.895 271.651C210.855 271.834 210.761 272.001 210.626 272.131C210.49 272.261 210.32 272.347 210.135 272.38C209.209 272.592 208.263 272.707 207.313 272.723Z" fill="#FE9A51"/>
<path d="M184.359 146.103C184.446 146.813 184.982 147.348 185.187 147.971C186.433 151.634 185.013 154.917 182.322 157.159C178.995 159.975 175.065 160.891 170.841 160.598C167.365 160.367 164.232 159.234 161.734 156.599C160.481 155.273 159.732 153.549 159.618 151.728C159.505 149.907 160.033 148.104 161.111 146.632C161.678 145.846 162.363 145.152 163.142 144.576C163.238 144.519 163.319 144.439 163.378 144.344C163.436 144.248 163.471 144.14 163.478 144.028C166.187 145.676 169.269 146.61 172.436 146.744C175.284 146.972 178.146 146.972 180.995 146.744C182.127 146.594 183.25 146.38 184.359 146.103ZM171.072 148.906C171.095 148.726 171.071 148.544 171.003 148.376C170.935 148.209 170.825 148.062 170.683 147.949C170.542 147.836 170.374 147.762 170.195 147.733C170.017 147.704 169.834 147.722 169.664 147.785C169.21 147.926 168.806 148.194 168.499 148.557C167.492 149.659 166.726 150.96 166.25 152.375C165.895 153.497 166.182 154.425 166.961 154.767C167.739 155.11 168.549 154.674 169.103 153.522C169.658 152.369 170.193 151.235 170.717 150.089C170.905 149.719 171.026 149.318 171.072 148.906ZM177.787 149.049C177.79 148.801 177.73 148.557 177.613 148.339C177.495 148.12 177.323 147.936 177.114 147.803C176.915 147.699 176.689 147.659 176.467 147.686C176.244 147.714 176.035 147.809 175.868 147.959C175.605 148.145 175.375 148.374 175.189 148.638C174.541 149.612 174.061 150.688 173.769 151.821C173.639 152.175 173.644 152.565 173.782 152.916C173.919 153.267 174.181 153.555 174.517 153.727C174.84 153.868 175.205 153.882 175.538 153.766C175.871 153.651 176.149 153.415 176.317 153.104C177.07 151.863 177.57 150.485 177.787 149.049Z" fill="#FEC79F"/>
<path d="M251.011 145.237C252.711 147.579 252.362 150.04 251.416 152.525C250.814 154.251 249.747 155.776 248.332 156.933C246.917 158.089 245.209 158.832 243.399 159.078C241.82 159.289 240.22 159.272 238.646 159.028C236.554 158.783 234.492 158.328 232.491 157.67C231.31 157.283 230.196 156.714 229.19 155.982C228.038 155.139 227.194 153.942 226.785 152.575C226.183 150.782 226.05 148.865 226.399 147.006C228.405 148.057 230.582 148.74 232.828 149.024C233.258 149.08 233.364 149.28 233.139 149.684C232.758 150.356 232.473 151.077 232.292 151.827C232.136 152.216 232.135 152.65 232.289 153.04C232.442 153.43 232.74 153.746 233.12 153.923C233.5 154.1 233.933 154.125 234.33 153.992C234.728 153.86 235.06 153.58 235.257 153.21C235.943 152.228 236.383 151.096 236.54 149.909C236.609 149.485 236.727 149.336 237.201 149.373C238.094 149.432 238.99 149.445 239.885 149.41C240.371 149.41 240.508 149.51 240.297 150.033C239.867 150.98 239.462 151.946 239.051 152.911C238.773 153.495 238.72 154.16 238.901 154.78C238.985 155.069 239.14 155.332 239.353 155.546C239.565 155.759 239.828 155.915 240.117 155.999C240.406 156.084 240.711 156.094 241.005 156.029C241.299 155.964 241.572 155.826 241.798 155.627C242.344 155.147 242.74 154.52 242.938 153.821C243.417 152.436 243.755 151.006 243.947 149.554C243.997 149.167 244.121 148.974 244.495 148.931C247.026 148.483 249.326 147.179 251.011 145.237Z" fill="#FEC79F"/>
<path d="M226.923 144.844C227.589 144.277 227.907 143.443 228.542 142.832C230.673 140.802 233.295 139.992 236.111 139.562C238.079 139.319 240.076 139.448 241.997 139.942C244.567 140.531 246.97 141.691 249.03 143.337C249.114 143.427 249.216 143.499 249.33 143.546C249.444 143.593 249.567 143.615 249.69 143.611C248.408 145.25 246.603 146.399 244.576 146.869C244.397 146.949 244.194 146.963 244.006 146.907C243.817 146.851 243.655 146.729 243.548 146.564C243.199 146.065 242.508 146.152 242.041 146.788C241.886 146.993 241.681 147.154 241.445 147.254C241.209 147.355 240.95 147.392 240.695 147.361C237.244 147.361 233.787 147.417 230.423 146.458C229.182 146.1 228.001 145.556 226.923 144.844Z" fill="#FEC79F"/>
<path d="M220.151 111.157C218.856 111.705 217.622 112.284 216.377 112.839C215.201 113.331 214.172 114.118 213.39 115.124C212.607 116.13 212.098 117.321 211.91 118.582C211.842 118.962 211.773 119.081 211.368 118.956C208.79 118.162 206.057 118.012 203.407 118.52C202.965 118.607 202.785 118.557 202.785 118.059C202.785 117.27 202.573 116.496 202.172 115.816C201.771 115.137 201.195 114.578 200.505 114.197C198.473 112.848 196.288 111.746 193.995 110.914C193.669 110.803 193.352 110.666 193.048 110.503C202.112 109.98 211.132 110.553 220.151 111.157Z" fill="#FEE0CA"/>
<path d="M166.163 142.87C166.163 142.615 166.344 142.534 166.531 142.465C169.188 141.413 172.061 141.023 174.903 141.331C177.251 141.571 179.514 142.344 181.518 143.593C181.779 143.739 181.995 143.954 182.141 144.216C181.198 144.507 180.213 144.639 179.226 144.608C175.656 144.776 172.087 144.851 168.593 143.917C167.723 143.729 166.897 143.373 166.163 142.87Z" fill="#FEC79F"/>
<path d="M204.404 179.852C199.376 179.81 194.551 177.859 190.906 174.395C188.808 172.602 187.032 170.464 185.654 168.073C184.564 166.203 184.172 164.007 184.546 161.875C184.894 160.099 186.227 159.283 187.978 159.738C188.354 159.85 188.754 159.85 189.13 159.738C190.108 159.445 191.055 159.738 191.989 159.994C194.643 160.666 197.259 161.489 200 161.756C203.716 162.111 207.452 162.217 211.182 162.074C213.767 161.974 216.352 161.819 218.937 161.731C219.824 161.651 220.716 161.84 221.494 162.275C222.272 162.709 222.9 163.369 223.297 164.167C223.769 164.968 223.986 165.893 223.919 166.82C223.852 167.747 223.505 168.631 222.924 169.356C221.373 171.385 219.475 173.123 217.317 174.489C215.106 176.002 212.957 177.666 210.465 178.681C208.54 179.463 206.482 179.861 204.404 179.852ZM204.547 176.532C207.188 176.539 209.763 175.71 211.904 174.165C213.648 173.012 215.324 171.767 217.018 170.54C218.117 169.76 219.111 168.843 219.977 167.811C220.451 167.244 220.849 166.653 220.482 165.849C220.114 165.045 219.41 164.958 218.669 164.958C216.925 165.008 215.187 165.064 213.443 165.151C207.426 165.519 201.387 165.151 195.459 164.055C193.061 163.582 190.582 163.283 188.501 161.775C188.305 161.663 188.083 161.604 187.856 161.604C187.63 161.604 187.408 161.663 187.212 161.775C186.875 161.943 187.062 162.398 187.106 162.747C187.341 164.225 187.886 165.637 188.707 166.889C190.363 169.413 192.476 171.606 194.936 173.355C197.783 175.498 201.059 176.345 204.547 176.532Z" fill="#FE6B01"/>
<path d="M136.238 139.107C136.112 139.023 136.009 138.909 135.938 138.776C135.866 138.642 135.828 138.493 135.827 138.341C135.458 135.792 135.783 133.19 136.768 130.81C138.101 127.696 141.128 127.191 143.514 129.564C145.16 131.167 146.456 133.093 147.32 135.22C148.354 137.874 147.725 139.737 145.233 141.113C143.745 141.936 143.738 141.936 145.071 142.982C145.565 143.324 145.962 143.787 146.224 144.328C146.356 144.584 146.405 144.876 146.363 145.162C146.322 145.447 146.193 145.713 145.993 145.922C145.815 146.155 145.561 146.317 145.275 146.381C144.989 146.445 144.69 146.406 144.43 146.271C142.643 145.416 141.195 143.986 140.318 142.21C139.82 141.126 140.237 140.11 141.004 139.257C141.757 138.49 142.672 137.901 143.682 137.532C144.262 137.282 144.374 136.965 144.187 136.379C143.622 134.593 142.657 132.959 141.365 131.601C140.493 130.679 139.565 130.723 138.78 131.738C138.163 132.617 137.726 133.611 137.497 134.66C137.167 135.906 136.874 137.114 136.575 138.341C136.539 138.624 136.422 138.89 136.238 139.107Z" fill="#FE6B01"/>
<path d="M270.626 129.801C271.203 129.774 271.775 129.917 272.271 130.212C272.516 130.338 272.726 130.522 272.882 130.75C273.037 130.977 273.134 131.24 273.162 131.514C273.162 131.769 273.162 132.062 272.937 132.187C272.713 132.311 272.601 132.037 272.439 131.931C271.374 131.228 270.265 131.346 269.106 132.324C268.088 133.208 267.261 134.291 266.677 135.507C266.145 136.605 265.758 137.767 265.525 138.964C265.325 139.923 265.525 140.173 266.478 140.31C267.038 140.391 267.611 140.422 268.184 140.478C270.415 140.715 271.623 142.702 270.496 144.626C269.254 146.871 267.223 148.574 264.796 149.404C264.254 149.585 263.999 149.361 264.042 148.781C264.109 148.256 264.325 147.761 264.665 147.355C265.419 146.308 266.191 145.268 266.945 144.24C267.057 144.091 267.275 143.948 267.144 143.729C267.013 143.511 266.827 143.642 266.658 143.624C266.241 143.58 265.817 143.568 265.413 143.499C263.014 143.094 261.588 141.138 262.167 138.784C262.547 137.065 263.276 135.442 264.309 134.017C265.342 132.592 266.657 131.394 268.172 130.499C268.918 130.061 269.762 129.821 270.626 129.801Z" fill="#FE6B01"/>
<path d="M213.212 147.897C213.112 149.064 212.584 150.153 211.73 150.955C210.898 151.851 209.896 152.573 208.783 153.08C208.432 153.201 208.102 153.378 207.805 153.603C207.697 153.708 207.555 153.773 207.404 153.787C207.253 153.801 207.103 153.762 206.977 153.678C206.85 153.596 206.75 153.478 206.691 153.339C206.632 153.2 206.617 153.047 206.647 152.899C206.728 151.715 207.494 150.856 208.086 149.921C208.388 149.466 208.723 149.033 209.088 148.626C209.283 148.402 209.411 148.128 209.457 147.835C209.503 147.542 209.466 147.242 209.35 146.969C208.519 144.6 207.894 142.163 207.481 139.687C207.393 139.045 207.438 138.392 207.612 137.768C207.64 137.569 207.736 137.385 207.883 137.248C208.031 137.111 208.221 137.028 208.422 137.014C208.621 136.997 208.819 137.05 208.983 137.164C209.147 137.277 209.266 137.445 209.319 137.637C209.498 138.206 209.646 138.784 209.761 139.369C210.171 141.55 211.048 143.616 212.334 145.424C212.897 146.126 213.206 146.997 213.212 147.897Z" fill="#FE6B01"/>
<path d="M176.759 120.432C175.076 120.464 173.404 120.696 171.776 121.124C170.925 121.405 170.045 121.591 169.153 121.678C168.643 121.678 168.175 121.61 168.007 121.055C167.839 120.501 168.2 120.202 168.574 119.94C169.765 119.218 171.053 118.668 172.399 118.308C176.713 116.767 181.374 116.474 185.847 117.461C188.126 117.996 190.331 118.808 192.413 119.878C193.714 120.566 194.897 121.455 195.92 122.513C196.755 123.335 196.886 124.307 196.319 125.06C196.012 125.445 195.568 125.696 195.08 125.76C194.592 125.824 194.098 125.696 193.702 125.403C192.65 124.78 191.647 124.095 190.588 123.447C190.362 123.263 190.095 123.137 189.809 123.08C190.442 126.629 189.823 130.288 188.059 133.432C187.571 134.306 186.806 134.992 185.885 135.382C184.412 136.006 182.782 136.158 181.22 135.815C179.658 135.472 178.24 134.653 177.164 133.47C176.11 132.16 175.505 130.546 175.439 128.867C175.106 125.987 175.562 123.072 176.759 120.432ZM186.844 126.724C185.474 126.686 184.845 127.048 184.62 127.926C184.396 128.804 184.838 129.602 185.866 130.1C186.445 130.38 187.075 130.555 187.673 130.791C187.922 130.897 188.034 130.791 188.102 130.58C188.395 129.689 188.688 128.798 188.975 127.901C189.001 127.834 189.002 127.759 188.977 127.691C188.951 127.623 188.902 127.567 188.837 127.533C188.221 127.06 187.604 126.555 186.844 126.724Z" fill="#FE6B01"/>
<path d="M225.752 124.164C224.131 124.797 222.615 125.671 221.254 126.755C220.22 127.565 219.304 127.695 218.501 127.01C217.697 126.325 217.629 125.21 218.333 124.164C218.893 123.362 219.674 122.741 220.581 122.376C223.968 120.784 227.602 119.785 231.327 119.423C234.379 119.168 237.431 118.856 240.49 119.255C242.589 119.529 244.595 120.046 246.096 121.709C246.364 122.002 246.644 122.257 246.488 122.669C246.333 123.08 245.909 123.073 245.535 123.067C243.667 123.067 241.798 122.656 239.929 122.444C239.393 122.388 238.851 122.376 238.415 122.345C239.499 125.845 239.904 129.321 238.453 132.76C237.918 134.169 236.97 135.383 235.732 136.243C234.495 137.104 233.027 137.57 231.52 137.581C230.718 137.61 229.924 137.414 229.227 137.014C226.113 135.357 224.985 132.617 225.054 129.259C225.12 127.544 225.375 125.841 225.814 124.182C225.889 124.182 225.926 124.126 225.845 124.064L225.752 124.164ZM236.111 131.688C237.668 131.732 238.397 130.997 238.067 129.421C237.786 128.063 236.148 127.185 234.653 127.515C234.383 127.537 234.122 127.628 233.897 127.778C233.671 127.929 233.487 128.134 233.363 128.375C233.238 128.616 233.177 128.885 233.185 129.156C233.192 129.427 233.269 129.692 233.407 129.926C233.654 130.438 234.036 130.874 234.513 131.184C234.989 131.495 235.542 131.67 236.111 131.688Z" fill="#FE6B01"/>
<path d="M171.072 148.906C171.029 149.327 170.908 149.736 170.717 150.114C170.193 151.26 169.664 152.413 169.103 153.546C168.543 154.68 167.745 155.11 166.961 154.792C166.176 154.474 165.895 153.546 166.25 152.4C166.726 150.985 167.492 149.684 168.499 148.582C168.806 148.218 169.21 147.95 169.664 147.809C169.832 147.748 170.012 147.731 170.188 147.758C170.364 147.786 170.531 147.858 170.671 147.968C170.812 148.077 170.923 148.221 170.993 148.385C171.063 148.549 171.09 148.728 171.072 148.906Z" fill="#FE6B01"/>
<path d="M177.787 149.049C177.57 150.492 177.068 151.877 176.311 153.123C176.143 153.434 175.865 153.67 175.532 153.785C175.198 153.901 174.834 153.887 174.51 153.746C174.175 153.574 173.913 153.286 173.775 152.935C173.638 152.583 173.633 152.194 173.763 151.84C174.055 150.707 174.535 149.631 175.183 148.657C175.369 148.393 175.598 148.163 175.862 147.978C176.029 147.828 176.238 147.733 176.461 147.705C176.683 147.677 176.909 147.718 177.108 147.822C177.316 147.953 177.487 148.134 177.605 148.348C177.724 148.563 177.787 148.804 177.787 149.049Z" fill="#FE6B01"/>
<path d="M225.751 124.163L225.826 124.083C225.907 124.145 225.87 124.182 225.795 124.201L225.751 124.163Z" fill="#FEE0CA"/>
</g>
<rect x="1.62933" y="1.5" width="383" height="302" rx="21.5" stroke="#FF6B00" stroke-width="3"/>
<defs>
<clipPath id="clip0_17_2285">
<rect x="3.12933" y="3" width="380" height="299" rx="20" fill="white"/>
</clipPath>
</defs>
</svg>
