<svg width="386" height="305" viewBox="0 0 386 305" fill="none" xmlns="http://www.w3.org/2000/svg">
<g clip-path="url(#clip0_17_2159)">
<rect x="3" y="3" width="380" height="299" rx="20" fill="#FEDE95" fill-opacity="0.08"/>
<path d="M283.815 301.928C283.541 301.928 283.267 301.959 282.993 301.959H256.058C255.784 301.959 255.516 301.959 255.242 301.928C255.242 300.682 255.417 299.436 255.136 298.19C254.893 297.131 254.345 296.565 253.529 296.459C252.838 296.365 252.09 296.882 251.66 297.804C251.132 299.118 250.792 300.5 250.651 301.909C249.306 301.909 247.96 301.909 246.621 301.909H188.067C187.793 301.909 187.519 301.909 187.251 301.909C187.197 301.727 187.085 301.568 186.932 301.456C186.779 301.343 186.593 301.284 186.404 301.286C186.13 301.286 186.098 301.666 186.086 301.909C182.423 301.909 178.767 301.909 175.11 301.909H106.938C106.614 301.909 106.315 301.909 105.973 301.866C106.346 300.844 107.125 300.047 107.505 299.019C106.626 299.901 105.828 300.86 105.119 301.884C101.091 301.884 97.0629 301.884 93.0347 301.884C89.8827 301.884 86.7246 301.884 83.5664 301.884C84.6876 298.938 85.8899 296.01 86.8616 293.008C88.8238 286.928 90.5991 280.799 92.8291 274.8C94.5172 270.19 95.5887 265.412 96.6788 260.641C98.3845 253.609 100.61 246.713 103.338 240.01C104.317 237.41 106.025 235.147 108.259 233.494C110.128 232.136 111.996 230.903 113.946 229.663C119.023 226.381 124.23 223.31 129.581 220.5C136.047 217.105 142.88 214.564 149.683 211.954C151.994 211.069 154.411 210.496 156.647 209.406C158.098 208.696 159.587 208.061 161.045 207.375C161.462 207.182 161.668 207.083 161.742 207.718C161.899 209.232 162.393 210.692 163.188 211.991C164.89 214.928 167.191 217.475 169.94 219.466C171.454 220.594 172.849 221.877 174.599 222.655C181.296 225.639 188.254 225.932 195.343 224.587C199.863 223.707 204.218 222.124 208.249 219.896C212.774 217.367 216.81 214.048 220.166 210.097C220.402 209.823 220.515 209.78 220.789 210.023C221.951 210.964 223.26 211.709 224.663 212.228C230.876 214.744 236.968 217.508 242.94 220.519C245.07 221.59 247.3 222.5 249.499 223.378C254.152 225.216 258.843 227.028 262.742 230.261C263.988 231.302 265.414 232.174 266.48 233.438C268.149 235.579 269.554 237.913 270.666 240.39C272.902 244.9 274.104 249.734 275.101 254.655C275.724 257.769 276.284 260.946 277.088 264.048C278.334 268.807 279.872 273.479 280.726 278.338C281.318 281.733 281.766 285.153 282.146 288.579C282.395 290.871 282.688 293.157 282.974 295.431C283.261 297.599 283.541 299.766 283.815 301.928Z" fill="#FEA96C"/>
<path d="M283.815 301.928C283.541 299.767 283.261 297.599 282.993 295.437C282.707 293.145 282.414 290.859 282.165 288.585C281.785 285.159 281.336 281.733 280.744 278.344C279.891 273.486 278.334 268.814 277.107 264.055C276.303 260.94 275.749 257.826 275.119 254.661C274.123 249.759 272.921 244.906 270.684 240.396C269.573 237.92 268.167 235.586 266.498 233.445C265.433 232.199 264.007 231.308 262.761 230.268C258.836 227.035 254.171 225.222 249.518 223.384C247.3 222.487 245.089 221.578 242.94 220.519C236.955 217.517 230.861 214.757 224.657 212.24C223.254 211.722 221.945 210.977 220.782 210.035C220.496 209.792 220.384 209.836 220.16 210.11C216.805 214.056 212.771 217.37 208.249 219.896C204.22 222.135 199.865 223.728 195.343 224.618C188.254 225.963 181.296 225.671 174.599 222.687C172.849 221.908 171.485 220.625 169.94 219.497C167.191 217.506 164.89 214.959 163.188 212.022C162.393 210.724 161.899 209.264 161.742 207.749C161.693 207.126 161.462 207.214 161.045 207.407C159.587 208.092 158.098 208.727 156.647 209.437C154.411 210.527 151.994 211.101 149.683 211.985C142.881 214.608 136.047 217.149 129.569 220.519C124.218 223.328 118.979 226.399 113.934 229.682C112.015 230.928 110.09 232.174 108.246 233.513C106.013 235.166 104.304 237.428 103.325 240.029C100.601 246.74 98.3793 253.644 96.6788 260.685C95.5887 265.456 94.5173 270.234 92.8291 274.844C90.624 280.842 88.8238 286.972 86.8616 293.051C85.8899 296.054 84.6876 298.982 83.5664 301.928C82.196 301.928 80.8318 301.928 79.4614 301.972C78.8384 301.972 78.7388 301.891 78.9879 301.293C80.5131 297.775 81.8583 294.183 83.0182 290.529C85.1797 283.378 87.7711 276.376 90.0759 269.275C91.4089 265.176 92.1439 260.915 93.2278 256.754C94.8785 250.432 97.2145 244.346 99.594 238.272C100.983 234.693 103.438 231.627 106.627 229.489C111.311 226.275 116.201 223.397 121.066 220.475C127.828 216.448 134.942 213.044 142.32 210.303C147.897 208.167 153.587 206.335 159.363 204.815C161.998 204.136 164.539 203.14 167.224 202.585C169.604 202.093 171.223 200.48 172.276 198.293C173.522 195.771 174.637 193.235 174.624 190.345C174.619 190.021 174.685 189.7 174.817 189.404C175.141 188.781 174.936 188.563 174.294 188.352C170.962 187.255 167.548 186.346 164.384 184.832C157.924 181.718 152.28 177.6 148.02 171.707C144.868 167.347 141.834 162.912 139.847 157.866C139.716 157.542 139.61 157.374 139.224 157.598C135.399 159.704 131.606 159.255 127.868 157.368C124.476 155.583 121.603 152.953 119.527 149.731C115.747 144.322 113.752 137.866 113.821 131.268C113.823 129.071 114.189 126.89 114.905 124.814C116.407 120.528 119.023 117.339 123.757 116.299C122.487 115.048 121.378 113.644 120.456 112.119C117.232 106.69 115.027 100.718 113.946 94.4968C113.436 91.6609 113.128 88.7925 113.024 85.913C112.368 72.88 116.115 60.0051 123.664 49.3602C127.831 43.3678 132.64 37.9858 138.719 33.8621C144.228 30.1719 150.308 27.4188 156.715 25.7143C156.861 25.6867 157.009 25.6701 157.158 25.6645C155.432 24.3688 156.117 21.086 158.354 20.3261C159.908 19.7634 161.616 19.7922 163.15 20.4071C163.885 20.6998 164.614 21.03 165.362 21.2729C165.547 21.3751 165.761 21.4156 165.971 21.3887C166.182 21.3619 166.378 21.269 166.533 21.1234C169.597 18.0524 173.385 16.3145 177.477 15.0313C182.195 13.4575 187.143 12.6889 192.116 12.7577C196.433 12.9337 200.721 13.5431 204.917 14.5766C213.015 16.4453 219.91 20.5254 226.233 25.7392C226.67 26.0623 227.053 26.4535 227.367 26.8979C228.613 28.8476 230.481 30.0623 232.213 31.4763C237.046 35.3253 241.452 39.6816 245.357 44.4703C248.198 48.0972 250.192 52.3133 251.193 56.8103C252.188 60.9348 252.852 65.132 253.18 69.3621C253.337 71.8513 253.337 74.3479 253.18 76.8371C252.913 81.6149 252.719 86.4051 252.072 91.1642C251.462 96.3388 250.131 101.403 248.116 106.208C248.06 106.351 247.91 106.5 248.029 106.731C248.637 106.419 249.261 106.139 249.898 105.89C251.054 105.434 252.322 105.341 253.533 105.623C254.744 105.906 255.84 106.551 256.675 107.472C259.846 110.686 261.814 114.449 262.169 119.015C262.493 123.307 262.574 127.611 261.291 131.753C259.284 138.646 254.747 144.527 248.589 148.217C246.322 149.594 243.911 150.572 241.152 150.086C240.753 150.017 240.797 150.335 240.747 150.559C240.292 152.727 239.862 154.92 239.277 157.038C237.636 163.438 234.331 169.29 229.696 174C226.912 176.797 223.536 178.877 220.322 181.138C217.089 183.382 213.703 185.395 210.187 187.162C209.984 187.238 209.812 187.378 209.694 187.559C209.577 187.741 209.52 187.955 209.533 188.171C209.445 190.133 208.947 192.052 208.841 194.02C208.661 197.297 208.841 200.499 210.442 203.464C210.929 204.458 211.714 205.276 212.688 205.803C213.661 206.33 214.775 206.54 215.874 206.404C217.606 206.279 219.331 206.074 221.057 206.528C221.916 206.778 222.76 207.075 223.586 207.419C231.627 210.503 239.464 214.066 247.256 217.735C250.564 219.292 254.034 220.482 257.422 221.865C261.739 223.634 265.452 226.362 268.971 229.34C271.251 231.271 272.634 233.899 274.042 236.491C276.471 241.153 278.24 246.13 279.299 251.279C280.421 256.262 281.648 261.202 282.806 266.173C283.859 270.695 285.223 275.143 285.952 279.746C286.681 284.349 287.104 288.834 287.677 293.375C287.993 295.917 288.317 298.46 288.649 301.006C288.78 301.99 288.793 301.99 287.771 301.99L283.815 301.928ZM218.49 89.8V89.6442H218.428L218.528 89.7751L218.671 89.9246C218.683 89.9467 218.698 89.9676 218.714 89.9869C218.714 89.9869 218.714 89.9869 218.752 89.9869L218.658 89.937C218.646 89.8498 218.646 89.7564 218.49 89.8ZM186.528 94.5778C186.528 94.6338 186.528 94.7148 186.634 94.6587C186.74 94.6027 186.634 94.5528 186.591 94.4968C185.345 92.0051 183.831 89.6629 183.314 86.866C183.249 87.5578 183.327 88.2555 183.545 88.9154C184.055 91.0583 184.859 93.0454 186.528 94.5778ZM209.09 80.0887L208.997 79.9953V80.0763H209.121C209.098 80.1195 209.09 80.1692 209.098 80.2175C209.106 80.2659 209.13 80.3104 209.165 80.3441C211.147 83.0816 213.428 85.5889 215.967 87.8191C216.715 88.442 217.506 89.0151 218.297 89.6256C218.422 89.3203 218.253 89.202 218.154 89.0774C216.821 87.3457 215.5 85.6077 214.148 83.8947C212.859 82.1703 211.104 80.8499 209.09 80.0887ZM172.195 18.5321C172.292 18.52 172.387 18.5013 172.482 18.476C177.166 16.6073 182.087 15.9283 187.076 15.5919C190.181 15.4693 193.29 15.6089 196.37 16.0093C199.213 16.2338 202.037 16.6501 204.823 17.2551C209.211 18.403 213.492 19.9265 217.618 21.8086C218.665 22.2634 219.68 22.7928 220.733 23.2849C220.679 23.1346 220.576 23.0071 220.44 22.9237C212.473 17.3548 203.497 14.7385 193.904 14.0658C190.025 13.7766 186.125 14.077 182.336 14.9565C178.794 15.6819 175.361 16.8606 172.12 18.4636C172.058 18.5259 171.852 18.5196 171.94 18.6504C172.027 18.7813 172.139 18.6504 172.195 18.5321ZM213.862 136.263C211.85 136.363 209.838 136.444 207.82 136.375C205.484 136.288 203.266 135.902 201.291 134.432C198.296 132.192 195.91 129.236 194.352 125.836C192.901 122.721 191.599 119.544 191.636 116.012C191.636 115.595 191.375 115.589 191.119 115.539C188.528 115.028 186.024 115.134 183.731 116.641C183.522 116.816 183.26 116.915 182.987 116.922C182.715 116.928 182.448 116.843 182.23 116.679C182.182 116.395 182.221 116.103 182.341 115.84C182.461 115.578 182.656 115.358 182.903 115.209C183.353 114.854 183.85 114.563 184.379 114.343C186.604 113.379 189.035 112.989 191.449 113.209C191.53 113.229 191.613 113.232 191.694 113.219C191.776 113.206 191.854 113.177 191.924 113.133C191.994 113.09 192.055 113.033 192.103 112.966C192.151 112.898 192.185 112.822 192.203 112.742C192.494 111.904 192.959 111.138 193.568 110.494C194.176 109.85 194.915 109.342 195.735 109.005C197.294 108.299 198.889 107.675 200.513 107.136C200.984 106.981 201.411 106.716 201.759 106.363C203.714 104.508 206.321 103.499 209.016 103.554C209.341 103.507 209.672 103.57 209.957 103.734C210.242 103.898 210.463 104.152 210.585 104.457C210.735 104.862 211.021 104.725 211.258 104.694C213.661 104.338 216.081 104.118 218.509 104.034C222.402 103.928 226.289 104.034 229.846 105.952C229.923 106.014 230.018 106.048 230.117 106.048C230.216 106.048 230.311 106.014 230.388 105.952C231.271 105.389 232.274 105.04 233.316 104.931C234.424 104.719 234.474 104.675 234.312 103.535C234.309 103.488 234.309 103.44 234.312 103.392C234.156 101.48 234.275 99.6545 235.82 98.2343C235.857 98.1969 235.857 98.1159 235.876 98.0412C235.533 98.0596 235.192 97.9833 234.89 97.8207C234.588 97.6581 234.336 97.4154 234.163 97.1193C233.864 96.4963 233.646 95.8734 233.353 95.1446C233.187 95.6945 232.885 96.1937 232.475 96.596C231.16 97.6861 227.946 97.2688 226.987 95.8423C226.563 95.2194 226.239 94.4968 225.859 93.824C225.057 92.3383 224.112 90.9342 223.037 89.6318C223.037 89.557 223.037 89.4138 222.919 89.4698C222.801 89.5259 222.882 89.6318 222.969 89.7003C223.162 90.3606 223.386 91.0209 223.548 91.6936C223.799 92.3719 223.895 93.0977 223.829 93.8178C223.818 94.0005 223.754 94.1761 223.646 94.3238C223.538 94.4715 223.39 94.585 223.219 94.6507C223.048 94.7164 222.862 94.7315 222.683 94.6943C222.504 94.657 222.339 94.569 222.209 94.4407C221.822 94.1248 221.483 93.7557 221.2 93.3444C220.982 93.0641 220.851 92.7215 220.49 92.491C220.346 94.2165 219.767 94.883 218.409 94.883C217.262 94.9122 216.123 94.6756 215.083 94.1915C214.285 93.7991 213.837 93.4565 212.952 94.366C211.85 95.5433 210.156 95.7115 208.561 95.5557C206.439 95.3266 204.338 94.9372 202.276 94.3909C201.435 94.1853 200.662 93.6621 199.784 93.687C196.046 93.7867 192.988 92.2543 190.272 89.8623C187.911 87.788 186.292 85.1032 184.448 82.6053C184.28 82.381 184.205 82.082 183.875 81.9263C183.918 82.3312 183.968 82.6738 183.981 83.0164C184.064 85.7287 184.756 88.3876 186.005 90.7966L190.098 98.4959C190.211 98.6975 190.313 98.9055 190.403 99.1188C190.44 99.1852 190.463 99.2583 190.471 99.3338C190.479 99.4093 190.471 99.4856 190.449 99.5582C190.427 99.6309 190.391 99.6983 190.342 99.7566C190.293 99.8148 190.234 99.8628 190.166 99.8975C190.099 99.936 190.025 99.9607 189.949 99.9702C189.872 99.9798 189.795 99.9739 189.72 99.9531C189.646 99.9322 189.577 99.8967 189.516 99.8486C189.456 99.8005 189.406 99.7409 189.369 99.6732C189.206 99.4258 189.056 99.1701 188.92 98.907C188.621 98.3713 188.335 97.8418 188.017 97.2563C187.245 98.8447 184.373 99.3618 183.189 98.2094C182.304 97.2506 181.484 96.2329 180.735 95.1633C180.781 95.8382 180.95 96.4991 181.233 97.113C181.532 98.0661 181.346 98.4834 180.417 98.7202C179.67 98.907 178.91 99.0316 178.169 99.2247C176.549 99.6421 175.316 99.0503 174.257 97.8543C173.296 96.7433 172.474 95.5196 171.809 94.2102C171.155 92.9644 170.532 91.6625 169.896 90.3855C169.799 91.2123 169.768 92.0455 169.803 92.8772C169.949 94.8096 169.949 96.7504 169.803 98.6828C169.529 101.093 168.495 102.352 166.502 102.514C163.904 102.732 161.3 102.813 158.703 103.093C155.351 103.461 152.044 103.89 149.247 106.058C148.381 106.731 147.683 106.613 146.792 105.946C146.396 105.644 146.04 105.292 145.733 104.899C145.148 104.158 144.587 103.392 143.971 102.676C143.684 102.346 143.348 101.679 142.912 101.959C142.476 102.24 142.706 102.869 142.868 103.336C143.13 104.108 143.46 104.862 143.69 105.647C144.182 107.285 143.385 108.556 141.734 108.961C140.699 109.123 139.639 108.989 138.676 108.575C138.134 108.407 137.878 108.487 137.978 109.123C138.423 112.289 139.047 115.427 139.847 118.523C140.47 120.89 141.367 123.195 141.784 125.624C142.083 127.368 141.329 128.869 139.884 129.43C138.439 129.991 137.031 129.43 136.022 127.916C135.594 127.217 135.243 126.474 134.976 125.699C134.652 124.864 134.353 124.023 134.004 123.207C133.904 122.964 133.811 122.665 133.431 122.964C132.44 123.749 131.475 123.481 130.553 122.833C129.446 122.064 128.481 121.109 127.7 120.011C127.563 119.812 127.47 119.594 127.146 119.588C124.448 119.513 122.075 120.211 120.294 122.428C118.617 124.653 117.682 127.349 117.621 130.134C117.245 136.792 119.286 143.362 123.371 148.634C125.197 151.276 127.744 153.337 130.709 154.571C131.759 155.04 132.901 155.266 134.05 155.234C135.2 155.201 136.327 154.911 137.349 154.384C137.972 154.06 138.097 153.761 137.822 153.063C136.142 148.88 134.954 144.515 134.284 140.057C134.143 139.165 134.301 138.252 134.733 137.459C135.038 136.905 135.356 136.88 135.761 137.372C136.33 138.097 136.782 138.906 137.1 139.77C137.723 141.315 138.19 142.922 138.688 144.511C141.28 152.733 144.376 160.707 149.602 167.696C151.645 170.43 153.557 173.246 156.298 175.383C159.656 178.011 163.044 180.578 167.081 182.122C174.473 185.019 182.154 187.118 189.992 188.383C193.15 188.869 196.277 189.006 199.335 187.959C202.673 186.823 205.915 185.422 209.028 183.767C215.131 180.598 220.864 176.763 226.121 172.33C231.241 168.02 234.262 162.27 235.944 155.848C237.358 150.46 238.311 144.959 239.837 139.596C240.376 137.852 241.081 136.165 241.943 134.557C242.052 134.285 242.257 134.063 242.519 133.934C242.781 133.804 243.081 133.775 243.363 133.853C243.955 133.996 244.142 134.476 244.223 135.03C244.282 135.474 244.25 135.925 244.129 136.357C243.345 139.471 242.578 142.623 241.769 145.75C241.625 146.317 241.769 146.429 242.304 146.423C243.93 146.326 245.499 145.79 246.845 144.872C251.866 141.851 255.211 137.397 257.31 132.028C258.83 128.128 258.818 124.004 258.606 119.874C258.473 116.331 257.051 112.957 254.607 110.387C253.025 108.687 251.835 108.481 249.773 109.578C249.167 109.931 248.601 110.349 248.085 110.823C247.866 111.023 247.623 111.194 247.362 111.334C247.173 111.447 246.956 111.505 246.736 111.503C246.516 111.501 246.3 111.438 246.113 111.322C245.926 111.205 245.775 111.04 245.675 110.843C245.576 110.646 245.532 110.426 245.55 110.207C245.564 109.63 245.753 109.072 246.092 108.606C246.646 107.728 246.64 107.746 245.687 107.36C245.319 107.211 245.114 107.397 244.896 107.59C244.19 108.221 243.536 108.906 242.94 109.64C242.129 110.563 241.708 111.764 241.762 112.991C241.835 114.508 241.701 116.027 241.364 117.507C241.123 118.763 240.41 119.878 239.37 120.622C237.663 121.762 235.994 121.176 235.371 119.233C235.143 118.497 235.009 117.735 234.973 116.965C234.811 114.063 234.661 111.16 234.499 108.245C234.499 108.027 234.642 107.696 234.287 107.622C234.027 107.587 233.763 107.612 233.514 107.694C233.265 107.776 233.037 107.913 232.848 108.095C232.593 108.282 232.711 108.475 232.805 108.681C233.147 109.347 233.37 110.068 233.465 110.811C233.945 116.23 233.683 121.544 231.291 126.583C230.176 128.919 229.173 131.317 227.018 132.956C225.54 133.863 223.953 134.581 222.296 135.092C219.55 135.863 216.714 136.265 213.862 136.288V136.263ZM178.007 189.442C178.289 190.569 178.398 191.733 178.331 192.893C178.119 196.169 176.736 199.022 175.067 201.763C174.053 203.376 172.616 204.68 170.912 205.532C169.386 206.326 167.741 206.865 166.041 207.126C165.48 207.22 165.418 207.425 165.623 207.905C165.971 208.651 166.388 209.362 166.869 210.029C168.918 213.057 171.715 215.324 174.655 217.367C177.92 219.635 181.732 220.482 185.65 220.756C191.771 221.1 197.882 219.918 203.434 217.317C206.862 215.814 210.019 213.756 212.778 211.225C212.984 211.032 213.507 210.789 212.778 210.571C208.978 209.462 206.698 206.834 205.521 203.183C204.107 198.785 204.375 194.4 205.596 190.021C205.658 189.803 205.826 189.591 205.733 189.348H205.565C205.359 189.436 205.147 189.516 204.942 189.61C199.775 192.197 193.875 192.925 188.235 191.672C184.884 190.955 181.476 190.37 178.007 189.467V189.442ZM231.621 115.315C231.621 114.567 231.621 113.82 231.621 113.072C231.49 109.067 229.752 107.017 225.76 106.289C223.947 105.958 222.108 105.785 220.265 105.772C214.86 105.763 209.475 106.435 204.238 107.771C203.301 107.911 202.456 108.412 201.883 109.166C201.716 109.387 201.503 109.569 201.26 109.702C200.837 109.945 200.376 109.926 200.195 109.434C200.014 108.942 199.809 109.117 199.522 109.223C198.168 109.72 196.864 110.346 195.629 111.091C195.163 111.383 194.773 111.779 194.489 112.25C193.044 114.53 193.206 117.015 193.929 119.382C194.966 122.74 196.49 125.928 198.451 128.844C200.243 131.616 203.049 133.575 206.269 134.301C208.399 134.806 210.573 134.588 212.734 134.457C215.695 134.375 218.638 133.972 221.511 133.255C224.532 132.401 227.061 130.825 228.451 127.935C230.363 123.967 232.063 119.93 231.621 115.364V115.315ZM114.214 85.3897C114.214 85.7012 114.214 86.0126 114.214 86.3366C114.41 89.1371 114.753 91.9254 115.242 94.6899C116.659 102.326 119.738 109.556 124.262 115.869C124.405 116.075 124.548 116.261 124.853 116.243C125.549 116.192 126.248 116.231 126.934 116.361C126.975 116.376 127.018 116.383 127.062 116.381C127.105 116.379 127.148 116.368 127.187 116.35C127.226 116.331 127.262 116.305 127.291 116.273C127.32 116.24 127.343 116.203 127.357 116.162C127.438 115.975 127.283 115.9 127.164 115.819C125.646 114.722 124.383 113.309 123.464 111.677C120.707 107.08 118.509 102.17 116.917 97.0507C115.688 93.2471 114.784 89.3462 114.214 85.3897ZM197.161 92.1982C193.162 89.1958 189.886 85.5766 186.036 82.6115C188.883 86.7415 191.767 90.8278 197.161 92.1982ZM221.013 23.3846C221.001 23.3635 220.984 23.3462 220.963 23.3348C220.963 23.3348 220.926 23.3348 220.907 23.3784C220.888 23.422 220.944 23.422 220.963 23.4282C220.982 23.4344 221 23.3971 221.013 23.3846ZM171.373 18.8498L171.317 18.8934C171.317 18.8934 171.317 18.937 171.366 18.937C171.416 18.937 171.404 18.937 171.416 18.8996L171.373 18.8498ZM171.672 18.7875L171.722 18.7501L171.678 18.694L171.628 18.7563L171.672 18.7875Z" fill="#FE6B01"/>
<path d="M250.645 301.934C250.786 300.525 251.126 299.143 251.654 297.829C252.09 296.907 252.838 296.39 253.523 296.483C254.339 296.589 254.887 297.156 255.13 298.215C255.41 299.461 255.224 300.707 255.236 301.953L250.645 301.934Z" fill="#FE6B01"/>
<path d="M105.119 301.928C105.828 300.904 106.626 299.945 107.505 299.062C107.125 300.09 106.346 300.888 105.973 301.909L105.119 301.928Z" fill="#FE6B01"/>
<path d="M186.098 301.934C186.098 301.666 186.142 301.28 186.416 301.311C186.606 301.309 186.791 301.368 186.944 301.481C187.097 301.593 187.209 301.752 187.263 301.934H186.098Z" fill="#FE6B01"/>
<path d="M223.006 89.6255C224.081 90.928 225.026 92.332 225.828 93.8178C226.208 94.4905 226.532 95.1944 226.956 95.836C227.915 97.2625 231.129 97.7048 232.443 96.5897C232.853 96.1874 233.156 95.6882 233.322 95.1383C233.615 95.8671 233.833 96.5087 234.132 97.113C234.305 97.4091 234.556 97.6518 234.859 97.8144C235.161 97.977 235.502 98.0533 235.845 98.0349C235.845 98.1096 235.845 98.1906 235.789 98.228C234.244 99.642 234.125 101.473 234.281 103.386C234.278 103.433 234.278 103.481 234.281 103.529C234.443 104.669 234.393 104.713 233.284 104.924C232.243 105.033 231.24 105.383 230.357 105.946C230.28 106.008 230.184 106.042 230.086 106.042C229.987 106.042 229.891 106.008 229.815 105.946C226.258 104.021 222.34 103.921 218.478 104.027C216.042 104.109 213.613 104.327 211.202 104.681C210.965 104.713 210.679 104.85 210.529 104.445C210.407 104.14 210.186 103.885 209.901 103.721C209.616 103.557 209.285 103.494 208.96 103.541C206.265 103.487 203.658 104.496 201.703 106.351C201.355 106.704 200.927 106.969 200.457 107.123C198.833 107.663 197.238 108.286 195.679 108.992C194.859 109.329 194.12 109.837 193.511 110.481C192.903 111.126 192.438 111.892 192.147 112.73C192.129 112.81 192.095 112.886 192.047 112.953C191.999 113.02 191.938 113.077 191.868 113.121C191.798 113.164 191.72 113.193 191.638 113.206C191.557 113.219 191.473 113.216 191.393 113.197C188.996 112.999 186.588 113.401 184.385 114.368C183.856 114.588 183.359 114.879 182.909 115.234C182.663 115.383 182.467 115.603 182.347 115.865C182.227 116.127 182.188 116.419 182.236 116.704C181.987 116.536 181.981 116.237 181.888 116C181.542 115.115 181.008 114.316 180.323 113.657C179.638 112.999 178.818 112.498 177.92 112.188C176.869 111.796 175.779 111.522 174.668 111.372C174.045 111.284 173.534 111.216 173.329 110.487C173.241 110.157 172.88 109.951 172.562 109.814C169.504 108.463 166.464 107.977 163.48 110.02C163.23 110.225 162.913 110.332 162.59 110.319C159.475 110.057 156.46 110.699 153.489 111.627C150.636 112.511 147.789 113.446 145.353 115.252C144.326 116.012 143.254 116.766 142.787 118.068C141.895 120.454 141.663 123.036 142.114 125.543C143.043 130.086 144.892 134.392 147.546 138.194C148.054 138.935 148.702 139.57 149.452 140.063C151.826 141.594 154.551 142.495 157.37 142.679C161.794 142.998 166.24 142.59 170.532 141.471C175.154 140.375 178.106 137.378 180 133.217C182.025 128.788 182.255 123.992 182.629 119.239C182.691 118.367 182.286 117.545 182.23 116.679C182.448 116.843 182.715 116.928 182.987 116.922C183.26 116.915 183.522 116.816 183.731 116.641C186.024 115.134 188.528 115.028 191.119 115.539C191.375 115.589 191.636 115.595 191.636 116.012C191.599 119.544 192.882 122.721 194.352 125.836C195.917 129.244 198.314 132.205 201.323 134.444C203.297 135.914 205.515 136.313 207.851 136.388C209.869 136.456 211.881 136.388 213.893 136.276C213.866 136.396 213.817 136.51 213.75 136.612C212.921 137.522 212.282 138.589 211.871 139.75C211.461 140.911 211.286 142.142 211.358 143.371C211.387 144.279 211.616 145.169 212.03 145.978C212.444 146.786 213.031 147.494 213.75 148.049C215.955 149.874 218.621 150.266 221.343 150.435C222.979 150.527 224.62 150.429 226.233 150.142C229.348 149.587 232.032 148.348 233.752 145.582C235.377 142.978 235.583 140.231 233.895 137.578C233.183 136.466 232.253 135.512 231.161 134.772C230.069 134.032 228.837 133.522 227.541 133.273C227.323 133.223 227.074 133.273 227.043 132.949C229.198 131.311 230.201 128.913 231.316 126.577C233.708 121.538 233.97 116.224 233.49 110.805C233.395 110.062 233.171 109.341 232.83 108.674C232.736 108.469 232.618 108.276 232.873 108.089C233.062 107.907 233.29 107.77 233.539 107.688C233.788 107.606 234.052 107.581 234.312 107.615C234.667 107.696 234.512 108.026 234.524 108.238C234.686 111.141 234.835 114.044 234.997 116.959C235.034 117.729 235.168 118.491 235.396 119.227C236.019 121.17 237.688 121.756 239.395 120.616C240.435 119.871 241.148 118.756 241.389 117.501C241.726 116.021 241.86 114.501 241.787 112.985C241.727 111.763 242.14 110.565 242.94 109.64C243.539 108.908 244.195 108.225 244.902 107.597C245.12 107.404 245.325 107.217 245.693 107.366C246.646 107.759 246.652 107.74 246.098 108.612C245.759 109.078 245.57 109.637 245.556 110.213C245.539 110.433 245.582 110.653 245.681 110.849C245.781 111.046 245.932 111.211 246.119 111.328C246.306 111.444 246.522 111.507 246.742 111.509C246.962 111.511 247.179 111.453 247.369 111.34C247.629 111.2 247.872 111.029 248.091 110.83C248.608 110.355 249.174 109.938 249.779 109.584C251.841 108.487 253.031 108.693 254.613 110.394C257.057 112.963 258.479 116.337 258.612 119.881C258.824 124.011 258.836 128.134 257.317 132.034C255.217 137.416 251.872 141.857 246.852 144.878C245.506 145.796 243.936 146.332 242.31 146.429C241.775 146.429 241.631 146.323 241.775 145.757C242.585 142.642 243.351 139.49 244.136 136.363C244.256 135.932 244.288 135.48 244.229 135.036C244.148 134.482 243.961 134.002 243.369 133.859C243.087 133.779 242.786 133.806 242.523 133.935C242.26 134.064 242.053 134.285 241.943 134.556C241.088 136.159 240.389 137.841 239.856 139.577C238.33 144.941 237.364 150.441 235.963 155.829C234.281 162.251 231.26 168.001 226.14 172.311C220.877 176.752 215.138 180.594 209.028 183.767C205.933 185.423 202.711 186.829 199.391 187.972C196.277 188.999 193.162 188.881 190.048 188.395C182.21 187.114 174.531 184.998 167.143 182.085C163.107 180.54 159.718 177.974 156.36 175.345C153.62 173.208 151.707 170.393 149.664 167.658C144.438 160.675 141.342 152.708 138.751 144.473C138.252 142.885 137.804 141.278 137.162 139.733C136.844 138.868 136.392 138.059 135.823 137.335C135.412 136.843 135.1 136.868 134.795 137.422C134.363 138.215 134.205 139.128 134.347 140.019C135.017 144.478 136.204 148.843 137.885 153.026C138.159 153.724 138.034 154.023 137.411 154.347C136.389 154.874 135.262 155.164 134.112 155.196C132.963 155.229 131.821 155.002 130.771 154.533C127.806 153.299 125.259 151.239 123.433 148.597C119.349 143.325 117.307 136.755 117.684 130.096C117.744 127.311 118.679 124.616 120.356 122.391C122.106 120.186 124.48 119.476 127.208 119.55C127.532 119.55 127.625 119.775 127.762 119.974C128.544 121.072 129.509 122.027 130.615 122.796C131.537 123.419 132.484 123.712 133.493 122.927C133.873 122.628 133.967 122.927 134.066 123.17C134.403 123.998 134.689 124.839 135.038 125.661C135.305 126.436 135.656 127.18 136.084 127.879C137.094 129.424 138.464 129.966 139.947 129.393C141.429 128.819 142.145 127.331 141.846 125.587C141.429 123.157 140.557 120.852 139.909 118.485C139.109 115.39 138.486 112.251 138.04 109.085C137.941 108.463 138.196 108.369 138.738 108.537C139.701 108.951 140.761 109.085 141.797 108.923C143.447 108.519 144.245 107.248 143.753 105.61C143.522 104.825 143.192 104.071 142.93 103.299C142.768 102.831 142.55 102.171 142.974 101.922C143.398 101.673 143.746 102.308 144.033 102.638C144.656 103.355 145.21 104.121 145.796 104.862C146.102 105.255 146.458 105.607 146.855 105.909C147.745 106.575 148.443 106.693 149.309 106.021C152.106 103.853 155.414 103.423 158.765 103.056C161.362 102.775 163.966 102.694 166.564 102.476C168.557 102.314 169.591 101.056 169.865 98.6454C170.012 96.7129 170.012 94.7722 169.865 92.8398C169.831 92.008 169.862 91.1749 169.959 90.3481C170.582 91.6251 171.205 92.9083 171.871 94.1728C172.536 95.4822 173.358 96.7059 174.319 97.8169C175.378 99.0129 176.611 99.6046 178.231 99.1873C178.972 98.9942 179.732 98.8696 180.48 98.6827C181.408 98.446 181.595 98.0287 181.296 97.0756C181.012 96.4616 180.843 95.8008 180.797 95.1259C181.546 96.1955 182.366 97.2132 183.252 98.1719C184.435 99.3243 187.307 98.7949 188.079 97.2189C188.397 97.8044 188.702 98.3339 188.983 98.8696C189.097 99.144 189.226 99.4123 189.369 99.6732C189.444 99.8066 189.568 99.905 189.715 99.947C189.862 99.989 190.02 99.9712 190.154 99.8974C190.221 99.8627 190.281 99.8148 190.33 99.7565C190.378 99.6982 190.415 99.6308 190.437 99.5582C190.459 99.4856 190.466 99.4092 190.458 99.3338C190.45 99.2583 190.427 99.1852 190.39 99.1188C190.301 98.9054 190.199 98.6974 190.085 98.4959L185.993 90.7966C184.744 88.3876 184.052 85.7287 183.968 83.0164C183.968 82.6738 183.906 82.3312 183.862 81.9263C184.192 82.082 184.267 82.381 184.435 82.6052C186.304 85.0969 187.899 87.7879 190.26 89.8622C192.975 92.2542 196.04 93.7866 199.771 93.6869C200.65 93.6869 201.422 94.1853 202.263 94.3908C204.326 94.9372 206.427 95.3265 208.548 95.5557C210.143 95.7114 211.837 95.5557 212.94 94.3659C213.8 93.4565 214.273 93.7991 215.07 94.1915C216.111 94.6755 217.249 94.9122 218.397 94.8829C219.755 94.8829 220.334 94.2164 220.477 92.4909C220.839 92.6965 220.969 93.064 221.187 93.3443C221.47 93.7556 221.81 94.1247 222.196 94.4407C222.327 94.569 222.492 94.657 222.671 94.6942C222.85 94.7314 223.036 94.7163 223.207 94.6506C223.378 94.5849 223.526 94.4715 223.634 94.3238C223.742 94.1761 223.805 94.0004 223.816 93.8178C223.882 93.0977 223.786 92.3719 223.536 91.6936C223.374 91.0209 223.15 90.3606 222.956 89.7003C222.97 89.6733 222.987 89.6482 223.006 89.6255ZM181.476 154.49C179.963 154.49 178.443 154.49 176.923 154.49C176.441 154.47 175.96 154.553 175.511 154.732C175.063 154.91 174.658 155.182 174.321 155.528C173.985 155.874 173.726 156.288 173.56 156.741C173.394 157.194 173.326 157.677 173.36 158.159C173.357 159.286 173.665 160.392 174.251 161.354C175.389 163.358 177.018 165.038 178.985 166.238C181.805 167.838 184.901 168.894 188.11 169.353C193.461 170.256 198.476 169.39 203.011 166.325C206.524 163.952 208.617 160.482 210.299 156.695C210.895 155.295 211.273 153.812 211.42 152.297C211.511 151.732 211.445 151.152 211.231 150.621C211.017 150.09 210.663 149.627 210.205 149.282C209.396 148.74 208.623 149.712 207.813 149.114C207.004 148.516 206.138 148.852 205.322 149.22C204.78 149.469 204.256 149.756 203.733 150.042C201.632 151.233 199.399 152.176 197.08 152.852C191.979 154.278 186.728 154.49 181.476 154.49ZM147.216 152.752C147.285 153.194 147.216 153.612 147.316 154.035C147.939 156.745 149.807 158.352 152.243 159.411C154.398 160.293 156.729 160.66 159.051 160.482C163.063 160.295 166.526 158.944 169.311 155.972C170.511 154.722 171.177 153.053 171.166 151.32C171.156 149.587 170.47 147.926 169.255 146.691C167.293 144.77 164.702 143.626 161.96 143.47C157.893 143.097 154.056 143.875 150.748 146.454C148.674 148.068 147.366 150.086 147.197 152.752H147.216ZM188.235 137.441C186.074 137.441 185.17 138.929 186.136 140.493C186.675 141.361 187.383 142.112 188.218 142.701C189.052 143.291 189.996 143.707 190.995 143.925C191.466 144.057 191.967 144.037 192.425 143.867C192.884 143.697 193.277 143.386 193.549 142.978C193.81 142.577 193.935 142.102 193.905 141.624C193.874 141.145 193.691 140.69 193.38 140.325C191.997 138.537 189.992 137.964 188.216 137.441H188.235Z" fill="#FEE1CA"/>
<path d="M178.007 189.466C181.476 190.37 184.859 190.955 188.26 191.697C193.892 192.943 199.782 192.215 204.942 189.635C205.141 189.541 205.353 189.46 205.565 189.373H205.677C205.77 189.616 205.602 189.828 205.54 190.046C204.294 194.406 204.051 198.81 205.465 203.208C206.642 206.883 208.922 209.487 212.722 210.596C213.469 210.814 212.946 211.057 212.722 211.25C209.963 213.78 206.806 215.839 203.378 217.342C197.837 219.937 191.74 221.118 185.631 220.781C181.713 220.538 177.901 219.659 174.637 217.392C171.697 215.349 168.9 213.081 166.85 210.054C166.369 209.387 165.952 208.675 165.605 207.93C165.393 207.45 165.461 207.245 166.022 207.151C167.722 206.89 169.368 206.351 170.893 205.556C172.597 204.704 174.034 203.401 175.048 201.788C176.717 199.047 178.1 196.182 178.312 192.917C178.385 191.758 178.282 190.595 178.007 189.466Z" fill="#FEE1CA"/>
<path d="M231.621 115.365C232.063 119.931 230.375 123.98 228.457 127.941C227.068 130.832 224.539 132.408 221.517 133.261C218.644 133.978 215.701 134.381 212.741 134.463C210.579 134.594 208.38 134.812 206.275 134.308C203.055 133.581 200.249 131.622 198.457 128.851C196.496 125.934 194.973 122.746 193.935 119.389C193.212 117.022 193.05 114.536 194.495 112.256C194.779 111.786 195.17 111.389 195.635 111.098C196.87 110.352 198.174 109.726 199.529 109.229C199.815 109.123 200.027 108.98 200.201 109.441C200.376 109.902 200.824 109.952 201.266 109.709C201.509 109.576 201.722 109.393 201.889 109.173C202.462 108.418 203.307 107.917 204.244 107.778C209.482 106.458 214.864 105.803 220.265 105.828C222.108 105.841 223.947 106.014 225.76 106.345C229.728 107.074 231.49 109.123 231.621 113.128C231.64 113.87 231.621 114.623 231.621 115.365ZM221.617 113.141C221.914 113.106 222.213 113.186 222.452 113.365C223.604 113.988 224.744 114.567 225.89 115.172C226.32 115.424 226.78 115.619 227.261 115.751C228.17 115.95 228.675 115.471 228.507 114.555C228.348 113.842 227.928 113.215 227.329 112.798C225.43 111.301 223.278 110.155 220.976 109.416C216.852 108.033 212.759 107.821 208.629 109.378C205.97 110.446 203.507 111.949 201.341 113.826C199.902 115.01 199.024 116.604 198.083 118.155C197.982 118.349 197.916 118.561 197.89 118.778C197.862 118.867 197.854 118.96 197.866 119.052C197.879 119.144 197.911 119.232 197.962 119.309C198.013 119.387 198.08 119.452 198.159 119.5C198.239 119.549 198.327 119.579 198.42 119.588C198.712 119.658 199.019 119.636 199.297 119.524C199.576 119.413 199.814 119.217 199.977 118.965C200.999 117.808 202.125 116.747 203.341 115.794C203.478 115.682 203.59 115.464 203.852 115.576C203.814 116.093 203.746 116.617 203.739 117.134C203.696 119.681 204.73 121.924 205.739 124.173C206.195 125.186 206.848 126.098 207.661 126.856C208.474 127.613 209.43 128.2 210.473 128.583C213.588 129.829 216.447 129.206 218.39 126.87C219.491 125.576 220.293 124.055 220.739 122.416C221.511 119.395 222.028 116.343 221.617 113.141Z" fill="#FEE0C9"/>
<path d="M227.012 132.962C227.043 133.286 227.292 133.236 227.51 133.286C228.806 133.534 230.037 134.044 231.13 134.784C232.222 135.524 233.152 136.479 233.864 137.59C235.552 140.244 235.346 142.991 233.72 145.595C232.001 148.36 229.291 149.6 226.202 150.154C224.589 150.442 222.948 150.54 221.312 150.447C218.59 150.279 215.924 149.887 213.719 148.061C213 147.506 212.412 146.799 211.999 145.99C211.585 145.181 211.356 144.291 211.327 143.383C211.255 142.154 211.429 140.923 211.84 139.762C212.251 138.602 212.89 137.535 213.719 136.625C213.786 136.522 213.835 136.408 213.862 136.288C216.711 136.267 219.546 135.867 222.29 135.099C223.947 134.587 225.533 133.869 227.012 132.962ZM222.545 140.86C222.595 140.231 222.527 139.597 222.346 138.992C222.283 138.724 222.144 138.481 221.945 138.291C221.745 138.102 221.495 137.975 221.225 137.927C220.95 137.892 220.671 137.943 220.426 138.072C220.181 138.201 219.981 138.403 219.854 138.649C218.923 140.327 218.378 142.191 218.26 144.106C218.228 144.547 218.354 144.985 218.615 145.342C218.877 145.699 219.256 145.952 219.686 146.056C220.118 146.13 220.563 146.057 220.948 145.848C221.334 145.639 221.637 145.306 221.81 144.903C221.992 144.552 222.124 144.176 222.203 143.788C222.417 142.827 222.532 141.846 222.545 140.86ZM228.831 139.696C228.847 139.23 228.812 138.764 228.725 138.307C228.544 137.652 228.264 137.061 227.522 136.949C227.197 136.914 226.87 136.984 226.588 137.151C226.306 137.317 226.086 137.569 225.959 137.871C225.203 139.271 224.767 140.822 224.682 142.412C224.64 142.788 224.713 143.168 224.893 143.502C225.072 143.836 225.348 144.107 225.685 144.28C225.948 144.425 226.248 144.492 226.548 144.472C226.849 144.452 227.137 144.347 227.379 144.168C227.873 143.822 228.225 143.309 228.37 142.723C228.65 141.737 228.805 140.72 228.831 139.696Z" fill="#FEC9A2"/>
<path d="M209.09 80.0823C211.094 80.8506 212.839 82.1701 214.123 83.8883C215.475 85.6013 216.796 87.3393 218.129 89.071C218.229 89.1956 218.397 89.3139 218.272 89.6191C217.481 88.9962 216.69 88.4356 215.942 87.8127C213.403 85.5825 211.122 83.0752 209.14 80.3377C209.105 80.3039 209.081 80.2595 209.073 80.2111C209.065 80.1627 209.074 80.1131 209.097 80.0698L209.09 80.0823Z" fill="#FEE0C9"/>
<path d="M209.097 80.0697H208.972V79.9888L209.065 80.076L209.097 80.0697Z" fill="#FEE0C9"/>
<path d="M222.938 89.7066C222.85 89.638 222.807 89.5135 222.888 89.4761C222.969 89.4387 222.981 89.5633 223.006 89.638C222.98 89.6576 222.957 89.6807 222.938 89.7066Z" fill="#FEE1CA"/>
<path d="M218.646 89.9558L218.739 90.0056C218.739 90.0056 218.708 90.0056 218.702 90.0056C218.685 89.9864 218.671 89.9655 218.658 89.9434L218.646 89.9558Z" fill="#FEE0C9"/>
<path d="M218.646 89.9432L218.503 89.7937C218.652 89.7501 218.658 89.8435 218.652 89.9494L218.646 89.9432Z" fill="#FEE0C9"/>
<path d="M218.509 89.7939L218.409 89.6631H218.471V89.8188L218.509 89.7939Z" fill="#FEE0C9"/>
<path d="M181.476 154.49C186.728 154.49 191.979 154.278 197.087 152.858C199.405 152.182 201.638 151.239 203.739 150.048C204.263 149.762 204.786 149.475 205.328 149.226C206.138 148.858 207.035 148.541 207.82 149.12C208.604 149.699 209.402 148.746 210.212 149.288C210.669 149.633 211.023 150.096 211.237 150.627C211.451 151.158 211.517 151.738 211.426 152.303C211.279 153.818 210.901 155.301 210.305 156.701C208.648 160.488 206.53 163.958 203.017 166.331C198.482 169.396 193.468 170.262 188.117 169.359C184.907 168.9 181.811 167.844 178.991 166.244C177.024 165.044 175.395 163.364 174.257 161.36C173.671 160.398 173.363 159.292 173.366 158.165C173.332 157.685 173.399 157.202 173.563 156.75C173.727 156.297 173.985 155.884 174.319 155.537C174.653 155.191 175.057 154.918 175.503 154.738C175.95 154.557 176.429 154.473 176.91 154.49C178.443 154.49 179.963 154.49 181.476 154.49ZM207.583 152.316C207.44 152.39 207.352 152.422 207.278 152.471C203.638 154.839 199.581 156.494 195.324 157.349C191.586 158.065 187.797 158.482 183.993 158.595C181.878 158.711 179.756 158.565 177.677 158.159C177.259 158.078 176.661 157.642 176.462 157.966C176.194 158.389 176.624 158.95 176.904 159.38C178.147 161.263 179.942 162.717 182.043 163.541C184.706 164.672 187.532 165.368 190.415 165.602C196.221 166.007 201.117 164.276 204.574 159.373C206.123 157.293 207.154 154.874 207.583 152.316Z" fill="#FE6B01"/>
<path d="M147.197 152.752C147.366 150.086 148.674 148.067 150.748 146.454C154.068 143.875 157.905 143.096 161.96 143.47C164.691 143.633 167.27 144.777 169.224 146.691C170.439 147.926 171.125 149.587 171.135 151.32C171.146 153.053 170.48 154.722 169.28 155.972C166.489 158.943 163.051 160.295 159.02 160.482C156.698 160.66 154.367 160.293 152.212 159.411C149.776 158.352 147.926 156.745 147.285 154.035C147.197 153.611 147.266 153.194 147.197 152.752ZM156.043 152.284C156.084 151.64 156.038 150.992 155.906 150.36C155.719 149.737 155.445 149.213 154.76 149.114C154.445 149.097 154.134 149.189 153.879 149.375C153.625 149.561 153.443 149.83 153.364 150.135C152.805 151.542 152.503 153.038 152.473 154.552C152.459 154.977 152.569 155.397 152.791 155.76C152.902 155.987 153.069 156.18 153.277 156.322C153.485 156.465 153.726 156.551 153.977 156.572C154.228 156.593 154.48 156.549 154.709 156.444C154.938 156.339 155.135 156.176 155.283 155.972C155.523 155.685 155.693 155.346 155.781 154.982C155.981 154.097 156.069 153.191 156.043 152.284ZM159.332 152.907C159.332 153.206 159.332 153.456 159.382 153.698C159.414 154.137 159.593 154.552 159.888 154.877C160.184 155.202 160.58 155.419 161.014 155.492C161.78 155.53 162.49 154.938 162.745 153.916C163.055 152.693 163.084 151.416 162.833 150.179C162.714 149.556 162.465 149.002 161.78 148.871C161.467 148.835 161.151 148.897 160.875 149.048C160.599 149.2 160.378 149.434 160.241 149.718C159.673 150.683 159.36 151.776 159.332 152.895V152.907Z" fill="#FEC9A2"/>
<path d="M182.199 116.691C182.255 117.557 182.66 118.379 182.598 119.251C182.224 124.004 181.975 128.801 179.969 133.23C178.1 137.391 175.123 140.387 170.501 141.483C166.209 142.602 161.762 143.01 157.338 142.692C154.52 142.507 151.795 141.607 149.421 140.076C148.67 139.582 148.023 138.948 147.515 138.207C144.86 134.404 143.012 130.099 142.083 125.555C141.632 123.049 141.864 120.466 142.756 118.08C143.223 116.779 144.294 116.025 145.322 115.265C147.758 113.458 150.605 112.524 153.458 111.639C156.429 110.711 159.425 110.07 162.558 110.331C162.882 110.344 163.199 110.238 163.449 110.032C166.433 107.989 169.473 108.475 172.531 109.827C172.849 109.964 173.21 110.169 173.297 110.5C173.503 111.228 174.02 111.297 174.637 111.384C175.748 111.534 176.838 111.808 177.888 112.2C178.786 112.51 179.606 113.012 180.291 113.67C180.977 114.328 181.511 115.127 181.856 116.012C181.95 116.249 181.956 116.548 182.205 116.716L182.199 116.691ZM160.198 140.611C161.819 140.631 163.439 140.523 165.044 140.287C168.264 139.745 171.447 139.172 174.207 137.173C176.52 135.575 178.248 133.265 179.128 130.595C180.264 126.927 180.778 123.095 180.648 119.258C180.586 115.913 179.14 114.212 175.901 113.377L175.278 113.222C170.102 112.019 164.894 112.455 159.705 112.873C156.198 113.153 152.903 114.299 149.577 115.315C148.083 115.785 146.741 116.645 145.69 117.806C144.864 118.661 144.262 119.706 143.936 120.849C143.61 121.992 143.571 123.198 143.821 124.359C144.622 128.937 146.475 133.265 149.234 137.005C149.969 138.017 150.978 138.797 152.143 139.253C154.865 140.412 157.806 140.443 160.198 140.611Z" fill="#FE6B01"/>
<path d="M188.216 137.44C189.96 137.964 191.997 138.537 193.362 140.325C193.672 140.69 193.856 141.145 193.886 141.623C193.916 142.102 193.791 142.577 193.53 142.978C193.259 143.385 192.865 143.696 192.407 143.866C191.948 144.037 191.447 144.057 190.976 143.925C189.978 143.707 189.033 143.29 188.199 142.701C187.364 142.111 186.656 141.361 186.117 140.493C185.152 138.917 186.055 137.459 188.216 137.44Z" fill="#FE6B01"/>
<path d="M221.617 113.141C222.028 116.342 221.511 119.37 220.739 122.416C220.293 124.055 219.491 125.576 218.39 126.87C216.447 129.224 213.613 129.841 210.473 128.583C209.43 128.2 208.474 127.613 207.661 126.855C206.848 126.098 206.195 125.186 205.739 124.172C204.73 121.924 203.696 119.681 203.739 117.134C203.739 116.616 203.814 116.093 203.852 115.576C203.59 115.464 203.478 115.682 203.341 115.794C202.118 116.751 200.986 117.819 199.958 118.984C199.795 119.236 199.558 119.431 199.279 119.543C199 119.654 198.693 119.677 198.401 119.606C198.309 119.597 198.22 119.567 198.141 119.519C198.062 119.471 197.994 119.405 197.943 119.328C197.893 119.25 197.86 119.162 197.847 119.07C197.835 118.978 197.843 118.885 197.872 118.797C197.897 118.579 197.963 118.368 198.065 118.174C199.005 116.623 199.884 115.059 201.323 113.845C203.488 111.967 205.951 110.464 208.611 109.397C212.741 107.84 216.833 108.051 220.957 109.434C223.26 110.174 225.411 111.319 227.311 112.817C227.91 113.234 228.33 113.861 228.488 114.573C228.656 115.489 228.152 115.969 227.242 115.769C226.762 115.637 226.301 115.443 225.872 115.19C224.726 114.567 223.586 113.975 222.433 113.384C222.202 113.203 221.91 113.116 221.617 113.141ZM215.45 120.74C215.067 120.733 214.688 120.825 214.35 121.007C214.012 121.189 213.727 121.455 213.522 121.779C213.318 122.104 213.2 122.476 213.181 122.859C213.162 123.242 213.242 123.624 213.413 123.967C213.98 125.132 215.027 125.431 216.167 125.599C216.227 125.61 216.29 125.605 216.348 125.584C216.406 125.563 216.457 125.528 216.497 125.481C217.14 124.82 217.68 124.066 218.098 123.244C218.128 123.192 218.148 123.134 218.155 123.074C218.163 123.014 218.158 122.954 218.141 122.895C217.909 122.34 217.541 121.851 217.071 121.475C216.6 121.098 216.043 120.846 215.45 120.74Z" fill="#FE6B01"/>
<path d="M222.545 140.86C222.534 141.854 222.419 142.843 222.203 143.813C222.124 144.201 221.992 144.577 221.81 144.928C221.637 145.331 221.334 145.664 220.948 145.873C220.563 146.082 220.118 146.155 219.686 146.081C219.256 145.977 218.877 145.724 218.615 145.367C218.354 145.01 218.228 144.572 218.26 144.131C218.378 142.216 218.923 140.352 219.854 138.674C219.981 138.428 220.181 138.226 220.426 138.097C220.671 137.968 220.95 137.917 221.225 137.951C221.495 138 221.745 138.127 221.945 138.316C222.144 138.506 222.283 138.749 222.346 139.017C222.524 139.614 222.592 140.239 222.545 140.86Z" fill="#FE6B01"/>
<path d="M228.831 139.696C228.804 140.718 228.65 141.733 228.37 142.717C228.225 143.302 227.873 143.816 227.379 144.162C227.137 144.34 226.849 144.446 226.548 144.466C226.248 144.486 225.948 144.419 225.685 144.274C225.348 144.101 225.072 143.829 224.893 143.496C224.714 143.162 224.64 142.782 224.682 142.405C224.767 140.816 225.203 139.265 225.959 137.864C226.086 137.563 226.306 137.31 226.588 137.144C226.87 136.978 227.197 136.907 227.522 136.942C228.264 137.048 228.544 137.646 228.725 138.3C228.812 138.76 228.848 139.228 228.831 139.696Z" fill="#FE6B01"/>
<path d="M207.583 152.316C207.154 154.874 206.123 157.293 204.574 159.374C201.117 164.307 196.221 166.039 190.415 165.603C187.532 165.368 184.706 164.672 182.043 163.541C179.949 162.724 178.157 161.282 176.91 159.411C176.63 158.981 176.2 158.421 176.468 157.997C176.667 157.673 177.265 158.109 177.683 158.19C179.762 158.596 181.884 158.743 183.999 158.626C187.803 158.513 191.592 158.097 195.33 157.38C199.587 156.526 203.644 154.871 207.284 152.503C207.352 152.422 207.433 152.391 207.583 152.316Z" fill="#FEE0C9"/>
<path d="M156.043 152.285C156.067 153.202 155.975 154.119 155.769 155.013C155.681 155.377 155.51 155.716 155.27 156.004C155.123 156.208 154.925 156.371 154.696 156.476C154.468 156.581 154.215 156.625 153.964 156.604C153.714 156.583 153.472 156.497 153.265 156.354C153.057 156.212 152.889 156.018 152.779 155.792C152.557 155.429 152.446 155.009 152.461 154.584C152.491 153.07 152.793 151.574 153.352 150.167C153.43 149.862 153.612 149.593 153.867 149.407C154.121 149.221 154.432 149.128 154.747 149.146C155.432 149.214 155.706 149.768 155.893 150.391C156.027 151.013 156.077 151.65 156.043 152.285Z" fill="#FE6B01"/>
<path d="M159.332 152.895C159.355 151.765 159.668 150.661 160.241 149.687C160.378 149.403 160.599 149.169 160.875 149.017C161.151 148.865 161.467 148.803 161.78 148.84C162.465 148.971 162.714 149.544 162.833 150.148C163.084 151.384 163.055 152.662 162.745 153.885C162.49 154.907 161.78 155.499 161.014 155.461C160.58 155.387 160.184 155.171 159.888 154.846C159.593 154.52 159.414 154.106 159.382 153.667C159.344 153.443 159.35 153.194 159.332 152.895Z" fill="#FE6B01"/>
<path d="M160.198 140.611C157.806 140.443 154.865 140.412 152.1 139.272C150.935 138.816 149.925 138.035 149.191 137.023C146.432 133.284 144.579 128.955 143.777 124.378C143.527 123.216 143.567 122.011 143.892 120.868C144.218 119.725 144.821 118.68 145.646 117.825C146.698 116.664 148.039 115.804 149.533 115.333C152.86 114.318 156.155 113.172 159.662 112.891C164.869 112.474 170.077 112.038 175.235 113.24L175.858 113.396C179.097 114.231 180.542 115.931 180.604 119.276C180.734 123.114 180.22 126.946 179.084 130.613C178.204 133.283 176.476 135.593 174.163 137.191C171.404 139.172 168.221 139.745 165 140.306C163.41 140.533 161.804 140.635 160.198 140.611ZM154.118 121.407C154.118 123.848 154.953 125.966 155.706 128.097C156.223 129.543 157.023 130.873 158.059 132.006C159.095 133.14 160.348 134.056 161.742 134.7C162.519 135.113 163.405 135.277 164.278 135.167C165.559 135.031 166.787 134.585 167.857 133.867C168.928 133.15 169.807 132.183 170.42 131.049C171.665 128.782 172.108 126.284 172.475 123.774C172.654 122.536 172.744 121.287 172.743 120.036C173.023 120.192 173.223 120.292 173.41 120.404C174.176 120.871 174.917 121.375 175.708 121.787C175.959 121.959 176.26 122.043 176.563 122.025C176.867 122.007 177.156 121.888 177.384 121.687C177.589 121.447 177.715 121.149 177.744 120.834C177.773 120.52 177.704 120.204 177.546 119.93C177.242 119.306 176.789 118.766 176.225 118.361C171.242 114.224 165.523 113.496 159.487 114.991C154.579 116.236 150.854 119.494 147.278 122.889C146.92 123.241 146.665 123.685 146.543 124.172C146.466 124.425 146.463 124.694 146.535 124.948C146.607 125.202 146.75 125.43 146.948 125.605C147.132 125.776 147.362 125.891 147.609 125.935C147.857 125.979 148.112 125.951 148.343 125.854C148.755 125.681 149.126 125.424 149.434 125.101C150.862 123.709 152.432 122.471 154.118 121.407Z" fill="#FEE0C9"/>
<path d="M154.118 121.407C152.433 122.462 150.864 123.689 149.434 125.07C149.126 125.393 148.755 125.65 148.343 125.823C148.112 125.92 147.857 125.948 147.609 125.904C147.362 125.86 147.132 125.745 146.948 125.574C146.75 125.399 146.607 125.171 146.535 124.917C146.463 124.663 146.466 124.394 146.543 124.141C146.665 123.654 146.92 123.21 147.278 122.858C150.854 119.463 154.579 116.174 159.487 114.96C165.523 113.465 171.254 114.193 176.225 118.33C176.792 118.742 177.246 119.291 177.546 119.924C177.704 120.198 177.773 120.514 177.744 120.828C177.715 121.143 177.589 121.441 177.384 121.681C177.156 121.882 176.867 122.001 176.563 122.019C176.26 122.037 175.959 121.953 175.708 121.781C174.917 121.369 174.176 120.865 173.41 120.398C173.223 120.286 173.023 120.186 172.743 120.03C172.744 121.281 172.654 122.53 172.475 123.768C172.108 126.259 171.678 128.751 170.42 131.043C169.807 132.177 168.928 133.144 167.858 133.861C166.787 134.578 165.559 135.025 164.278 135.161C163.405 135.271 162.519 135.107 161.742 134.694C160.348 134.05 159.095 133.134 158.059 132C157.023 130.867 156.223 129.537 155.706 128.091C154.953 125.967 154.124 123.849 154.118 121.407ZM166.8 125.144C166.475 125.124 166.149 125.173 165.844 125.289C165.54 125.405 165.263 125.584 165.033 125.815C164.803 126.047 164.625 126.324 164.511 126.629C164.397 126.935 164.349 127.261 164.371 127.586C164.416 127.988 164.541 128.376 164.739 128.729C164.936 129.082 165.202 129.391 165.52 129.64C165.838 129.889 166.203 130.072 166.593 130.178C166.983 130.284 167.39 130.311 167.791 130.258C168.028 130.202 168.102 130.04 168.196 129.872C168.635 129.09 168.966 128.252 169.18 127.381C169.218 127.263 169.231 127.138 169.22 127.015C169.208 126.892 169.171 126.773 169.111 126.664C168.594 125.767 167.903 125.126 166.8 125.169V125.144Z" fill="#FE6B01"/>
</g>
<rect x="1.5" y="1.5" width="383" height="302" rx="21.5" stroke="#FF6B00" stroke-width="3"/>
<defs>
<clipPath id="clip0_17_2159">
<rect x="3" y="3" width="380" height="299" rx="20" fill="white"/>
</clipPath>
</defs>
</svg>
