<svg width="386" height="306" viewBox="0 0 386 306" fill="none" xmlns="http://www.w3.org/2000/svg">
<g clip-path="url(#clip0_17_2077)">
<rect x="3" y="3.51123" width="380" height="299" rx="20" fill="#FFFDF7"/>
<path d="M388.5 289.011C381.5 281.845 362.2 264.911 341 254.511L318 270.011L341 323.511H383.5L388.5 289.011Z" fill="#FEA86A" stroke="#FE6C02" stroke-width="4"/>
<path d="M201.13 302.571C201.092 302.278 200.818 302.209 200.631 302.066C196.11 298.67 191.865 294.921 187.936 290.854C185.743 288.574 183.47 286.381 181.171 284.207C180.673 283.74 180.548 283.827 180.343 284.444C179.9 285.872 179.258 287.231 178.437 288.48C178.247 288.796 178.039 289.099 177.814 289.39C176.306 291.259 174.637 291.146 173.347 289.153C172.685 288.041 172.084 286.893 171.547 285.715C169.584 281.573 166.665 277.957 163.032 275.162C162.093 274.394 160.999 273.84 159.824 273.537C160.11 274.041 160.378 274.558 160.684 275.044C163.61 279.779 165.592 285.035 166.52 290.524C166.568 290.766 166.597 291.012 166.608 291.259C166.654 291.583 166.593 291.913 166.434 292.2C166.276 292.486 166.028 292.714 165.729 292.847C165.428 292.978 165.091 293.006 164.772 292.926C164.454 292.846 164.17 292.663 163.966 292.405C163.232 291.592 162.562 290.723 161.961 289.807C159.525 286.406 157.363 282.824 155.021 279.355C154.896 279.091 154.705 278.863 154.467 278.694C153.861 280.541 153.699 282.504 153.993 284.425C154.147 285.434 154.402 286.426 154.753 287.384C154.91 287.711 154.968 288.077 154.92 288.436C154.873 288.796 154.722 289.133 154.486 289.409C153.863 290.031 153.159 289.975 152.399 289.764C144.787 287.646 139.94 281.99 139 274.01C138.838 272.633 138.72 271.25 138.576 269.78C138.258 270.076 138.04 270.464 137.953 270.889C136.987 273.718 136.485 276.684 136.465 279.672C136.371 282.388 136.564 285.098 136.708 287.808C136.708 288.431 136.708 288.979 136.153 289.334C135.908 289.459 135.633 289.512 135.359 289.489C135.085 289.466 134.823 289.367 134.602 289.203C133.994 288.858 133.438 288.428 132.951 287.926C130.583 285.631 128.553 283.012 126.921 280.146C126.604 279.585 126.454 279.71 126.112 280.077C124.928 281.36 123.757 282.65 122.511 283.871C119.297 287.035 115.535 289.265 111.043 290.013C105.493 290.935 100.965 288.892 97.3392 284.786C93.5518 280.495 91.2595 275.374 89.3721 270.03C87.2399 263.846 85.4945 257.536 84.1458 251.137C82.7442 244.733 81.025 238.41 78.3838 232.362C77.2533 229.556 75.4703 227.059 73.1825 225.08C71.8247 223.937 70.7194 222.524 69.9371 220.931C69.1105 219.279 68.0088 217.779 66.6792 216.496C65.3088 215.176 64.3371 213.531 63.2096 212.017C61.8578 210.192 60.4812 208.398 58.9987 206.685C57.1666 204.572 55.8263 202.078 55.0743 199.385C54.8635 198.639 54.531 197.934 54.0901 197.298C52.8442 195.51 51.7105 193.672 51.2558 191.505C51.1281 190.867 51.1281 190.211 51.2558 189.574C51.6607 187.45 52.9688 186.422 55.3235 186.409C55.2333 185.605 55.202 184.795 55.23 183.986C55.3795 180.909 57.2856 178.816 60.8363 179.987C60.7288 179.285 60.5557 178.595 60.3192 177.925C59.5655 175.116 58.4505 172.4 57.9584 169.522C57.6465 168.159 57.6658 166.74 58.0145 165.386C58.1162 165.026 58.2539 164.678 58.4256 164.346C58.6225 163.919 58.9185 163.545 59.289 163.256C59.6595 162.966 60.0937 162.769 60.5556 162.682C61.0174 162.594 61.4935 162.618 61.9443 162.751C62.3951 162.885 62.8075 163.124 63.1473 163.449C63.9067 164.136 64.5154 164.974 64.9351 165.909C66.5546 169.161 67.8316 172.568 69.2332 175.919C70.0679 177.913 70.8341 179.937 71.7934 181.881C72.068 182.499 72.4287 183.076 72.8648 183.594C72.9872 183.753 73.1567 183.869 73.349 183.926C73.5414 183.983 73.7469 183.978 73.9362 183.911C74.3598 183.774 74.4657 183.475 74.5155 183.07C75.2973 177.403 76.3681 171.779 77.7235 166.22C77.9263 165.14 78.2742 164.093 78.7576 163.106C79.3805 161.997 80.2152 161.237 81.5233 161.293C82.1398 161.322 82.7327 161.539 83.2217 161.916C83.7107 162.292 84.0724 162.81 84.2579 163.399C84.6444 164.393 84.8552 165.447 84.8808 166.513C85.0864 171.615 85.1238 176.717 85.0303 181.825C84.9896 184.584 85.1019 187.344 85.3667 190.091C85.4415 190.869 85.9896 191.505 85.9896 192.308C85.9896 192.489 86.2201 192.551 86.3696 192.638C87.3293 193.186 88.1102 193.999 88.6183 194.981C89.7667 197.076 91.1232 199.05 92.6673 200.873C95.0468 203.726 95.8193 207.152 95.9314 210.753C95.9764 212.313 96.2991 213.853 96.8844 215.3C98.6224 219.617 100.161 224.021 101.681 228.381C102.572 230.966 103.332 233.601 104.272 236.168C105.627 240.072 107.7 243.689 110.383 246.832C110.956 245.767 111.542 244.689 112.109 243.605C112.264 243.313 112.009 243.088 111.872 242.858C110.719 240.966 109.733 238.978 108.925 236.915C108.042 234.488 107.377 231.986 106.938 229.44C104.885 218.524 104.775 207.33 106.614 196.376C107.175 192.9 107.58 189.412 109.019 186.123C109.978 183.942 110.582 181.607 111.417 179.37C115.41 168.669 115.472 157.805 112.812 146.823C111.318 140.525 110.428 134.098 110.153 127.631C109.81 120.467 109.53 113.304 109.86 106.128C110.246 97.164 110.994 88.2438 113.242 79.5105C115.111 72.1227 118.344 65.2831 121.963 58.6054C129.274 44.9749 140.008 33.483 153.109 25.2607C158.414 21.9111 164.385 19.7578 170.607 18.9505C175.914 18.228 180.897 19.399 185.694 21.5979C189.137 23.0801 192.204 25.315 194.67 28.1386C194.956 28.429 195.203 28.7557 195.405 29.1103C195.716 29.7955 196.171 29.8142 196.838 29.7332C201.116 28.9112 205.463 28.4941 209.819 28.4874C214.769 28.5677 219.629 29.8186 224.003 32.1377C229.977 35.2523 235.533 38.9898 239.663 44.4465C242.373 48.047 244.472 52.0087 246.571 55.9643C249.904 62.2308 251.81 68.9645 253.093 75.8976C254.077 81.2298 255.111 86.5557 255.859 91.9315C256.424 96.7542 256.74 101.603 256.806 106.458C257.061 114.226 257.261 121.993 257.572 129.755C257.883 137.517 259.79 144.848 262.312 152.093C263.692 155.941 265.3 159.704 267.128 163.361C270.535 170.375 274.372 177.146 278.147 183.961C281.511 190.035 284.432 196.345 287.279 202.68C289.717 208.265 291.091 214.256 291.328 220.346C291.596 224.124 291.515 227.919 291.085 231.683C290.88 233.416 290.442 235.113 289.783 236.728C289.59 237.189 289.69 237.414 290.094 237.682C292.07 239.028 294.13 240.247 296.261 241.332C296.951 241.638 297.583 242.059 298.13 242.578C298.245 242.706 298.394 242.799 298.56 242.845C299.899 243.032 301.201 243.437 302.603 242.976C306.658 241.631 310.806 241.73 314.93 242.528C322.53 243.998 329.936 246.116 336.857 249.673C338.564 250.545 340.227 251.498 341.84 252.513C342.003 252.598 342.137 252.729 342.225 252.89C342.314 253.05 342.353 253.234 342.339 253.416C342.301 254.855 342.339 256.3 342.307 257.746C342.011 257.697 341.739 257.555 341.529 257.341C338.439 254.94 335.035 252.972 331.413 251.492C325.329 248.889 318.944 247.054 312.407 246.029C310.308 245.774 308.189 245.716 306.079 245.854C303.948 245.948 301.812 246.396 299.694 245.941C297.42 245.462 295.072 245.225 292.997 244.01C289.61 241.975 286.335 239.759 283.186 237.37C282.296 236.71 282.258 236.679 281.941 237.756C281.892 237.922 281.853 238.091 281.822 238.261C281.269 241.249 280.227 244.126 278.739 246.776C276.655 250.437 275.171 254.407 274.341 258.537C274.054 260.019 273.762 261.508 273.456 262.991C273.369 263.402 273.251 263.888 272.728 263.888C272.204 263.888 272.161 263.389 272.049 263.016C271.544 261.447 271.376 259.789 271.556 258.151C272.144 253.851 273.587 249.712 275.799 245.979C277.428 243.236 278.637 240.265 279.387 237.164C279.784 235.371 280.053 233.552 280.19 231.72C280.078 231.764 280.022 231.77 279.997 231.801C279.972 231.832 279.816 232.038 279.729 232.162C278.389 234.203 276.782 236.054 274.951 237.669C272.46 239.718 269.806 241.575 267.645 244.01C267.209 244.455 266.745 244.871 266.255 245.256C262.6 248.373 259.194 251.772 256.071 255.422C253.859 258.076 252.688 261.228 253.984 264.766C254.227 265.445 254.358 266.155 254.538 266.853C254.592 267.007 254.6 267.174 254.561 267.333C254.523 267.492 254.439 267.637 254.32 267.75C254.009 267.986 253.735 267.644 253.467 267.501C253.359 267.437 253.267 267.35 253.199 267.245C252.67 266.523 252.103 265.825 251.617 265.077C250.656 263.727 250.182 262.091 250.271 260.437C250.496 257.742 251.448 255.158 253.025 252.962C254.236 251.379 255.598 249.919 257.092 248.601C257.635 248.092 257.978 247.404 258.058 246.664C258.239 245.237 258.481 243.817 258.712 242.397C259.285 239.145 259.653 235.86 259.815 232.561C259.927 229.378 259.864 226.195 259.671 223.012C259.621 222.077 259.466 221.143 259.36 220.221C259.23 220.323 259.144 220.47 259.117 220.632C258.756 222.937 258.338 225.236 257.821 227.484C256.937 231.396 254.707 234.598 252.389 237.756C251.928 238.379 251.144 238.765 251.013 239.625C250.29 243.605 249.536 247.58 248.795 251.554C248.054 255.528 247.3 259.589 246.571 263.551C245.537 269.157 244.528 274.733 243.457 280.314C242.448 285.683 241.245 291.016 239.912 296.31C239.806 296.734 239.869 296.933 240.267 297.12C241.457 297.631 242.641 298.148 243.818 298.684C244.244 298.881 244.723 298.936 245.182 298.839C249.78 297.995 254.233 296.498 258.407 294.392C261.154 293.04 263.87 291.62 266.71 290.48C269.457 289.371 272.242 288.536 275.095 290.187C275.394 290.355 275.531 290.187 275.718 289.975C276.34 289.076 276.878 288.121 277.325 287.122C278.098 285.2 279.241 283.447 280.688 281.965C283.033 279.846 285.566 277.946 288.257 276.29C291.309 274.272 294.368 272.285 296.859 269.55C297.627 268.736 298.237 267.788 298.66 266.753C298.896 266.13 299.164 265.563 299.407 264.965C300.429 262.474 301.419 259.982 301.245 257.204C301.094 255.418 301.034 253.626 301.064 251.834C301.088 251.237 301.208 250.648 301.419 250.09C301.481 249.859 301.612 249.652 301.795 249.498C301.977 249.343 302.203 249.248 302.441 249.224C302.678 249.203 302.916 249.251 303.127 249.362C303.338 249.472 303.512 249.64 303.63 249.847C303.935 250.306 304.131 250.828 304.204 251.373C304.409 252.619 304.615 253.921 304.764 255.198C305.06 257.194 304.973 259.227 304.509 261.19C303.662 263.983 302.364 266.617 300.665 268.989C299.457 270.745 298.438 272.624 297.626 274.596C295.8 279.299 294.262 284.114 292.268 288.754C290.661 292.492 289.048 296.229 286.768 299.662C286.513 300.048 286.207 300.627 285.709 300.391C285.211 300.154 285.504 299.575 285.61 299.145C285.992 297.676 286.465 296.233 287.024 294.822C289.235 289.215 291.477 283.609 293.701 278.003C294.031 277.168 294.324 276.327 294.748 275.306C294.418 275.524 294.262 275.605 294.125 275.717C291.583 277.953 288.761 279.828 286.064 281.865C283.716 283.64 281.76 285.665 280.62 288.437C280.084 289.833 279.331 291.137 278.39 292.299C278.134 292.604 278.24 292.847 278.427 293.102C279.866 295.071 280.551 297.357 281.205 299.655C281.556 300.589 281.766 301.569 281.828 302.565H281.205C280.95 302.197 280.664 301.848 280.439 301.468C279.754 300.285 279.106 299.076 278.409 297.905C277.916 297.008 277.32 296.172 276.633 295.413C276.413 296.646 276.348 297.902 276.44 299.151C276.44 300.291 276.559 301.443 276.122 302.54H274.627C274.355 302.157 274.107 301.758 273.886 301.344C272.752 298.85 272.647 296.01 273.593 293.439C273.749 292.959 273.73 292.716 273.245 292.511C272.108 291.997 270.846 291.826 269.613 292.019C267.121 292.448 264.947 293.682 262.792 294.909C259.895 296.603 256.902 298.128 253.828 299.475C250.99 300.606 248.023 301.384 244.995 301.792C243.694 302.108 242.369 302.317 241.034 302.415C239.993 302.415 239.75 302.072 240.168 301.169C240.423 300.602 240.006 300.546 239.707 300.49C239.408 300.434 238.997 299.867 238.766 300.584C238.536 301.3 238.374 301.917 238.143 302.583H234.113C234.736 299.979 235.583 297.432 236.231 294.828C238.006 287.727 239.483 280.563 240.797 273.368C243.507 258.537 246.521 243.767 249.555 228.998C250.141 226.126 250.869 223.28 251.249 220.364C251.318 219.804 251.131 219.175 251.486 218.689C251.849 218.119 252.099 217.484 252.221 216.82C252.433 216.054 252.67 215.294 252.931 214.546C253.056 214.198 253.218 213.805 253.648 213.755C254.077 213.705 254.152 214.216 254.389 214.553C254.954 212.936 255.096 211.201 254.8 209.513C254.208 204.742 252.769 200.169 251.131 195.691C250.309 193.436 249.35 191.249 247.618 189.505C246.777 188.658 245.911 187.829 245.126 186.932C243.667 185.276 241.726 184.118 239.576 183.619C235.859 182.758 232.044 182.404 228.233 182.566C222.508 182.722 216.839 183.606 211.115 183.855C208.505 183.967 205.889 184.067 203.31 183.475C197.959 182.229 195.374 178.174 196.582 172.886C196.622 172.707 196.619 172.521 196.574 172.344C196.528 172.166 196.442 172.002 196.321 171.864C194.413 169.121 192.972 166.082 192.054 162.869C191.898 162.34 191.817 162.284 191.312 162.477C186.535 164.271 181.663 165.784 176.786 167.267C173.017 168.413 169.087 168.513 165.162 168.301C164.951 168.301 164.67 168.158 164.539 168.357C164.409 168.556 164.658 168.756 164.77 168.93C165.237 169.665 165.711 170.4 166.203 171.117C167.286 172.61 168.061 174.304 168.482 176.1C168.96 178.395 169.126 180.744 168.975 183.083C168.958 183.404 168.887 183.72 168.763 184.017C168.641 184.379 168.409 184.693 168.1 184.917C167.79 185.14 167.419 185.261 167.037 185.263C166.652 185.262 166.276 185.142 165.962 184.919C165.647 184.696 165.409 184.381 165.281 184.017C165.206 183.837 165.231 183.612 164.975 183.463C163.599 184.839 161.824 185.332 159.942 185.568C157.984 185.757 156.011 185.741 154.056 185.518C151.555 185.239 149.04 185.112 146.525 185.138C145 185.15 143.498 185.505 142.129 186.177C140.761 186.849 139.561 187.82 138.62 189.019C137.438 190.566 136.542 192.31 135.972 194.171C134.253 199.291 132.459 204.387 130.509 209.42C128.809 213.83 126.816 218.141 125.426 222.657C123.807 227.958 120.867 232.736 119.309 238.068C118.923 239.395 117.889 240.404 117.441 241.712C117.154 242.584 116.818 243.443 116.469 244.291C115.341 246.951 113.884 249.442 112.582 252.021C112.366 252.385 112.289 252.814 112.364 253.23C112.84 255.672 113.165 258.141 113.336 260.624C113.417 261.583 113.672 262.548 113.423 263.52C113.334 263.924 113.119 264.29 112.809 264.564C112.499 264.838 112.11 265.007 111.697 265.046C111.298 265.045 110.908 264.927 110.575 264.705C110.243 264.484 109.983 264.169 109.829 263.8C109.668 263.383 109.571 262.944 109.542 262.499C109.33 260.667 109.15 258.836 108.876 257.017C108.213 253.108 106.863 249.348 104.889 245.91C103.618 243.771 102.538 241.524 101.662 239.195C99.6814 233.271 97.6693 227.36 95.4331 221.536C94.0564 217.966 92.985 214.428 93.2217 210.473C93.2938 208.931 93.0552 207.39 92.5202 205.942C91.9851 204.494 91.1645 203.169 90.1071 202.044C88.7089 200.485 87.5214 198.749 86.5752 196.88C86.0315 195.749 85.0853 194.86 83.9216 194.389C80.5329 192.937 77.138 191.405 73.7556 189.922C72.6602 189.445 71.5024 189.126 70.3171 188.976C68.006 188.683 65.695 188.976 63.384 188.926C62.649 188.926 62.3811 189.337 62.568 190.078C62.7327 190.747 63.0533 191.367 63.5037 191.888C63.9542 192.408 64.5215 192.815 65.1593 193.074C66.2677 193.526 67.4508 193.767 68.6476 193.785C69.4711 193.79 70.2823 193.984 71.0188 194.353C71.7553 194.721 72.3975 195.253 72.8959 195.909C73.9579 197.229 75.3034 198.294 76.8328 199.023C77.1914 199.196 77.5316 199.405 77.8481 199.646C78.4212 200.101 78.3527 200.618 77.6675 200.892C77.5259 200.933 77.3988 201.014 77.3007 201.124C77.2027 201.234 77.1376 201.37 77.1131 201.515C76.9885 202.02 76.7954 202.512 76.6833 203.022C76.07 205.97 76.4058 209.036 77.6426 211.781C78.2156 213.126 78.3527 214.565 78.7389 215.954C78.8261 216.259 78.9382 216.702 78.5396 216.895C78.1409 217.088 77.9166 216.745 77.6612 216.496C77.2416 216.002 76.8781 215.463 76.5774 214.889C73.8552 210.529 72.9333 205.956 74.9765 201.042C75.0948 200.749 75.0699 200.605 74.7771 200.462C73.2909 199.636 71.9911 198.512 70.9587 197.161C70.6721 196.824 70.398 196.401 69.9308 196.345C68.5168 196.158 67.0903 196.021 65.5704 195.865C66.0145 197.145 66.3602 198.457 66.6045 199.789C66.8583 200.815 66.8369 201.889 66.5422 202.904C66.4534 203.182 66.3065 203.439 66.1111 203.656C65.9157 203.873 65.6764 204.047 65.409 204.165C65.1416 204.282 64.8522 204.342 64.56 204.339C64.2678 204.337 63.9795 204.272 63.7141 204.15C63.0491 203.873 62.4566 203.447 61.9824 202.904C61.8329 202.742 61.7208 202.505 61.4779 202.487C60.1697 202.393 59.0672 201.752 57.9272 201.203C57.8712 201.154 57.8151 201.085 57.7591 201.203C57.7591 201.203 57.8089 201.272 57.8338 201.303C58.1388 202.118 58.5883 202.871 59.1606 203.527C62.3873 207.345 65.4708 211.295 68.9404 214.901C70.035 215.991 70.995 217.208 71.7996 218.527C72.7406 220.143 73.8674 221.645 75.1571 222.999C78.0872 226.103 80.3906 229.743 81.9407 233.72C83.8877 238.597 85.4234 243.629 86.5316 248.763C87.6155 253.834 88.88 258.861 90.2691 263.85C91.0103 266.491 92.3247 268.921 93.2466 271.5C94.7452 275.656 96.9891 279.504 99.8682 282.855C100.925 284.151 102.255 285.197 103.762 285.921C105.269 286.644 106.917 287.027 108.589 287.041C112.052 287.098 115.099 285.702 117.833 283.684C121.004 281.348 123.533 278.339 126.068 275.368C128.603 272.397 130.827 269.238 133.319 266.261C134.931 264.391 136.352 262.365 137.561 260.212C138.639 258.25 139.685 256.269 140.887 254.382C142.401 251.996 143.335 249.318 144.762 246.907C145.906 245.125 146.922 243.264 147.802 241.338C149.192 237.952 150.882 234.698 152.854 231.614C153.396 230.835 153.663 229.897 153.613 228.948C153.576 228.101 153.589 227.252 153.651 226.407C153.641 225.435 153.754 224.466 153.987 223.523C154.021 223.338 154.114 223.169 154.25 223.04C154.387 222.912 154.561 222.83 154.747 222.806C154.936 222.791 155.124 222.833 155.288 222.928C155.451 223.022 155.582 223.165 155.663 223.336C155.897 223.747 156.058 224.196 156.136 224.663C156.396 225.956 156.555 227.268 156.61 228.587C156.588 229.112 156.746 229.628 157.058 230.051C157.222 230.273 157.327 230.533 157.36 230.807C157.394 231.081 157.357 231.359 157.251 231.614C156.79 233.003 157.127 234.449 156.821 235.869C156.908 235.878 156.996 235.878 157.083 235.869C160.397 234 164.029 233.495 167.747 233.477C173.173 233.477 178.418 234.592 183.582 236.168L185.968 236.909C185.497 236.082 184.838 235.377 184.043 234.853C183.649 234.594 183.296 234.277 182.996 233.913C182.78 233.667 182.649 233.357 182.623 233.031C182.598 232.704 182.679 232.378 182.854 232.101C183.03 231.825 183.29 231.613 183.597 231.497C183.903 231.381 184.239 231.367 184.554 231.459C185.162 231.606 185.731 231.886 186.217 232.281C186.74 232.673 187.239 233.109 187.774 233.527C187.849 233.365 187.911 233.259 187.955 233.147C188.634 231.297 189.573 229.554 190.746 227.97C190.977 227.645 191.259 227.359 191.58 227.123C191.725 226.984 191.907 226.891 192.104 226.856C192.302 226.82 192.505 226.844 192.689 226.924C192.867 227.021 193.009 227.171 193.098 227.353C193.186 227.535 193.215 227.74 193.181 227.939C193.174 228.261 193.12 228.58 193.019 228.886C192.726 229.708 192.396 230.518 192.06 231.315C191.287 233.016 190.727 234.804 190.39 236.641C190.285 237.264 190.459 237.42 191.013 237.214C191.879 236.909 192.77 236.666 193.63 236.33C197.076 234.859 200.613 233.611 204.219 232.592C206.867 231.92 209.526 231.309 212.193 230.724C212.629 230.63 212.622 230.368 212.66 230.101C212.934 228.082 213.202 226.06 213.463 224.033C213.812 221.342 214.036 218.639 214.535 215.935C214.609 215.531 214.578 214.839 214.983 214.783C215.531 214.715 215.687 215.406 215.874 215.83C216.374 217.162 216.607 218.58 216.559 220.003C216.553 223.887 216.285 227.766 215.756 231.614C215.102 237.302 214.391 242.976 213.781 248.67C213.027 255.721 212.442 262.791 211.912 269.849C211.14 280.152 210.359 290.453 209.57 300.752C209.533 301.281 209.657 301.611 210.193 301.736C210.909 301.904 210.816 302.203 210.324 302.565L201.13 302.571ZM126.305 127.313C125.358 130.995 124.797 134.732 126.018 138.426C127.786 144.105 131.143 149.158 135.692 152.99C139.149 155.849 142.744 158.552 146.973 160.203C153.118 162.629 159.608 164.063 166.203 164.451C169.509 164.732 172.84 164.501 176.076 163.766C178.2 163.231 180.249 162.433 182.305 161.773C185.033 160.907 187.824 160.216 190.44 159.038C193.835 157.5 196.8 155.238 199.971 153.32C204.331 150.691 207.72 147.091 210.735 143.11C212.153 141.066 213.451 138.94 214.622 136.744C214.859 136.352 215.114 135.747 215.619 135.928C216.123 136.109 215.949 136.757 215.893 137.205C215.696 138.864 215.255 140.484 214.585 142.014C214.398 142.425 214.454 142.556 214.933 142.581C216.223 142.644 217.516 142.586 218.795 142.406C222.096 142.011 225.232 140.747 227.884 138.744C228.675 138.121 229.441 137.498 230.276 136.956C230.463 136.85 230.625 136.704 230.749 136.528C230.874 136.353 230.959 136.152 230.998 135.941C231.808 132.471 232.767 129.051 233.808 125.644C235.116 121.364 236.555 117.122 237.452 112.718C237.626 111.976 237.607 111.201 237.395 110.469C237.184 109.736 236.788 109.07 236.245 108.534C235.702 107.999 235.031 107.612 234.295 107.411C233.56 107.21 232.785 107.201 232.045 107.386C231.106 107.629 230.185 107.933 229.285 108.295C228.674 108.537 228.05 108.745 227.417 108.918C227.012 109.018 226.532 109.08 226.277 108.626C226.171 108.425 226.123 108.2 226.136 107.974C226.149 107.748 226.224 107.529 226.351 107.342C226.47 107.137 226.713 107 226.713 106.651C224.078 107.15 221.389 107.301 218.714 107.099C219.674 110.177 219.157 113.167 218.714 116.375C219.406 115.59 219.96 114.979 220.484 114.363C221.23 113.398 222.106 112.541 223.087 111.815C223.498 111.547 224.04 111.192 224.445 111.616C224.85 112.039 224.364 112.488 224.096 112.861C221.837 115.831 219.57 118.796 217.294 121.757C217.206 121.878 217.103 121.989 216.989 122.087C216.806 122.279 216.559 122.399 216.295 122.424C216.031 122.449 215.766 122.378 215.55 122.224C215.322 122.087 215.152 121.871 215.073 121.617C214.994 121.364 215.011 121.089 215.12 120.847C215.222 120.594 215.336 120.347 215.463 120.106C217.296 116.131 218.022 111.734 217.562 107.38C217.531 106.975 217.375 106.875 216.989 106.807C212.791 106.072 209.302 104.134 206.804 100.621C205.16 98.3039 203.59 95.943 202.002 93.5884C201.739 93.1978 201.349 92.9097 200.899 92.7724C195.976 91.0202 190.722 90.3964 185.525 90.9473C184.386 91.0656 183.252 91.1964 182.118 91.3895C181.726 91.506 181.304 91.4642 180.942 91.2731C180.581 91.0821 180.308 90.7569 180.184 90.3674C180.059 89.9779 180.092 89.555 180.275 89.1895C180.459 88.8239 180.778 88.5448 181.165 88.412C181.724 88.1328 182.326 87.9516 182.947 87.8763C188.086 87.1537 193.169 87.2534 198.171 88.8106C198.515 88.9964 198.912 89.0622 199.298 88.9975C197.386 84.1886 194.415 80.04 191.462 75.9163C188.684 72.0168 182.23 65.2083 180.941 64.7536C181.022 67.0646 180.941 69.3445 180.816 71.6057C180.729 73.3187 180.411 75.0255 180.561 76.751C180.746 78.9841 180.731 81.2293 180.517 83.4598C180.124 87.0926 178.786 90.559 176.636 93.5137C176.425 93.8189 176.151 94.2176 175.771 94.0743C175.391 93.931 175.409 93.414 175.465 93.0216C175.627 91.9439 175.777 90.8538 176.001 89.7886C176.962 85.6103 177.345 81.32 177.141 77.0375C176.902 72.8464 175.695 68.7677 173.615 65.1211C172.992 63.9687 172.07 63.4268 170.725 63.6946C169.734 63.9239 168.699 63.8657 167.74 63.527C166.781 63.1883 165.939 62.583 165.312 61.7823C164.823 61.2494 164.237 60.814 163.586 60.4991C160.515 58.9169 157.226 58.7923 153.9 59.0975C150.084 59.5197 146.461 60.9997 143.441 63.3707C138.022 67.3948 133.879 72.3657 131.905 78.9436C130.709 83.0311 129.972 87.2388 129.706 91.4892C129.504 95.0266 129.668 98.5754 130.198 102.079C133.805 101.051 136.77 98.634 140.507 97.6623C140.387 97.6311 140.264 97.6082 140.14 97.5938C139.965 97.5938 139.791 97.5938 139.617 97.5938C137.52 97.6864 135.474 98.262 133.637 99.2756C133.381 99.4065 133.063 99.6058 132.839 99.2756C132.615 98.9455 132.889 98.7586 133.045 98.5468C133.628 97.8226 134.413 97.2872 135.3 97.0082C137.954 96.0309 140.837 95.8554 143.591 96.5037C146.705 97.1764 149.197 98.9953 151.477 101.126C153.526 103.038 153.969 105.586 154.236 108.183C154.254 108.271 154.253 108.36 154.236 108.447C154.218 108.534 154.183 108.617 154.133 108.691C154.084 108.764 154.02 108.827 153.945 108.876C153.871 108.924 153.788 108.958 153.701 108.974C153.533 109.032 153.35 109.027 153.186 108.959C153.022 108.891 152.888 108.766 152.81 108.607C152.705 108.382 152.62 108.149 152.555 107.909C152.249 106.981 151.932 106.041 151.608 105C151.525 105.126 151.454 105.26 151.396 105.399C151.324 105.638 151.267 105.881 151.228 106.128C150.923 107.947 150.324 109.704 149.452 111.329C148.984 112.346 148.203 113.186 147.224 113.729C146.245 114.271 145.118 114.486 144.008 114.344C141.722 114.176 139.909 113.235 138.956 111.086C137.467 107.766 137.866 104.595 139.965 101.63C140.461 100.991 141 100.388 141.579 99.8238C140.107 100.036 138.69 100.528 137.405 101.275C136.159 101.898 134.957 102.602 133.705 103.212C132.846 103.726 131.86 103.99 130.858 103.972C130.298 103.916 130.379 104.109 130.397 104.477C130.557 107.139 130.449 109.81 130.073 112.45C129.589 115.321 128.945 118.161 128.142 120.959C127.482 123.034 126.822 125.152 126.305 127.313ZM205.988 301.288C206.063 300.042 206.138 298.958 206.206 297.874C206.318 296.005 206.406 294.136 206.543 292.218C206.811 288.605 207.122 284.998 207.396 281.385C207.62 278.439 207.801 275.486 208.019 272.546C208.337 268.535 208.692 264.523 209.034 260.511C209.14 259.228 209.227 257.939 209.365 256.656C209.738 253.155 210.106 249.648 210.529 246.153C210.953 242.659 211.426 239.015 211.943 235.458C212.043 234.772 211.837 234.723 211.283 234.704C209.693 234.746 208.114 234.991 206.586 235.433C202.369 236.38 198.414 238.074 194.415 239.65C192.508 240.404 190.571 241.033 188.478 240.858C186.873 240.673 185.297 240.297 183.781 239.737C177.552 237.713 171.323 236 164.658 236.672C162.266 236.909 159.942 237.383 157.868 238.703C157.706 238.809 157.469 238.965 157.332 238.915C156.628 238.666 156.759 239.145 156.753 239.538C156.753 240.784 156.753 241.98 156.753 243.201C156.753 244.421 156.853 245.474 156.753 246.62C156.704 247.987 156.733 249.356 156.84 250.719C157.094 255.278 158.423 259.712 160.721 263.657C162.316 266.485 164.396 268.771 167.48 270.017C169.364 270.724 171.285 271.327 173.235 271.824C174.618 272.216 176.076 272.341 177.353 273.069C178.2 273.562 178.418 274.446 177.695 275.025C176.973 275.605 177.234 275.904 177.751 276.315C177.907 276.439 178.038 276.595 178.188 276.726C182.224 280.152 186.161 283.696 189.905 287.446C192.868 290.496 196.004 293.372 199.298 296.061C201.497 297.774 203.69 299.456 205.988 301.288ZM161.188 39.3324C158.581 39.2528 155.986 39.702 153.557 40.653C149.787 42.0968 146.254 44.0956 143.074 46.5831C141.351 47.9079 139.735 49.3659 138.24 50.9435C136.34 53.0615 134.384 55.1731 133.294 57.9015C132.578 59.7018 131.749 61.4584 131.027 63.2524C130.043 65.7361 129.548 68.3863 129.569 71.0575C129.569 71.4811 129.569 71.9732 129.999 72.1663C130.429 72.3594 130.827 71.967 131.114 71.6244C131.992 70.5398 132.629 69.2805 132.982 67.9305C134.419 62.9123 137.07 58.3253 140.7 54.5751C144.264 50.9443 148.441 47.9728 153.04 45.7983C157.233 43.7426 161.493 43.6118 165.916 44.4839C167.868 44.9115 169.716 45.7201 171.354 46.8634C171.963 47.3012 172.65 47.6183 173.379 47.7978C174.581 48.0408 175.247 47.3182 174.855 46.1595C174.663 45.6219 174.379 45.1221 174.014 44.6832C172.852 43.1997 171.359 42.0092 169.654 41.2074C166.999 39.9834 164.112 39.3439 161.188 39.3324ZM83.0806 191.118C82.7227 188.331 82.5272 185.525 82.4951 182.715C82.3705 177.732 82.1089 172.749 82.302 167.709C82.3235 166.814 82.2735 165.918 82.1525 165.031C82.0964 164.564 82.0653 163.872 81.5296 163.785C80.9938 163.698 80.8506 164.408 80.7322 164.869C79.9224 167.784 79.0317 170.662 78.7887 173.72C78.5084 177.165 77.7484 180.572 77.138 183.955C76.976 184.871 76.5649 185.612 75.4499 185.618C75.281 185.653 75.1229 185.728 74.9889 185.836C74.4098 186.216 73.7163 186.381 73.0282 186.304C72.3402 186.226 71.7007 185.911 71.2203 185.413C70.3739 184.564 69.701 183.559 69.2394 182.454C67.8067 179.439 66.6356 176.318 65.3337 173.247C64.4343 170.853 63.3836 168.519 62.188 166.258C61.9077 165.778 61.5651 165.062 60.9733 165.218C60.3815 165.373 60.2756 166.152 60.232 166.775C60.1765 168.148 60.3685 169.519 60.7989 170.824C61.8578 174.399 63.1535 177.906 63.9135 181.563C64.2 182.964 64.7357 184.36 64.1876 185.817C64.1003 186.048 64.1876 186.123 64.4243 186.123C65.3213 186.123 66.1933 186.341 67.0966 186.272C70.2424 186.062 73.3885 186.678 76.2223 188.06C78.4461 189.125 80.7198 190.072 83.0806 191.118ZM235.035 99.8487C234.923 97.4879 234.194 95.2641 233.577 92.9967C231.709 86.1446 229.566 79.3735 225.679 73.3063C224.377 71.2818 223.355 69.0766 221.941 67.1207C221.247 66.0834 220.335 65.2098 219.269 64.5605C218.92 64.3612 218.509 64.1868 218.173 64.5605C217.836 64.9343 218.036 65.2706 218.216 65.6008C219.35 67.7187 220.465 69.8553 221.636 71.9545C223.819 75.7659 225.637 79.7744 227.068 83.927C228.824 89.2155 230.257 94.5975 231.484 100.036C231.566 100.377 231.72 100.697 231.935 100.976C232.149 101.254 232.42 101.483 232.73 101.649C232.961 101.824 233.241 101.923 233.531 101.933C233.821 101.943 234.107 101.864 234.35 101.705C234.621 101.487 234.828 101.199 234.949 100.872C235.07 100.545 235.099 100.191 235.035 99.8487ZM227.728 159.088C227.728 160.259 227.66 161.43 227.728 162.595C227.835 164.69 228.378 166.74 229.323 168.613C229.781 169.516 230.462 170.288 231.301 170.855C232.14 171.423 233.11 171.768 234.119 171.858C235.265 172.001 235.757 171.285 235.272 170.232C234.87 169.431 234.39 168.672 233.839 167.965C232.793 166.529 232.164 164.833 232.02 163.062C231.769 159.953 231.769 156.828 232.02 153.719C232.176 151.289 232.437 148.86 232.643 146.43C232.798 144.89 232.65 143.335 232.207 141.852C232.064 141.422 231.964 140.731 231.54 140.693C231.011 140.65 231.048 141.385 230.83 141.777C230.729 141.976 230.648 142.185 230.587 142.4C228.605 147.737 227.636 153.396 227.728 159.088ZM132.914 181.631C132.852 177.364 132.627 173.689 132.216 170.027C132.137 168.812 131.928 167.609 131.593 166.439C131.5 166.152 131.375 165.859 131.008 165.816C130.64 165.772 130.447 166.09 130.329 166.401C130.145 166.892 130.044 167.41 130.03 167.934C129.818 171.685 129.818 175.445 130.03 179.196C130.254 184.789 130.08 190.391 129.507 195.959C129.313 197.939 129.071 199.914 128.884 201.895C128.853 202.169 128.765 202.518 129.152 202.655C129.538 202.792 129.706 202.418 129.837 202.132C130.383 200.99 130.801 199.79 131.083 198.556C132.396 193.013 133.011 187.327 132.914 181.631ZM177.278 49.6666C177.229 50.1615 177.353 50.6581 177.631 51.0709C177.908 51.4836 178.321 51.7867 178.798 51.9277C179.689 52.152 180.436 51.6973 180.953 50.6134C181.065 50.3705 181.165 50.1088 181.277 49.8659C183.489 45.0881 186.466 40.9831 191.163 38.3357C191.658 38.05 192.125 37.7184 192.558 37.3453C192.808 37.1758 192.997 36.9306 193.097 36.6457C193.196 36.3608 193.202 36.0514 193.113 35.7631C192.876 35.0467 192.284 34.8847 191.636 34.8349C191.365 34.8237 191.092 34.8467 190.827 34.9034C189.656 35.1572 188.543 35.6261 187.544 36.2863C182.891 39.1019 179.925 43.3253 177.633 48.1217C177.42 48.6103 177.3 49.1341 177.278 49.6666ZM238.735 101.892C238.523 103.848 238.492 105.81 238.411 107.772C238.326 109.065 238.471 110.362 238.841 111.603C239.146 112.531 239.582 112.619 240.242 111.883C240.995 111.034 241.434 109.952 241.488 108.819C241.847 105.18 241.927 101.519 241.725 97.8679C241.677 96.325 241.381 94.8 240.847 93.3517C240.654 92.9094 240.367 92.4547 239.806 92.5544C239.246 92.6541 239.246 93.1773 239.215 93.6258C239.015 96.3853 239.028 99.1386 238.735 101.886V101.892ZM59.1855 181.756C58.8073 181.708 58.4255 181.813 58.1242 182.046C57.8229 182.28 57.6266 182.624 57.5784 183.002C57.368 183.875 57.3342 184.781 57.4787 185.668C57.815 187.88 58.3743 190.053 59.1482 192.153C60.1791 195.274 61.6202 198.244 63.4338 200.985C63.7266 201.403 64.0567 202.144 64.5987 201.92C64.9911 201.752 64.7856 200.961 64.6859 200.456C64.3557 198.805 63.9882 197.155 63.6518 195.473C63.6175 195.331 63.5522 195.198 63.4607 195.084C63.3692 194.969 63.2537 194.877 63.1224 194.812C61.6977 193.911 60.6553 192.516 60.1947 190.894C59.5717 188.689 60.4563 187.076 62.1568 186.621C62.4496 186.54 62.5119 186.44 62.3686 186.16C62.0438 185.431 61.8337 184.655 61.7457 183.861C61.6515 183.258 61.3386 182.71 60.8665 182.321C60.3945 181.933 59.7962 181.732 59.1855 181.756ZM212.815 159.368C212.921 160.409 212.996 161.449 213.146 162.483C213.862 167.541 215.706 172.213 218.06 176.71C218.505 177.573 219.081 178.361 219.767 179.046C219.84 179.139 219.936 179.21 220.045 179.254C220.155 179.298 220.274 179.312 220.39 179.296C222.776 178.978 225.168 178.673 227.765 178.56L226.875 178.143C221.573 175.941 217.35 171.741 215.12 166.451C214.199 164.143 213.429 161.777 212.815 159.368ZM59.578 199.378C59.6153 199.26 59.6403 199.229 59.6278 199.216C57.8361 195.695 56.4986 191.961 55.6474 188.104C55.5664 187.736 55.3484 187.78 55.093 187.817C54.6321 187.886 54.2043 188.097 53.8692 188.421C53.5342 188.745 53.3087 189.165 53.2242 189.623C53.0869 190.488 53.2287 191.374 53.6291 192.153C54.4771 194.009 55.5937 195.73 56.943 197.26C57.6764 198.12 58.561 198.838 59.5531 199.378H59.578ZM199.174 174.829C199.479 176.729 199.934 178.318 201.566 179.277C203.198 180.236 206.736 180.741 208.592 180.317C205.241 178.863 202.071 177.021 199.149 174.829H199.174ZM145.896 107.149C144.475 107.149 143.964 107.772 144.257 109.174C144.397 109.74 144.674 110.263 145.062 110.697C145.451 111.131 145.94 111.464 146.487 111.665C146.54 111.695 146.598 111.713 146.658 111.72C146.718 111.726 146.778 111.72 146.836 111.703C147.524 111.211 148.055 110.529 148.362 109.741C148.33 109.085 148.063 108.463 147.61 107.987C147.157 107.511 146.549 107.214 145.896 107.149ZM156.062 174.281C155.98 176.512 155.703 178.732 155.233 180.915C154.928 182.304 154.922 182.292 156.323 182.304C156.709 182.304 156.834 182.236 156.79 181.812C156.666 180.498 156.585 179.183 156.498 177.869C156.44 176.664 156.294 175.465 156.062 174.281ZM252.676 230.082C253.942 227.262 254.589 224.203 254.576 221.112C254.362 221.165 254.172 221.286 254.034 221.457C253.895 221.628 253.817 221.839 253.81 222.059C253.778 222.526 253.697 222.993 253.629 223.46L252.676 230.082Z" fill="#FE6C02"/>
<path d="M57.9273 201.197C59.0672 201.745 60.1698 202.387 61.4779 202.48C61.7209 202.48 61.833 202.736 61.9825 202.898C62.4567 203.44 63.0492 203.866 63.7142 204.144C63.9794 204.267 64.2679 204.333 64.5605 204.336C64.8531 204.34 65.1431 204.281 65.4112 204.164C65.6793 204.047 65.9194 203.874 66.1155 203.656C66.3116 203.439 66.4592 203.183 66.5485 202.904C66.8432 201.889 66.8646 200.815 66.6108 199.789C66.374 198.462 66.0367 197.154 65.6016 195.878C67.0966 196.033 68.5231 196.17 69.9621 196.357C70.4292 196.413 70.7033 196.837 70.9899 197.173C72.0223 198.524 73.3221 199.648 74.8083 200.475C75.1011 200.618 75.126 200.761 75.0077 201.054C72.9645 205.969 73.8864 210.541 76.6086 214.901C76.9093 215.476 77.2728 216.015 77.6924 216.509C77.9354 216.758 78.1908 217.094 78.5708 216.907C78.9507 216.72 78.8573 216.284 78.7701 215.967C78.3839 214.577 78.2468 213.139 77.6738 211.793C76.437 209.048 76.1012 205.982 76.7145 203.035C76.8266 202.524 77.0197 202.032 77.1443 201.527C77.1688 201.382 77.2339 201.246 77.3319 201.136C77.43 201.026 77.5571 200.946 77.6987 200.904C78.3839 200.643 78.4524 200.126 77.8793 199.659C77.5629 199.417 77.2227 199.208 76.864 199.036C75.3347 198.306 73.9891 197.242 72.9271 195.921C72.4287 195.266 71.7865 194.733 71.05 194.365C70.3135 193.997 69.5023 193.802 68.6788 193.797C67.482 193.78 66.2989 193.539 65.1905 193.087C64.5527 192.827 63.9854 192.421 63.535 191.9C63.0846 191.379 62.7639 190.759 62.5992 190.091C62.4123 189.349 62.6802 188.926 63.4152 188.938C65.7262 188.994 68.0372 188.695 70.3483 188.988C71.5336 189.139 72.6914 189.458 73.7868 189.935C77.1817 191.417 80.5641 192.944 83.9652 194.414C85.129 194.885 86.0751 195.774 86.6188 196.905C87.5651 198.774 88.7525 200.51 90.1508 202.069C91.2082 203.194 92.0288 204.519 92.5638 205.967C93.0989 207.415 93.3374 208.956 93.2654 210.497C93.0287 214.453 94.1001 217.972 95.4767 221.56C97.7317 227.385 99.7437 233.296 101.706 239.22C102.582 241.549 103.662 243.796 104.933 245.935C106.907 249.373 108.256 253.133 108.919 257.042C109.193 258.861 109.374 260.692 109.586 262.523C109.615 262.969 109.712 263.408 109.872 263.825C110.027 264.194 110.286 264.508 110.619 264.73C110.951 264.952 111.342 265.07 111.741 265.071C112.153 265.032 112.542 264.863 112.852 264.589C113.162 264.315 113.377 263.949 113.467 263.545C113.716 262.573 113.467 261.608 113.379 260.648C113.208 258.166 112.884 255.697 112.408 253.254C112.333 252.838 112.41 252.409 112.626 252.046C113.928 249.467 115.385 246.975 116.513 244.316C116.868 243.468 117.198 242.609 117.484 241.737C117.927 240.429 118.961 239.419 119.353 238.093C120.91 232.76 123.851 227.983 125.47 222.682C126.859 218.153 128.853 213.855 130.553 209.445C132.503 204.411 134.291 199.316 136.016 194.196C136.586 192.335 137.482 190.59 138.664 189.044C139.605 187.845 140.805 186.873 142.173 186.202C143.542 185.53 145.044 185.175 146.568 185.163C149.084 185.137 151.599 185.264 154.099 185.543C156.054 185.766 158.027 185.782 159.986 185.593C161.855 185.363 163.642 184.864 165.019 183.488C165.275 183.637 165.25 183.861 165.324 184.042C165.453 184.406 165.691 184.72 166.005 184.944C166.32 185.167 166.695 185.287 167.081 185.288C167.463 185.286 167.834 185.165 168.143 184.941C168.453 184.718 168.684 184.404 168.806 184.042C168.93 183.745 169.002 183.429 169.018 183.108C169.17 180.769 169.004 178.42 168.526 176.125C168.104 174.329 167.329 172.635 166.246 171.142C165.754 170.425 165.281 169.69 164.814 168.955C164.701 168.781 164.434 168.6 164.583 168.382C164.733 168.164 165 168.313 165.206 168.326C169.13 168.525 173.061 168.438 176.83 167.292C181.707 165.809 186.578 164.296 191.356 162.502C191.861 162.309 191.942 162.365 192.097 162.894C193.015 166.107 194.457 169.146 196.364 171.889C196.485 172.027 196.572 172.191 196.617 172.368C196.663 172.546 196.666 172.732 196.626 172.911C195.417 178.193 198.003 182.254 203.353 183.5C205.932 184.092 208.549 183.992 211.159 183.88C216.883 183.631 222.552 182.746 228.276 182.591C232.081 182.414 235.892 182.751 239.607 183.594C241.757 184.093 243.698 185.251 245.157 186.908C245.948 187.805 246.814 188.633 247.649 189.48C249.381 191.224 250.34 193.411 251.162 195.666C252.801 200.163 254.239 204.717 254.831 209.488C255.127 211.176 254.985 212.911 254.42 214.528C254.183 214.191 254.183 213.674 253.679 213.73C253.174 213.786 253.087 214.173 252.963 214.521C252.701 215.269 252.464 216.029 252.252 216.795C252.13 217.46 251.88 218.094 251.517 218.664C251.162 219.15 251.349 219.779 251.281 220.339C250.901 223.255 250.172 226.101 249.586 228.973C246.553 243.742 243.538 258.512 240.828 273.343C239.514 280.538 238.037 287.671 236.262 294.803C235.639 297.407 234.792 299.954 234.144 302.558H210.392C210.884 302.197 210.978 301.898 210.262 301.73C209.738 301.605 209.639 301.275 209.639 300.746C210.436 290.443 211.217 280.142 211.981 269.843C212.51 262.766 213.096 255.696 213.85 248.663C214.472 242.97 215.17 237.295 215.824 231.608C216.368 227.759 216.651 223.878 216.671 219.991C216.719 218.568 216.486 217.15 215.986 215.817C215.799 215.387 215.644 214.702 215.095 214.771C214.691 214.827 214.722 215.518 214.647 215.923C214.149 218.595 213.924 221.299 213.575 224.021C213.314 226.047 213.046 228.07 212.772 230.088C212.735 230.362 212.741 230.624 212.305 230.711C209.639 231.303 206.979 231.913 204.331 232.58C200.725 233.598 197.188 234.846 193.742 236.317C192.882 236.654 191.991 236.897 191.126 237.202C190.546 237.407 190.372 237.252 190.503 236.629C190.839 234.792 191.4 233.003 192.172 231.303C192.515 230.505 192.839 229.696 193.131 228.873C193.232 228.568 193.287 228.248 193.293 227.927C193.327 227.727 193.298 227.522 193.21 227.34C193.122 227.158 192.979 227.008 192.801 226.911C192.617 226.831 192.414 226.808 192.217 226.843C192.019 226.878 191.837 226.972 191.692 227.111C191.371 227.347 191.089 227.633 190.858 227.958C189.686 229.541 188.746 231.285 188.067 233.134C188.023 233.246 187.961 233.352 187.886 233.514C187.351 233.072 186.852 232.636 186.329 232.268C185.843 231.874 185.275 231.593 184.666 231.446C184.351 231.355 184.015 231.368 183.709 231.484C183.403 231.6 183.142 231.812 182.966 232.089C182.791 232.366 182.71 232.692 182.736 233.018C182.761 233.345 182.892 233.654 183.109 233.9C183.408 234.264 183.761 234.582 184.155 234.841C184.95 235.365 185.61 236.069 186.08 236.897L183.694 236.155C178.53 234.579 173.285 233.446 167.86 233.464C164.122 233.464 160.509 233.969 157.195 235.856C157.108 235.865 157.021 235.865 156.934 235.856C157.239 234.436 156.903 232.991 157.363 231.602C157.469 231.347 157.506 231.069 157.473 230.795C157.439 230.521 157.335 230.26 157.17 230.038C156.858 229.616 156.7 229.099 156.722 228.574C156.667 227.256 156.508 225.944 156.248 224.65C156.17 224.183 156.01 223.734 155.775 223.323C155.694 223.152 155.564 223.01 155.4 222.915C155.236 222.821 155.048 222.778 154.859 222.794C154.673 222.817 154.499 222.899 154.362 223.028C154.226 223.157 154.134 223.325 154.099 223.51C153.866 224.453 153.753 225.423 153.763 226.394C153.701 227.24 153.688 228.089 153.726 228.936C153.775 229.884 153.508 230.822 152.966 231.602C150.995 234.686 149.304 237.94 147.914 241.326C147.034 243.252 146.018 245.113 144.874 246.894C143.448 249.324 142.513 252.002 140.999 254.369C139.797 256.238 138.751 258.238 137.673 260.2C136.47 262.352 135.055 264.378 133.45 266.248C130.958 269.226 128.716 272.403 126.199 275.355C123.682 278.308 121.135 281.335 117.964 283.671C115.229 285.69 112.183 287.085 108.72 287.029C107.048 287.014 105.4 286.631 103.893 285.908C102.386 285.185 101.056 284.138 99.9991 282.843C97.1199 279.492 94.876 275.643 93.3775 271.487C92.4556 268.908 91.1412 266.504 90.3999 263.838C88.9922 258.854 87.7276 253.821 86.6624 248.751C85.5543 243.617 84.0186 238.585 82.0716 233.707C80.5214 229.73 78.2181 226.09 75.288 222.987C73.9983 221.632 72.8714 220.131 71.9305 218.514C71.1258 217.196 70.1659 215.979 69.0713 214.889C65.6016 211.282 62.5182 207.333 59.2915 203.514C58.6696 202.868 58.1732 202.112 57.8276 201.284C57.8639 201.259 57.8973 201.23 57.9273 201.197ZM216.877 223.535C216.927 224.831 216.559 226.108 216.715 227.547C216.984 226.227 217.039 224.872 216.877 223.535Z" fill="#FEE0CB"/>
<path d="M281.81 302.571C281.747 301.576 281.537 300.595 281.187 299.662C280.533 297.363 279.848 295.077 278.409 293.109C278.222 292.853 278.116 292.611 278.371 292.305C279.313 291.143 280.065 289.84 280.601 288.443C281.741 285.671 283.716 283.647 286.046 281.871C288.743 279.835 291.565 277.96 294.106 275.723C294.237 275.611 294.393 275.53 294.729 275.312C294.33 276.334 294.013 277.181 293.683 278.009C291.459 283.616 289.216 289.222 287.005 294.828C286.446 296.239 285.974 297.683 285.591 299.151C285.485 299.562 285.279 300.179 285.691 300.397C286.102 300.615 286.494 300.054 286.75 299.668C289.029 296.261 290.643 292.511 292.25 288.761C294.243 284.12 295.782 279.305 297.607 274.602C298.419 272.631 299.438 270.752 300.647 268.996C302.352 266.619 303.654 263.978 304.503 261.178C304.967 259.215 305.054 257.181 304.758 255.186C304.609 253.909 304.403 252.632 304.197 251.361C304.125 250.815 303.929 250.293 303.624 249.835C303.506 249.628 303.331 249.46 303.121 249.349C302.91 249.239 302.672 249.191 302.435 249.212C302.196 249.235 301.971 249.331 301.789 249.485C301.606 249.64 301.475 249.847 301.413 250.078C301.201 250.636 301.082 251.225 301.058 251.822C301.028 253.614 301.088 255.406 301.239 257.192C301.413 259.97 300.423 262.461 299.401 264.953C299.158 265.576 298.89 266.143 298.653 266.741C298.231 267.776 297.62 268.724 296.853 269.538C294.362 272.272 291.303 274.259 288.251 276.278C285.56 277.934 283.026 279.834 280.682 281.952C279.235 283.435 278.092 285.188 277.319 287.11C276.871 288.108 276.334 289.063 275.711 289.963C275.549 290.194 275.412 290.343 275.089 290.175C272.236 288.524 269.451 289.359 266.704 290.468C263.864 291.608 261.148 293.028 258.401 294.38C254.233 296.486 249.786 297.986 245.195 298.833C244.735 298.93 244.257 298.875 243.831 298.678C242.653 298.142 241.47 297.625 240.28 297.114C239.881 296.946 239.819 296.728 239.925 296.304C241.258 291.01 242.46 285.677 243.469 280.308C244.522 274.702 245.531 269.133 246.584 263.545C247.319 259.571 248.062 255.595 248.814 251.616C249.555 247.642 250.309 243.668 251.031 239.688C251.187 238.815 251.947 238.442 252.408 237.819C254.738 234.661 256.955 231.459 257.84 227.547C258.357 225.273 258.774 222.975 259.136 220.695C259.162 220.532 259.249 220.386 259.379 220.284C259.484 221.212 259.64 222.152 259.69 223.074C259.883 226.257 259.945 229.441 259.833 232.624C259.672 235.922 259.303 239.207 258.731 242.46C258.5 243.88 258.257 245.3 258.077 246.727C257.997 247.467 257.654 248.154 257.111 248.664C255.617 249.982 254.254 251.442 253.044 253.024C251.467 255.221 250.515 257.804 250.29 260.499C250.2 262.154 250.675 263.79 251.636 265.14C252.122 265.887 252.688 266.585 253.218 267.308C253.286 267.412 253.378 267.5 253.486 267.563C253.754 267.706 254.028 268.049 254.339 267.812C254.458 267.699 254.541 267.555 254.58 267.396C254.619 267.237 254.611 267.07 254.557 266.915C254.377 266.218 254.246 265.507 254.003 264.828C252.707 261.259 253.878 258.107 256.09 255.485C259.205 251.816 262.604 248.398 266.256 245.263C266.745 244.877 267.209 244.461 267.645 244.017C269.806 241.581 272.466 239.725 274.951 237.676C276.782 236.061 278.389 234.209 279.729 232.169C279.816 232.044 279.904 231.926 279.997 231.808C280.091 231.689 280.078 231.77 280.19 231.727C280.053 233.558 279.785 235.378 279.387 237.171C278.631 240.268 277.415 243.235 275.78 245.973C273.568 249.706 272.126 253.845 271.538 258.145C271.358 259.783 271.525 261.441 272.03 263.01C272.142 263.383 272.211 263.882 272.709 263.882C273.207 263.882 273.332 263.396 273.438 262.985C273.743 261.502 274.061 260.013 274.322 258.531C275.152 254.401 276.637 250.431 278.72 246.77C280.209 244.12 281.251 241.243 281.804 238.255C281.834 238.085 281.874 237.916 281.922 237.75C282.258 236.673 282.296 236.704 283.168 237.364C286.322 239.757 289.603 241.978 292.997 244.017C295.072 245.263 297.42 245.468 299.694 245.948C301.812 246.403 303.948 245.948 306.079 245.861C308.189 245.722 310.308 245.781 312.407 246.035C318.944 247.059 325.328 248.892 331.413 251.492C335.031 252.975 338.431 254.945 341.516 257.347C341.726 257.561 341.999 257.703 342.295 257.752C342.295 259.92 342.295 262.113 342.295 264.249V295.974C342.295 296.292 342.258 296.597 342.239 296.94C342.164 296.884 342.052 296.84 342.015 296.765C340.376 293.775 338.477 290.947 336.683 288.045C335.384 285.805 333.778 283.758 331.911 281.965C330.995 281.13 330.042 280.308 329.133 279.473C327.247 277.7 325.076 276.257 322.71 275.206C320.354 274.277 317.93 273.528 315.46 272.964C313.81 272.493 312.105 272.245 310.389 272.229C309.42 272.192 308.472 272.523 307.735 273.155C306.999 273.786 306.527 274.672 306.415 275.636C306.128 277.268 306.614 278.788 307.187 280.277C308.253 283.036 309.922 285.453 311.548 287.92C314.525 292.548 317.603 297.089 321.782 300.765C322.478 301.284 323.106 301.889 323.651 302.565L281.81 302.571Z" fill="#FEA86A"/>
<path d="M342.289 300.608V302.57H327.339C327.128 301.75 326.753 300.981 326.236 300.309C325.666 299.555 325.041 298.843 324.368 298.179C322.635 296.5 321.02 294.703 319.534 292.803C317.154 289.689 315.173 286.343 312.974 283.104C312.209 281.97 311.538 280.774 310.969 279.529C310.485 278.574 310.156 277.548 309.997 276.489C309.941 275.972 310.178 275.754 310.651 275.704C311.146 275.665 311.643 275.7 312.127 275.81C317.422 276.775 322.623 277.953 326.691 281.871C328.342 283.453 330.204 284.811 331.575 286.674C333.792 289.695 335.624 292.99 338.084 295.849C339.492 297.45 340.8 299.113 342.289 300.608Z" fill="#FEA86A"/>
<path d="M342.289 300.609C340.8 299.114 339.492 297.45 338.121 295.85C335.63 292.99 333.829 289.695 331.612 286.674C330.241 284.805 328.379 283.453 326.728 281.871C322.661 277.953 317.459 276.776 312.164 275.81C311.681 275.701 311.183 275.665 310.688 275.704C310.215 275.754 309.978 275.972 310.034 276.489C310.194 277.548 310.522 278.574 311.006 279.529C311.575 280.774 312.246 281.97 313.012 283.105C315.192 286.344 317.191 289.701 319.571 292.803C321.066 294.716 322.692 296.522 324.436 298.21C325.109 298.875 325.734 299.587 326.305 300.341C326.821 301.012 327.196 301.781 327.407 302.602H323.67C323.124 301.926 322.496 301.322 321.801 300.802C317.621 297.126 314.544 292.585 311.566 287.957C309.972 285.465 308.302 283.073 307.206 280.314C306.633 278.825 306.147 277.305 306.434 275.673C306.546 274.709 307.017 273.823 307.754 273.192C308.491 272.56 309.438 272.23 310.408 272.266C312.123 272.283 313.829 272.53 315.478 273.001C317.948 273.565 320.372 274.314 322.729 275.243C325.095 276.294 327.266 277.737 329.151 279.51C330.08 280.333 331.02 281.155 331.93 282.002C333.797 283.796 335.403 285.842 336.701 288.082C338.495 290.972 340.395 293.8 342.033 296.803C342.071 296.877 342.183 296.921 342.258 296.977C342.331 298.186 342.342 299.398 342.289 300.609Z" fill="#FE6C02"/>
<path d="M238.181 302.571C238.38 301.904 238.567 301.238 238.804 300.571C239.04 299.905 239.427 300.403 239.744 300.478C240.062 300.552 240.461 300.59 240.205 301.157C239.788 302.079 240.031 302.403 241.071 302.403C242.407 302.304 243.732 302.096 245.033 301.78C248.061 301.372 251.027 300.594 253.866 299.462C256.94 298.115 259.933 296.591 262.83 294.896C264.985 293.651 267.146 292.436 269.65 292.006C270.883 291.814 272.145 291.985 273.282 292.498C273.768 292.704 273.787 292.947 273.631 293.426C272.684 295.997 272.79 298.837 273.924 301.331C274.145 301.745 274.392 302.145 274.665 302.527L238.181 302.571Z" fill="#FEA86A"/>
<path d="M276.129 302.571C276.565 301.475 276.434 300.322 276.446 299.182C276.354 297.933 276.419 296.678 276.64 295.445C277.326 296.204 277.922 297.04 278.415 297.936C279.113 299.108 279.76 300.316 280.446 301.5C280.67 301.88 280.956 302.228 281.212 302.596L276.129 302.571Z" fill="#FEA86A"/>
<path d="M128.142 120.916C128.945 118.118 129.589 115.277 130.073 112.407C130.449 109.767 130.557 107.095 130.397 104.433C130.397 104.066 130.298 103.873 130.858 103.929C131.86 103.946 132.846 103.683 133.705 103.169C134.951 102.546 136.197 101.873 137.405 101.232C138.69 100.485 140.107 99.992 141.579 99.7803C141 100.344 140.461 100.948 139.965 101.587C137.866 104.552 137.474 107.722 138.956 111.043C139.909 113.192 141.722 114.157 144.008 114.3C145.118 114.443 146.245 114.227 147.224 113.685C148.203 113.143 148.984 112.302 149.452 111.286C150.324 109.66 150.923 107.903 151.228 106.084C151.267 105.838 151.324 105.594 151.396 105.355C151.454 105.216 151.525 105.083 151.608 104.957C151.95 106.016 152.231 106.938 152.555 107.866C152.62 108.105 152.705 108.338 152.81 108.563C152.888 108.723 153.022 108.848 153.186 108.915C153.35 108.983 153.533 108.989 153.701 108.931C153.788 108.915 153.871 108.881 153.945 108.832C154.02 108.784 154.084 108.721 154.133 108.647C154.183 108.573 154.218 108.491 154.236 108.404C154.253 108.317 154.254 108.227 154.236 108.14C153.95 105.542 153.526 102.995 151.477 101.082C149.191 98.9643 146.73 97.1329 143.591 96.4601C140.837 95.8119 137.954 95.9873 135.3 96.9647C134.413 97.2437 133.628 97.779 133.045 98.5033C132.889 98.7151 132.652 98.9643 132.839 99.2321C133.026 99.5 133.381 99.3567 133.637 99.2321C135.474 98.2184 137.52 97.6429 139.617 97.5502C139.791 97.5502 139.965 97.5502 140.14 97.5502C140.264 97.5646 140.387 97.5875 140.507 97.6188C136.77 98.5905 133.805 101.007 130.198 102.035C129.669 98.5319 129.504 94.983 129.706 91.4457C129.975 87.2099 130.712 83.017 131.905 78.9437C133.879 72.3782 138.022 67.4073 143.441 63.3708C146.457 61.0075 150.073 59.532 153.881 59.1101C157.208 58.8048 160.497 58.9294 163.568 60.5116C164.219 60.8265 164.804 61.2619 165.293 61.7948C165.92 62.5955 166.762 63.2008 167.721 63.5395C168.68 63.8783 169.716 63.9364 170.706 63.7072C172.052 63.4393 172.943 63.9813 173.597 65.1337C175.676 68.7802 176.883 72.8589 177.122 77.0501C177.327 81.3325 176.943 85.6228 175.982 89.8012C175.758 90.8663 175.609 91.9565 175.447 93.0341C175.391 93.4265 175.31 93.9249 175.752 94.0868C176.194 94.2488 176.406 93.8314 176.618 93.5262C178.768 90.5715 180.106 87.1051 180.499 83.4723C180.712 81.2418 180.727 78.9966 180.542 76.7635C180.393 75.038 180.71 73.3312 180.798 71.6182C180.916 69.3383 181.003 67.0585 180.922 64.7661C182.212 65.2209 188.665 72.0294 191.443 75.9288C194.396 80.0774 197.367 84.2261 199.279 89.0101C198.893 89.0747 198.497 89.009 198.152 88.8232C193.169 87.2721 188.067 87.1662 182.928 87.8888C182.308 87.9641 181.705 88.1453 181.146 88.4245C180.767 88.5624 180.456 88.8416 180.277 89.2038C180.099 89.5661 180.068 89.9832 180.19 90.3678C180.313 90.7525 180.579 91.075 180.934 91.2678C181.288 91.4605 181.704 91.5087 182.093 91.4021C183.227 91.209 184.361 91.0781 185.501 90.9598C190.715 90.3895 195.992 91.0028 200.936 92.7538C201.387 92.8911 201.776 93.1792 202.039 93.5698C203.627 95.9244 205.197 98.2853 206.842 100.603C209.333 104.116 212.828 106.053 217.026 106.788C217.413 106.857 217.568 106.956 217.599 107.361C218.053 111.705 217.328 116.09 215.5 120.056C215.373 120.297 215.259 120.545 215.158 120.797C215.048 121.04 215.031 121.314 215.11 121.568C215.19 121.822 215.359 122.037 215.587 122.174C215.804 122.328 216.068 122.399 216.333 122.374C216.597 122.349 216.843 122.229 217.026 122.037C217.141 121.939 217.243 121.829 217.332 121.707C219.599 118.75 221.866 115.785 224.134 112.812C224.402 112.45 224.9 112.021 224.483 111.566C224.065 111.111 223.536 111.497 223.125 111.765C222.144 112.491 221.268 113.348 220.521 114.313C219.985 114.936 219.443 115.559 218.752 116.325C219.2 113.117 219.717 110.127 218.752 107.05C221.426 107.251 224.115 107.1 226.75 106.601C226.75 106.95 226.507 107.087 226.389 107.293C226.261 107.48 226.186 107.698 226.173 107.924C226.16 108.15 226.209 108.375 226.314 108.576C226.569 109.031 227.049 108.968 227.454 108.869C228.088 108.695 228.712 108.487 229.323 108.246C230.222 107.883 231.144 107.579 232.082 107.336C232.822 107.152 233.597 107.16 234.332 107.361C235.068 107.562 235.739 107.949 236.282 108.485C236.825 109.02 237.221 109.686 237.433 110.419C237.644 111.151 237.664 111.926 237.489 112.668C236.592 117.072 235.153 121.315 233.845 125.594C232.805 129.001 231.846 132.446 231.036 135.891C230.998 136.105 230.913 136.309 230.787 136.486C230.661 136.664 230.497 136.812 230.307 136.919C229.472 137.448 228.706 138.102 227.915 138.706C225.256 140.708 222.113 141.968 218.808 142.357C217.529 142.536 216.236 142.594 214.946 142.531C214.466 142.531 214.41 142.375 214.597 141.964C215.268 140.434 215.708 138.814 215.905 137.155C215.961 136.707 216.148 136.059 215.631 135.878C215.114 135.698 214.871 136.302 214.634 136.694C213.459 138.906 212.155 141.046 210.729 143.104C207.714 147.116 204.306 150.685 199.965 153.314C196.794 155.232 193.829 157.494 190.434 159.032C187.818 160.209 185.027 160.901 182.299 161.767C180.218 162.427 178.169 163.224 176.07 163.76C172.833 164.495 169.503 164.726 166.196 164.445C159.602 164.056 153.111 162.622 146.967 160.197C142.737 158.546 139.143 155.837 135.686 152.984C131.148 149.148 127.803 144.095 126.043 138.42C124.797 134.726 125.383 130.988 126.33 127.307C126.504 127.307 126.579 127.419 126.604 127.6C127.04 130.795 129.021 132.72 131.855 133.885C134.23 134.921 136.848 135.269 139.411 134.888C141.529 134.551 143.585 133.953 145.017 132.141C147.945 128.403 147.179 124.174 143.977 121.028C141.921 119.016 139.23 118.25 136.44 118.069C135.032 117.92 133.61 118.076 132.268 118.526C130.927 118.977 129.698 119.711 128.666 120.679C128.52 120.81 128.337 120.893 128.142 120.916ZM187.419 103.474C189.515 102.943 191.718 103.007 193.779 103.661C196.613 104.552 198.762 106.427 200.768 108.482C201.036 108.75 201.31 109.305 201.696 109.049C202.083 108.794 201.696 108.333 201.528 108.009C200.195 105.349 197.895 103.299 195.1 102.278C189.824 100.135 184.865 101.138 180.256 104.284C179.467 104.844 178.649 105.364 177.808 105.841C176.046 106.792 174.446 108.016 173.067 109.467C172.649 109.857 172.297 110.314 172.027 110.818C171.936 110.956 171.898 111.122 171.92 111.286C171.941 111.45 172.022 111.6 172.145 111.709C172.27 111.796 172.42 111.84 172.572 111.833C172.724 111.826 172.87 111.77 172.986 111.672C173.229 111.504 173.466 111.317 173.696 111.124C174.726 110.223 175.821 109.4 176.973 108.663C179.757 106.938 182.729 105.835 186.055 105.941C186.373 105.941 186.802 105.841 186.964 106.128C187.126 106.414 186.746 106.645 186.591 106.882C185.613 108.408 184.535 109.878 183.626 111.448C181.695 114.78 182.106 118.007 184.653 120.847C185.332 121.602 186.193 122.171 187.153 122.498C188.114 122.825 189.143 122.9 190.141 122.716C192.87 122.373 196.084 119.153 196.782 116.306C196.995 115.213 197.1 114.1 197.093 112.986C198.14 113.802 199.111 114.531 200.046 115.303C200.894 116.069 201.959 116.553 203.094 116.686C204.229 116.82 205.378 116.598 206.381 116.051C206.748 115.876 207.384 115.746 207.296 115.322C207.209 114.898 206.574 114.973 206.138 114.973C204.836 114.973 203.472 114.973 202.4 114.132C200.754 112.885 199.235 111.479 197.865 109.934C195.521 107.062 192.384 104.941 188.846 103.835C188.416 103.649 187.911 103.568 187.394 103.449L187.419 103.474ZM182.299 134.209C182.295 134.754 182.322 135.299 182.38 135.841C183.04 139.086 185.357 140.625 188.26 141.509C189.992 142.035 191.813 142.201 193.611 141.995C195.573 141.784 197.386 141.248 198.8 139.865C199.857 138.898 200.665 137.691 201.155 136.345C201.645 134.999 201.803 133.555 201.615 132.135C201.505 131.106 201.121 130.126 200.503 129.297C199.885 128.467 199.056 127.819 198.102 127.419C195.756 126.32 193.169 125.831 190.584 125.999C188.834 126.046 187.134 126.583 185.675 127.55C184.582 128.264 183.695 129.253 183.102 130.417C182.51 131.581 182.233 132.88 182.299 134.184V134.209ZM163.574 144.861C164.683 144.861 165.767 144.649 166.857 144.568C169 144.406 170.85 143.403 172.693 142.425C173.776 141.812 174.956 141.39 176.182 141.179C176.67 141.087 177.149 140.953 177.614 140.781C177.994 140.656 178.331 140.432 178.237 139.977C178.144 139.522 177.733 139.491 177.334 139.529C177.041 139.529 176.742 139.603 176.45 139.61C172.769 139.658 169.104 139.122 165.592 138.021C162.87 137.198 160.015 136.907 157.183 137.162C156.223 137.243 155.264 137.423 154.311 137.429C152.523 137.429 150.742 137.249 149.253 136.053C148.961 135.823 148.643 135.629 148.306 135.473C148.137 135.384 147.939 135.364 147.755 135.416C147.571 135.468 147.414 135.589 147.316 135.754C147.206 135.894 147.152 136.07 147.164 136.248C147.175 136.426 147.251 136.594 147.378 136.719C147.6 136.953 147.846 137.162 148.113 137.342C150.648 139.211 153.296 140.868 155.956 142.525C158.335 143.995 160.927 144.45 163.574 144.836V144.861ZM140.974 79.6414C140.174 79.6689 139.376 79.7375 138.583 79.847C137.418 79.984 136.289 80.339 135.256 80.8935C134.895 81.0928 134.446 81.3046 134.527 81.8154C134.608 82.3262 135.032 82.3885 135.418 82.5006C136.045 82.6676 136.696 82.7245 137.343 82.6688C138.165 82.6189 138.981 82.5193 139.797 82.4943C143.273 82.3698 146.525 83.4163 149.764 84.5064C151.757 85.1729 153.501 86.3377 155.327 87.3656C156.417 87.9885 157.438 87.839 158.024 87.0541C158.307 86.6244 158.432 86.1093 158.376 85.5976C158.32 85.0859 158.088 84.6097 157.718 84.251C157.189 83.6973 156.554 83.2565 155.85 82.9553C151.116 80.6941 146.014 80.2955 140.974 79.6165V79.6414ZM158.771 124.903C158.566 124.899 158.364 124.956 158.191 125.067C158.018 125.178 157.882 125.337 157.799 125.525C157.663 125.795 157.616 126.102 157.667 126.4C157.717 126.698 157.862 126.973 158.08 127.182C159.076 128.391 160.117 129.549 161.07 130.795C161.184 130.968 161.332 131.116 161.506 131.23C161.679 131.344 161.874 131.421 162.078 131.456C162.282 131.492 162.491 131.485 162.693 131.437C162.895 131.389 163.084 131.3 163.25 131.175C163.873 130.714 163.991 129.967 163.53 129.101C162.744 127.588 161.584 126.302 160.16 125.363C159.754 125.071 159.271 124.902 158.771 124.878V124.903Z" fill="#FEE0CA"/>
<path d="M205.988 301.288C203.69 299.481 201.497 297.775 199.323 296.049C196.029 293.36 192.893 290.484 189.93 287.434C186.192 283.697 182.249 280.14 178.212 276.714C178.063 276.583 177.932 276.427 177.776 276.303C177.259 275.891 177.01 275.58 177.72 275.013C178.43 274.446 178.225 273.549 177.378 273.057C176.132 272.322 174.643 272.198 173.26 271.811C171.31 271.315 169.389 270.712 167.505 270.005C164.421 268.759 162.341 266.473 160.746 263.645C158.45 259.697 157.122 255.261 156.871 250.701C156.765 249.337 156.735 247.969 156.784 246.602C156.859 245.456 156.747 244.322 156.784 243.182C156.822 242.042 156.784 240.74 156.784 239.519C156.784 239.146 156.66 238.666 157.363 238.896C157.5 238.946 157.737 238.791 157.899 238.685C159.973 237.364 162.297 236.891 164.689 236.654C171.329 235.994 177.596 237.694 183.812 239.719C185.328 240.278 186.905 240.655 188.509 240.84C190.602 241.014 192.54 240.385 194.446 239.632C198.445 238.056 202.4 236.361 206.617 235.414C208.146 234.972 209.724 234.727 211.314 234.686C211.869 234.686 212.074 234.754 211.975 235.439C211.46 238.998 210.988 242.563 210.561 246.135C210.137 249.629 209.769 253.136 209.396 256.637C209.259 257.92 209.171 259.21 209.066 260.493C208.723 264.505 208.368 268.516 208.05 272.528C207.813 275.468 207.633 278.421 207.427 281.367C207.153 284.98 206.842 288.587 206.574 292.199C206.437 294.068 206.35 295.968 206.237 297.856C206.138 298.958 206.082 300.042 205.988 301.288Z" fill="#FEA86A"/>
<path d="M128.142 120.916C128.339 120.888 128.522 120.798 128.666 120.66C129.696 119.701 130.921 118.974 132.257 118.528C133.592 118.082 135.008 117.928 136.409 118.075C139.199 118.256 141.89 119.022 143.946 121.034C147.148 124.18 147.914 128.422 144.986 132.147C143.56 133.96 141.504 134.558 139.38 134.894C136.817 135.275 134.199 134.928 131.824 133.891C128.99 132.726 127.009 130.777 126.573 127.606C126.573 127.425 126.473 127.332 126.299 127.313C126.822 125.152 127.482 123.034 128.142 120.916ZM134.372 123.183C134.34 122.442 134.21 121.888 133.537 121.701C133.255 121.626 132.956 121.657 132.696 121.79C132.436 121.922 132.234 122.145 132.129 122.417C131.276 124.018 130.435 125.625 129.637 127.245C129.544 127.408 129.483 127.589 129.459 127.776C129.435 127.963 129.449 128.153 129.498 128.335C129.547 128.516 129.632 128.687 129.748 128.836C129.863 128.985 130.006 129.11 130.17 129.204C130.334 129.297 130.514 129.358 130.701 129.382C130.888 129.406 131.078 129.393 131.26 129.343C131.442 129.294 131.612 129.209 131.761 129.094C131.91 128.978 132.035 128.835 132.129 128.671C133.012 127.325 133.692 125.855 134.147 124.311C134.203 123.881 134.278 123.47 134.347 123.171L134.372 123.183ZM140.869 123.806C140.831 123.432 140.794 123.077 140.433 122.89C140.261 122.807 140.066 122.785 139.88 122.828C139.694 122.871 139.529 122.977 139.411 123.127C139.174 123.355 138.965 123.61 138.788 123.887C138.116 125.023 137.539 126.213 137.063 127.444C136.965 127.626 136.908 127.826 136.893 128.032C136.879 128.238 136.907 128.445 136.978 128.638C137.048 128.832 137.159 129.009 137.302 129.158C137.446 129.306 137.619 129.423 137.81 129.5C138.67 129.786 139.467 129.244 139.71 128.21C139.922 127.313 140.127 126.416 140.333 125.525C140.501 124.959 140.676 124.417 140.844 123.794L140.869 123.806Z" fill="#FEC8A2"/>
<path d="M83.0806 191.119C80.7198 190.072 78.4461 189.125 76.2286 188.079C73.3948 186.697 70.2486 186.08 67.1028 186.291C66.1996 186.36 65.3275 186.142 64.4305 186.142C64.2 186.142 64.1066 186.067 64.1938 185.836C64.742 184.379 64.1938 182.983 63.9197 181.582C63.1598 177.925 61.8641 174.418 60.8051 170.843C60.3748 169.538 60.1828 168.167 60.2383 166.794C60.2819 166.171 60.2881 165.38 60.9609 165.218C61.6336 165.056 61.8952 165.779 62.1756 166.258C63.3656 168.525 64.41 170.866 65.3026 173.266C66.6045 176.337 67.7943 179.458 69.2083 182.473C69.67 183.591 70.3474 184.607 71.2016 185.463C71.682 185.961 72.3215 186.277 73.0096 186.354C73.6977 186.431 74.3912 186.266 74.9703 185.886C75.1043 185.778 75.2623 185.703 75.4312 185.668C76.5462 185.668 76.9574 184.921 77.1193 184.005C77.7423 180.604 78.4897 177.215 78.7701 173.771C79.013 170.712 79.9038 167.834 80.7136 164.919C80.8319 164.477 80.8818 163.76 81.5109 163.835C82.14 163.91 82.0964 164.595 82.1338 165.081C82.2549 165.968 82.3049 166.864 82.2833 167.759C82.0902 172.743 82.3518 177.763 82.4764 182.765C82.5167 185.559 82.7184 188.348 83.0806 191.119Z" fill="#FEE0CA"/>
<path d="M59.1857 181.756C59.798 181.736 60.3962 181.942 60.8662 182.335C61.3362 182.728 61.6449 183.281 61.7334 183.887C61.8214 184.681 62.0315 185.456 62.3563 186.185C62.4996 186.466 62.4373 186.565 62.1445 186.646C60.444 187.101 59.547 188.714 60.1823 190.92C60.643 192.541 61.6854 193.936 63.11 194.838C63.2414 194.902 63.3569 194.995 63.4484 195.109C63.5399 195.223 63.6051 195.356 63.6395 195.498C63.9759 197.155 64.3434 198.806 64.6736 200.481C64.7732 200.986 64.9788 201.777 64.5864 201.945C64.0569 202.169 63.7143 201.428 63.4215 201.011C61.6161 198.266 60.1833 195.294 59.1608 192.172C58.3869 190.072 57.8276 187.899 57.4913 185.687C57.3359 184.785 57.3656 183.861 57.5785 182.971C57.6342 182.599 57.8336 182.263 58.1341 182.036C58.4346 181.809 58.8121 181.708 59.1857 181.756Z" fill="#FEE0CA"/>
<path d="M59.553 199.378C58.5588 198.838 57.672 198.121 56.9368 197.261C55.5874 195.73 54.4708 194.009 53.6229 192.153C53.2225 191.374 53.0806 190.488 53.218 189.624C53.3024 189.165 53.5279 188.745 53.863 188.421C54.198 188.097 54.6258 187.886 55.0867 187.817C55.3421 187.78 55.5601 187.736 55.6411 188.104C56.4924 191.961 57.8299 195.696 59.6216 199.216C59.6216 199.216 59.5904 199.26 59.553 199.378Z" fill="#FEE0CA"/>
<path d="M252.676 230.082L253.629 223.46C253.698 222.993 253.779 222.526 253.81 222.059C253.817 221.839 253.896 221.628 254.034 221.457C254.172 221.286 254.363 221.165 254.576 221.112C254.589 224.203 253.942 227.261 252.676 230.082Z" fill="#FEE0CB"/>
<path d="M57.8276 201.285C57.8276 201.285 57.7466 201.197 57.7528 201.185C57.8089 201.079 57.865 201.148 57.921 201.185C57.8936 201.221 57.8623 201.255 57.8276 201.285Z" fill="#FEE0CB"/>
<path d="M216.877 223.535C217.039 224.872 216.984 226.227 216.715 227.547C216.559 226.108 216.927 224.831 216.877 223.535Z" fill="#FEC8A2"/>
<path d="M187.394 103.449C187.886 103.568 188.391 103.648 188.871 103.804C192.409 104.91 195.546 107.031 197.89 109.903C199.26 111.448 200.779 112.854 202.425 114.101C203.472 114.967 204.836 114.942 206.163 114.942C206.599 114.942 207.222 114.792 207.321 115.291C207.421 115.789 206.773 115.845 206.406 116.02C205.402 116.567 204.254 116.789 203.119 116.655C201.984 116.521 200.919 116.038 200.071 115.272C199.136 114.5 198.164 113.771 197.118 112.955C197.125 114.069 197.02 115.181 196.807 116.275C196.109 119.122 192.895 122.342 190.166 122.685C189.168 122.869 188.139 122.794 187.178 122.467C186.217 122.14 185.357 121.571 184.678 120.816C182.131 117.976 181.719 114.749 183.651 111.416C184.56 109.847 185.638 108.376 186.616 106.85C186.771 106.614 187.133 106.352 186.989 106.097C186.846 105.841 186.398 105.922 186.08 105.91C182.754 105.804 179.782 106.906 176.998 108.632C175.846 109.369 174.75 110.192 173.721 111.092C173.491 111.285 173.254 111.472 173.011 111.641C172.895 111.738 172.749 111.795 172.597 111.802C172.445 111.809 172.295 111.765 172.17 111.678C172.046 111.569 171.966 111.418 171.945 111.255C171.923 111.091 171.961 110.925 172.052 110.787C172.317 110.295 172.66 109.85 173.067 109.467C174.438 108.015 176.029 106.79 177.783 105.835C178.625 105.358 179.442 104.838 180.231 104.278C184.84 101.163 189.799 100.129 195.075 102.272C197.87 103.292 200.17 105.343 201.503 108.003C201.659 108.327 202.058 108.8 201.671 109.043C201.285 109.286 201.011 108.744 200.743 108.476C198.725 106.42 196.588 104.545 193.754 103.655C191.695 102.995 189.492 102.924 187.394 103.449ZM191.487 115.11C191.284 115.117 191.085 115.168 190.903 115.26C190.722 115.351 190.563 115.481 190.437 115.641C190.311 115.801 190.222 115.986 190.175 116.183C190.128 116.381 190.125 116.587 190.166 116.786C190.305 117.263 190.555 117.701 190.895 118.063C192.234 119.633 191.804 119.707 193.387 118.187C193.605 117.976 193.904 117.782 193.879 117.402C193.866 116.574 192.378 115.129 191.512 115.11H191.487Z" fill="#FE6C02"/>
<path d="M182.299 134.184C182.23 132.876 182.505 131.574 183.098 130.406C183.69 129.239 184.579 128.247 185.675 127.531C187.134 126.565 188.834 126.027 190.584 125.98C193.169 125.812 195.756 126.301 198.102 127.4C199.056 127.8 199.885 128.449 200.503 129.278C201.121 130.107 201.505 131.087 201.615 132.116C201.803 133.536 201.645 134.98 201.155 136.326C200.665 137.672 199.857 138.88 198.8 139.846C197.386 141.229 195.573 141.765 193.611 141.977C191.813 142.182 189.992 142.017 188.26 141.491C185.357 140.606 183.04 139.068 182.38 135.822C182.322 135.278 182.295 134.731 182.299 134.184ZM198.32 131.599C198.32 131.175 198.32 130.633 197.697 130.403C197.074 130.172 196.645 130.534 196.283 130.957C196.009 131.279 195.775 131.632 195.586 132.01C194.767 133.657 194.24 135.434 194.028 137.261C193.968 137.697 194.077 138.14 194.333 138.498C194.589 138.856 194.973 139.102 195.405 139.186C195.61 139.204 195.817 139.181 196.013 139.118C196.209 139.056 196.391 138.955 196.548 138.822C196.705 138.689 196.834 138.525 196.928 138.342C197.021 138.159 197.077 137.958 197.093 137.753C197.299 136.507 197.523 135.311 197.834 134.109C198.106 133.297 198.27 132.453 198.32 131.599ZM186.429 137.46C186.698 137.423 186.953 137.318 187.171 137.156C187.389 136.994 187.562 136.779 187.675 136.532C188.44 134.909 189.116 133.246 189.699 131.549C189.787 131.324 189.798 131.076 189.73 130.844C189.663 130.612 189.52 130.408 189.325 130.266C189.142 130.114 188.919 130.018 188.682 129.99C188.446 129.961 188.207 130.001 187.992 130.104C187.605 130.276 187.276 130.557 187.045 130.914C186.13 132.427 185.46 134.075 185.058 135.797C185 136.001 184.992 136.216 185.035 136.424C185.079 136.631 185.172 136.825 185.306 136.989C185.441 137.153 185.614 137.281 185.809 137.363C186.005 137.445 186.217 137.479 186.429 137.46Z" fill="#FEC8A2"/>
<path d="M163.574 144.836C160.927 144.45 158.335 143.995 155.974 142.525C153.315 140.868 150.667 139.192 148.132 137.342C147.865 137.162 147.618 136.953 147.397 136.719C147.27 136.594 147.194 136.426 147.182 136.248C147.171 136.07 147.225 135.894 147.335 135.754C147.432 135.589 147.59 135.468 147.774 135.416C147.958 135.364 148.155 135.384 148.325 135.473C148.662 135.629 148.98 135.823 149.272 136.053C150.761 137.249 152.542 137.448 154.33 137.429C155.283 137.429 156.242 137.243 157.202 137.162C160.034 136.907 162.889 137.198 165.611 138.021C169.114 139.101 172.766 139.62 176.431 139.56C176.724 139.56 177.023 139.51 177.316 139.479C177.714 139.441 178.107 139.479 178.219 139.927C178.331 140.376 177.995 140.606 177.596 140.731C177.13 140.903 176.651 141.037 176.163 141.13C174.937 141.34 173.757 141.762 172.675 142.375C170.806 143.353 168.981 144.356 166.838 144.518C165.767 144.624 164.683 144.823 163.574 144.836ZM153.931 139.161C159.868 145.453 166.321 144.325 171.996 140.606C170.538 140.475 169.106 140.326 167.685 140.058C164.839 139.535 162.079 138.47 159.12 138.526C157.368 138.473 155.619 138.687 153.931 139.161Z" fill="#FE6C02"/>
<path d="M140.975 79.6167C146.014 80.2957 151.116 80.6943 155.813 82.9306C156.517 83.2318 157.152 83.6726 157.681 84.2263C158.05 84.585 158.283 85.0612 158.339 85.5729C158.394 86.0846 158.27 86.5997 157.986 87.0294C157.401 87.8143 156.379 87.9576 155.289 87.3409C153.47 86.313 151.72 85.1482 149.727 84.4817C146.494 83.3916 143.242 82.3451 139.76 82.4697C138.944 82.4697 138.128 82.5942 137.306 82.6441C136.659 82.6998 136.008 82.6429 135.381 82.4759C134.995 82.3638 134.559 82.2392 134.49 81.7907C134.422 81.3422 134.858 81.0681 135.219 80.8688C136.252 80.3143 137.381 79.9593 138.545 79.8223C139.351 79.7115 140.162 79.6429 140.975 79.6167Z" fill="#FE6C02"/>
<path d="M158.771 124.878C159.27 124.896 159.752 125.059 160.16 125.345C161.584 126.283 162.744 127.57 163.53 129.082C163.991 129.948 163.873 130.696 163.25 131.157C163.084 131.281 162.895 131.37 162.693 131.418C162.491 131.466 162.282 131.473 162.078 131.437C161.874 131.402 161.679 131.325 161.506 131.211C161.332 131.098 161.184 130.95 161.07 130.777C160.117 129.531 159.076 128.372 158.08 127.164C157.862 126.954 157.717 126.68 157.667 126.381C157.616 126.083 157.663 125.777 157.799 125.507C157.881 125.317 158.017 125.156 158.19 125.044C158.363 124.932 158.565 124.874 158.771 124.878Z" fill="#FE6C02"/>
<path d="M134.347 123.171C134.278 123.457 134.203 123.868 134.085 124.273C133.63 125.818 132.95 127.287 132.067 128.634C131.973 128.797 131.848 128.941 131.699 129.056C131.55 129.171 131.38 129.256 131.198 129.306C131.016 129.355 130.826 129.368 130.639 129.344C130.452 129.32 130.271 129.26 130.108 129.166C129.944 129.073 129.801 128.948 129.685 128.799C129.57 128.649 129.485 128.479 129.436 128.297C129.386 128.115 129.373 127.925 129.397 127.738C129.421 127.551 129.482 127.371 129.575 127.207C130.391 125.588 131.232 123.981 132.067 122.38C132.172 122.108 132.374 121.884 132.634 121.752C132.894 121.62 133.193 121.588 133.475 121.663C134.185 121.888 134.316 122.442 134.347 123.171Z" fill="#FE6C02"/>
<path d="M140.844 123.794C140.682 124.367 140.501 124.94 140.358 125.513C140.134 126.404 139.928 127.301 139.735 128.198C139.492 129.232 138.695 129.774 137.835 129.487C137.644 129.41 137.471 129.294 137.327 129.145C137.184 128.997 137.074 128.82 137.003 128.626C136.932 128.432 136.904 128.226 136.918 128.02C136.933 127.814 136.99 127.614 137.088 127.432C137.564 126.201 138.141 125.011 138.813 123.875C138.99 123.598 139.199 123.342 139.436 123.115C139.554 122.965 139.719 122.859 139.905 122.816C140.091 122.773 140.286 122.795 140.458 122.878C140.769 123.084 140.806 123.439 140.844 123.794Z" fill="#FE6C02"/>
<path d="M198.32 131.599C198.268 132.447 198.105 133.285 197.834 134.09C197.523 135.292 197.299 136.513 197.093 137.734C197.077 137.94 197.021 138.14 196.928 138.323C196.834 138.507 196.705 138.67 196.548 138.803C196.391 138.936 196.209 139.037 196.013 139.099C195.817 139.162 195.61 139.185 195.405 139.167C194.973 139.083 194.589 138.837 194.333 138.479C194.077 138.121 193.968 137.678 194.028 137.242C194.24 135.415 194.767 133.638 195.586 131.991C195.775 131.613 196.009 131.26 196.283 130.938C196.645 130.515 197.081 130.147 197.697 130.384C198.314 130.621 198.314 131.175 198.32 131.599Z" fill="#FE6C02"/>
<path d="M186.429 137.46C186.221 137.475 186.013 137.44 185.822 137.358C185.631 137.277 185.461 137.15 185.329 136.99C185.196 136.83 185.103 136.64 185.058 136.437C185.014 136.234 185.018 136.023 185.071 135.822C185.472 134.1 186.143 132.452 187.058 130.938C187.288 130.582 187.617 130.301 188.005 130.128C188.219 130.025 188.459 129.986 188.695 130.014C188.931 130.043 189.154 130.139 189.338 130.29C189.533 130.433 189.675 130.636 189.743 130.868C189.81 131.101 189.799 131.348 189.712 131.574C189.129 133.271 188.453 134.934 187.687 136.557C187.57 136.801 187.393 137.012 187.173 137.169C186.954 137.327 186.697 137.427 186.429 137.46Z" fill="#FE6C02"/>
</g>
<rect x="1.5" y="2.01123" width="383" height="302" rx="21.5" stroke="#FF6B00" stroke-width="3"/>
<defs>
<clipPath id="clip0_17_2077">
<rect x="3" y="3.51123" width="380" height="299" rx="20" fill="white"/>
</clipPath>
</defs>
</svg>
