<svg width="161" height="184" viewBox="0 0 161 184" fill="none" xmlns="http://www.w3.org/2000/svg">
<path d="M31.5891 20.8624C5.96276 34.2429 58.6452 96.1472 58.6452 96.1472C58.6452 96.1472 24.3617 74.2619 16.8169 96.6949C10.9739 114.068 42.7183 135.643 62.7745 147.26C62.7745 147.26 51.8336 159.229 57.9756 169.492C69.5589 188.848 164.988 146.265 153.313 121.643C147.811 110.039 131.17 116.364 131.17 116.364C127.437 82.4081 114.693 22.8989 86.2645 41.4573C76.2102 30.7374 66.801 33.9451 62.4374 38.7361C53.1191 25.2176 42.1125 15.3678 31.5891 20.8624Z" fill="#FFCCA8"/>
<path d="M85.7069 85.0957C85.7069 85.0957 75.8108 58.1377 62.4374 38.7361M103.611 76.7729C98.1891 58.6578 92.1175 47.6976 86.2645 41.4573M132.363 130.613C132.174 126.889 131.788 121.982 131.17 116.364M79.0711 156.151C79.0711 156.151 71.6685 152.411 62.7745 147.26M96.7772 97.9957C102.019 105.334 105.076 114.865 106.466 121.522M75.9095 107.01C81.2297 113.828 84.3385 120.53 87.7249 128.079M62.7745 147.26C42.7183 135.643 10.9739 114.068 16.8169 96.6949C24.3617 74.2619 58.6452 96.1472 58.6452 96.1472C58.6452 96.1472 5.96276 34.2429 31.5891 20.8624C42.1125 15.3678 53.1191 25.2176 62.4374 38.7361M62.7745 147.26C62.7745 147.26 51.8336 159.229 57.9756 169.492C69.5589 188.848 164.988 146.265 153.313 121.643C147.811 110.039 131.17 116.364 131.17 116.364M131.17 116.364C127.437 82.4081 114.693 22.8989 86.2645 41.4573M86.2645 41.4573C76.2102 30.7374 66.801 33.9451 62.4374 38.7361" stroke="#FF9242" stroke-width="7.82861"/>
</svg>
