<svg width="177" height="208" viewBox="0 0 177 208" fill="none" xmlns="http://www.w3.org/2000/svg">
<path d="M124.036 96.0147C90.7339 88.2673 73.1574 110.454 91.4406 123.39M166.453 145.541C161.107 153.635 149.926 160.158 128.905 161.193C108.99 162.173 98.1164 156.665 92.845 149.208M166.453 145.541C170.879 158.684 169.514 185.51 129.547 186.329C119.696 186.531 112.187 185.185 106.533 182.844M166.453 145.541C172.485 136.408 170.211 123.847 167.086 116.26M92.845 149.208C87.1202 141.109 88.3392 130.296 91.4406 123.39M92.845 149.208C89.3076 159.22 89.2478 175.686 106.533 182.844M32.7027 89.969C35.939 89.6158 38.8492 88.9232 41.4755 87.9395M107.52 182.421C107.192 182.564 106.863 182.705 106.533 182.844M41.4755 87.9395C76.845 74.6909 59.8174 5.87698 95.2191 5.05278C131.578 4.20629 107.37 75.577 107.37 75.577C127.817 70.276 167.127 70.7097 171.101 96.4972C172.345 104.572 170.692 111.104 167.086 116.26M41.4755 87.9395C41.4755 87.9395 36.4468 76.142 26.1251 76.4678C-11.3901 77.6521 9.74933 198.156 36.4738 201.923C56.2544 204.712 59.9492 188.072 59.9492 188.072M59.9492 188.072C53.9847 186.588 48.8647 184.097 44.5645 180.67M59.9492 188.072C72.8326 191.276 90.5954 189.547 106.533 182.844M167.086 116.26C152.583 136.993 110.783 137.075 91.4406 123.39" stroke="#FF9242" stroke-width="10"/>
</svg>
