<svg width="38" height="41" viewBox="0 0 38 41" fill="none" xmlns="http://www.w3.org/2000/svg">
<path fill-rule="evenodd" clip-rule="evenodd" d="M26.3536 39.65C26.3536 39.9668 26.0968 40.2237 25.7799 40.2237L5.47535e-05 39.7816V39.5082L25.7799 39.0763C26.0968 39.0763 26.3536 39.3331 26.3536 39.65Z" fill="black"/>
<path fill-rule="evenodd" clip-rule="evenodd" d="M36.2228 30.4931C36.2228 30.8099 35.9659 31.0668 35.6491 31.0668L6.58844 30.6248V30.3514L35.6491 29.9194C35.9659 29.9194 36.2228 30.1763 36.2228 30.4931Z" fill="black"/>
<path fill-rule="evenodd" clip-rule="evenodd" d="M31.0148 37.3552C31.0148 37.6721 30.7579 37.9289 30.4411 37.9289L2.00794 37.4869V37.2135L30.4411 36.7816C30.7579 36.7816 31.0148 37.0384 31.0148 37.3552Z" fill="black"/>
<path fill-rule="evenodd" clip-rule="evenodd" d="M33.6591 35.0605C33.6591 35.3773 33.4023 35.6342 33.0854 35.6342L4.35646 35.1922V34.9188L33.0854 34.4868C33.4023 34.4868 33.6591 34.7437 33.6591 35.0605Z" fill="black"/>
<path fill-rule="evenodd" clip-rule="evenodd" d="M35.3174 32.7658C35.3174 33.0826 35.0606 33.3395 34.7437 33.3395L5.62932 32.8974V32.624L34.7437 32.1921C35.0606 32.1921 35.3174 32.4489 35.3174 32.7658Z" fill="black"/>
<path fill-rule="evenodd" clip-rule="evenodd" d="M10.8783 0.79735C10.8783 0.480514 11.1352 0.223667 11.452 0.223667L31.5488 0.665694V0.93909L11.452 1.37103C11.1352 1.37103 10.8783 1.11419 10.8783 0.79735Z" fill="black"/>
<path d="M36.2585 28.8076C36.5754 28.8076 36.8322 28.5508 36.8322 28.2339C36.8322 27.9171 36.5754 27.6602 36.2585 27.6602L21.5585 27.8775L11.452 27.6602C11.2051 27.6602 10.9947 27.8161 10.9138 28.0348L7.0276 28.0922V28.3656L10.9106 28.4243C10.9891 28.6476 11.2018 28.8076 11.452 28.8076L21.5585 28.5853L36.2585 28.8076Z" fill="black"/>
<path fill-rule="evenodd" clip-rule="evenodd" d="M1.00918 9.9542C1.00918 9.63736 1.26603 9.38052 1.58286 9.38052L17.2605 9.82254V10.0959L1.58286 10.5279C1.26603 10.5279 1.00918 10.271 1.00918 9.9542Z" fill="black"/>
<path d="M34.7437 18.5034C35.0606 18.5034 35.3174 18.7602 35.3174 19.0771C35.3174 19.3939 35.0606 19.6507 34.7437 19.6507L13.1349 19.325L1.58286 19.6507C1.26603 19.6507 1.00918 19.3939 1.00918 19.0771C1.00918 18.7602 1.26603 18.5034 1.58286 18.5034L13.4847 18.8313L34.7437 18.5034Z" fill="black"/>
<path d="M25.7799 11.6532C26.0968 11.6532 26.3536 11.91 26.3536 12.2269C26.3536 12.5437 26.0968 12.8005 25.7799 12.8005L10.4971 12.4894L0.973326 12.8005C0.65649 12.8005 0.399643 12.5437 0.399643 12.2269C0.399643 11.91 0.65649 11.6532 0.973326 11.6532L10.4967 11.9716L25.7799 11.6532Z" fill="black"/>
<path d="M33.0854 16.2244C33.4023 16.2244 33.6591 16.4812 33.6591 16.798C33.6591 17.1149 33.4023 17.3717 33.0854 17.3717L11.2466 17.0283L0.973326 17.3717C0.65649 17.3717 0.399643 17.1149 0.399643 16.798C0.399643 16.4812 0.65649 16.2244 0.973326 16.2244L11.5717 16.5706L33.0854 16.2244Z" fill="black"/>
<path d="M0.709565 13.9581C0.392729 13.9581 0.135882 14.2149 0.135882 14.5318C0.135882 14.8486 0.392729 15.1055 0.709565 15.1055L10.6502 14.7661L30.4411 15.1055C30.7579 15.1055 31.0147 14.8486 31.0147 14.5318C31.0147 14.2149 30.7579 13.9581 30.4411 13.9581L10.6502 14.3054L0.709565 13.9581Z" fill="black"/>
<path fill-rule="evenodd" clip-rule="evenodd" d="M6.21715 3.09208C6.21715 2.77525 6.47399 2.5184 6.79083 2.5184L31.5488 2.96043V3.23382L6.79083 3.66576C6.47399 3.66576 6.21715 3.40892 6.21715 3.09208Z" fill="black"/>
<path d="M36.5223 25.3655C36.8392 25.3655 37.096 25.6223 37.096 25.9392C37.096 26.256 36.8392 26.5129 36.5223 26.5129L20.2516 26.2725L6.79083 26.5129C6.47399 26.5129 6.21715 26.256 6.21715 25.9392C6.21715 25.6223 6.47399 25.3655 6.79083 25.3655L20.5923 25.6063L36.5223 25.3655Z" fill="black"/>
<path fill-rule="evenodd" clip-rule="evenodd" d="M3.57283 5.38681C3.57283 5.06998 3.82967 4.81313 4.14651 4.81313L30.1505 5.25516V5.52855L4.14651 5.9605C3.82967 5.9605 3.57283 5.70365 3.57283 5.38681Z" fill="black"/>
<path d="M4.1466 24.2062C3.82976 24.2062 3.57291 23.9493 3.57291 23.6325C3.57291 23.3157 3.82976 23.0588 4.1466 23.0588L19.4494 23.313L36.2587 23.0588C36.5755 23.0588 36.8324 23.3157 36.8324 23.6325C36.8324 23.9493 36.5755 24.2062 36.2587 24.2062L19.0801 23.9523L4.1466 24.2062Z" fill="black"/>
<path fill-rule="evenodd" clip-rule="evenodd" d="M1.91452 7.68154C1.91452 7.36471 2.17137 7.10786 2.48821 7.10786L22.0808 7.54989V7.82329L2.48821 8.25523C2.17137 8.25523 1.91452 7.99838 1.91452 7.68154Z" fill="black"/>
<path d="M2.48821 21.9234C2.17137 21.9234 1.91452 21.6666 1.91452 21.3497C1.91452 21.0329 2.17137 20.776 2.48821 20.776L16.0265 21.0745L35.6491 20.776C35.9659 20.776 36.2228 21.0329 36.2228 21.3497C36.2228 21.6666 35.9659 21.9234 35.6491 21.9234L15.6584 21.6263L2.48821 21.9234Z" fill="black"/>
</svg>
