<svg width="40" height="40" viewBox="0 0 40 40" fill="none" xmlns="http://www.w3.org/2000/svg">
<path d="M1.78827 20.5353C1.96864 20.1429 2.15766 19.7518 2.57323 19.5513C2.73629 19.4733 2.91521 19.4257 3.12733 19.3492C3.23349 22.198 3.68754 25.0231 4.47937 27.7617C3.73048 27.8655 3.05085 27.3446 2.88058 26.538C2.65404 25.4803 2.46357 24.4212 2.24857 23.3679C2.10428 22.6464 1.94266 21.9365 1.78827 21.2208V20.5353Z" fill="#FF6B00"/>
<path d="M17.7891 38.2115C17.4313 37.8796 17.212 37.0888 17.4558 36.6675C17.5226 36.5594 17.6119 36.467 17.7178 36.3968C17.8237 36.3265 17.9435 36.28 18.0691 36.2606C19.2566 36.2216 20.4471 36.2317 21.6361 36.2476C21.8539 36.2488 22.0651 36.3231 22.2357 36.4587C22.4063 36.5942 22.5264 36.7831 22.5769 36.9951C22.6292 37.2129 22.6061 37.442 22.5112 37.6449C22.4163 37.8478 22.2553 38.0125 22.0545 38.1119C22.0026 38.1422 21.9535 38.1783 21.9102 38.2115H17.7891Z" fill="#FF6B00"/>
<path d="M30.6689 30.3026C30.8839 29.4297 31.1134 28.5639 31.3096 27.6895C31.4727 26.968 31.5852 26.2465 31.7425 25.5322C31.8012 25.2634 31.9015 25.0054 32.0398 24.7675C32.6737 23.7203 33.0025 22.5169 32.9892 21.2928C32.9892 20.049 32.9979 18.8052 32.9892 17.5614C32.9748 15.8673 31.907 14.8198 30.2173 14.8198C23.3998 14.8198 16.5824 14.8198 9.76491 14.8198C8.0983 14.8198 7.0233 15.8746 7.00887 17.5412C6.99877 18.9495 7.00887 20.3593 7.02907 21.7676C7.04906 22.7622 7.33505 23.7332 7.85733 24.5799C8.07067 24.9496 8.22042 25.3525 8.30031 25.7718C8.61199 27.2061 8.9583 28.6317 9.29018 30.0617C9.30894 30.1439 9.31471 30.2305 9.32769 30.3113C8.66931 30.49 7.9676 30.4115 7.36494 30.0918C6.76228 29.7721 6.30379 29.2352 6.0825 28.5899C5.38825 26.6176 4.92344 24.572 4.69726 22.4934C4.53421 20.8181 4.36538 19.127 4.40867 17.443C4.53421 13.0521 6.04787 9.19658 9.21947 6.08269C11.4186 3.90436 14.2536 2.48183 17.3144 2.02078C21.3547 1.37434 25.1453 2.05685 28.5824 4.3295C31.9777 6.56897 34.0657 9.74923 35.0757 13.6596C35.5966 15.6798 35.6803 17.736 35.5663 19.8138C35.4058 22.7102 34.8793 25.5746 33.9993 28.3388C33.5332 29.8322 32.2346 30.636 30.7916 30.3589C30.7488 30.3447 30.7077 30.3258 30.6689 30.3026Z" fill="#FF6B00"/>
<path d="M8.28156 19.5093C8.28156 18.8485 8.28156 18.189 8.28156 17.5282C8.28156 16.6408 8.81256 16.1025 9.70142 16.1025C16.5699 16.1025 23.4383 16.1025 30.3068 16.1025C31.1927 16.1025 31.7165 16.6422 31.7209 17.5354C31.7209 18.8167 31.7339 20.0995 31.7209 21.3823C31.6906 23.9508 29.9532 25.9997 27.431 26.4514C25.4729 26.8064 23.3777 25.8439 22.2897 24.0691C21.9636 23.5366 21.5827 23.0792 20.9911 22.8253C19.818 22.3173 18.5135 22.7401 17.8325 23.8858C17.0836 25.147 16.0259 25.994 14.6017 26.359C11.6682 27.1108 8.64951 25.0503 8.34937 22.0562C8.26424 21.2149 8.33639 20.3578 8.33639 19.5093H8.28156ZM11.0232 23.2235C11.186 23.1407 11.3386 23.039 11.4777 22.9205C12.697 21.7171 13.9062 20.5021 15.1183 19.2886C15.3948 19.0463 15.6506 18.7813 15.883 18.4964C15.948 18.4015 15.9928 18.2943 16.0149 18.1814C16.037 18.0685 16.0358 17.9523 16.0114 17.8399C15.9685 17.7396 15.9018 17.6514 15.817 17.5827C15.7323 17.5141 15.6321 17.4671 15.5252 17.4459C15.2791 17.4582 15.0463 17.561 14.8715 17.7345C13.4286 19.1486 12.0073 20.5815 10.5816 22.0114C10.4791 22.1055 10.3933 22.2163 10.3277 22.339C10.1285 22.7545 10.4287 23.2148 11.0232 23.2235ZM10.2065 20.036C10.394 19.9567 10.5369 19.9365 10.6206 19.8557C11.1054 19.3925 11.5902 18.9264 12.0462 18.4343C12.1421 18.3136 12.1889 18.1611 12.1774 18.0074C12.1659 17.8536 12.0969 17.7098 11.9842 17.6047C11.7403 17.381 11.4358 17.3161 11.1905 17.5354C10.6792 17.9897 10.1973 18.476 9.74759 18.9913C9.63216 19.127 9.6437 19.4646 9.72595 19.6522C9.8082 19.8398 10.0506 19.9206 10.205 20.036H10.2065Z" fill="#FF6B00"/>
<path d="M7.58319 31.6013C8.02329 31.6302 8.41433 31.6417 8.7996 31.6908C8.88329 31.7009 8.99151 31.8351 9.01748 31.9245C9.1791 32.5017 9.30608 33.0789 9.47201 33.6561C9.68285 34.4002 10.1305 35.0553 10.747 35.5221C11.3636 35.989 12.1155 36.2422 12.8889 36.2433C13.8413 36.252 14.7936 36.2433 15.746 36.2433H16.163L16.0836 37.5275C16.0404 37.5486 15.9941 37.5627 15.9465 37.5694C14.8297 37.5694 13.71 37.6069 12.5974 37.5347C10.433 37.3904 8.76641 36.0023 8.17336 33.9057C7.96124 33.1496 7.78376 32.3791 7.58319 31.6013Z" fill="#FF6B00"/>
<path d="M36.8592 19.4127C37.725 19.4474 38.3541 20.2958 38.1838 21.1717C37.8375 22.9581 37.4816 24.743 37.1161 26.5265C36.9559 27.3086 36.3946 27.7602 35.5129 27.7948C36.2959 25.0648 36.7479 22.2506 36.8592 19.4127Z" fill="#FF6B00"/>
</svg>

