<svg width="30" height="38" viewBox="0 0 30 38" fill="none" xmlns="http://www.w3.org/2000/svg">
<path d="M29.8475 15.2819C29.4172 16.5563 28.4408 17.4701 27.5632 18.4248C26.8263 19.2226 25.8263 19.3437 24.794 18.948C23.3202 18.3811 21.8464 17.7962 20.3726 17.2279C19.4346 16.8695 18.5783 17.2995 18.4125 18.2062C18.3388 18.5954 18.4862 18.9301 18.7124 19.2405C19.5164 20.3349 20.313 21.4351 21.1265 22.5224C21.368 22.8237 21.4935 23.1978 21.4809 23.5796C21.4603 24.2082 21.4758 24.8382 21.4758 25.5098H21.055C16.0221 25.5098 10.9894 25.5122 5.95691 25.517C5.66216 25.517 5.53984 25.4453 5.47499 25.1529C4.67841 21.5692 4.49346 17.9855 5.52289 14.4132C6.62822 10.5915 8.98626 7.72026 12.527 5.75925C13.9897 4.94933 15.5482 4.36662 17.1569 3.90432C17.4314 3.82009 17.6809 3.67255 17.8842 3.47427C18.6115 2.76685 19.3012 2.02358 20.0211 1.30971C20.257 1.07677 20.5429 0.891847 20.8059 0.685425H21.3954C21.9201 0.895431 22.1802 1.27602 22.2502 1.82576C22.4146 3.11088 22.6032 4.39385 22.7926 5.67539C22.8464 6.04308 22.853 6.40575 23.1559 6.72399C24.9841 8.64772 26.7836 10.5944 28.6022 12.5296C29.132 13.0922 29.6604 13.6484 29.849 14.4211L29.8475 15.2819ZM20.366 11.1477C20.3636 10.8663 20.2502 10.5966 20.0491 10.3942C19.8481 10.1919 19.5748 10.0724 19.2857 10.0604C18.7095 10.049 18.1804 10.5492 18.1701 11.1176C18.1598 11.686 18.6726 12.1927 19.2548 12.2042C19.8369 12.2157 20.3564 11.719 20.366 11.1477Z" fill="#FF6B00"/>
<path d="M13.762 37.3145H1.41694C0.580576 37.3145 0.15097 36.8988 0.15097 36.086C0.15097 35.4409 0.15097 34.7958 0.15097 34.1551C0.156129 33.4656 0.614473 33.024 1.32999 33.024H26.169C26.9125 33.024 27.348 33.4469 27.3532 34.1794C27.3591 34.8345 27.3591 35.4899 27.3532 36.1455C27.3473 36.8959 26.911 37.313 26.1439 37.313L13.762 37.3145Z" fill="#FF6B00"/>
<path d="M24.41 30.8596H3.114C3.114 30.0712 3.06757 29.2885 3.12947 28.5123C3.17295 27.9697 3.67771 27.6586 4.30849 27.6586H22.1648C22.5568 27.6586 22.9495 27.6522 23.3438 27.6586C23.6229 27.6567 23.8915 27.7621 24.0911 27.952C24.2907 28.1418 24.405 28.4006 24.4093 28.6721C24.4226 29.3888 24.41 30.1042 24.41 30.8596Z" fill="#FF6B00"/>
<path d="M2.69028 21.5661C1.98434 21.2614 1.30714 20.9927 0.654261 20.678C0.493213 20.5987 0.360067 20.4745 0.271758 20.3214C0.18345 20.1682 0.143968 19.993 0.158336 19.8179C0.365402 15.8042 1.08903 11.9151 3.40875 8.47976C5.36961 5.5748 8.12483 3.80588 11.6619 3.21671C12.076 3.14504 12.4983 3.12569 12.9949 3.07336C12.1364 3.54498 11.3332 3.94277 10.5794 4.41582C6.51768 6.9574 4.06531 10.5734 3.08378 15.1562C2.64165 17.2118 2.54364 19.2868 2.70502 21.3776C2.70723 21.412 2.69986 21.4471 2.69028 21.5661Z" fill="#FF6B00"/>
</svg>
