<svg width="40" height="40" viewBox="0 0 40 40" fill="none" xmlns="http://www.w3.org/2000/svg">
<g clip-path="url(#clip0_17_107)">
<path d="M2 36.6639C2.09726 36.3952 2.28665 36.1697 2.53448 36.0275C2.78232 35.8853 3.07252 35.8357 3.35347 35.8875C3.61739 35.9124 3.88583 35.8875 4.19036 35.8875V35.4836C4.19036 33.1996 4.19036 30.9148 4.19036 28.6293C4.19036 27.8665 4.59866 27.4512 5.34983 27.4512C6.68526 27.4512 8.02068 27.4512 9.3561 27.4512C10.0915 27.4512 10.5133 27.8687 10.5133 28.5977V35.8627H12.6247V26.1083C12.6247 25.3275 13.0308 24.9212 13.8135 24.9212C15.1489 24.9212 16.4844 24.9212 17.8198 24.9212C18.5258 24.9212 18.9477 25.35 18.9477 26.0632C18.9477 29.1808 18.9477 32.2976 18.9477 35.4136V35.865H21.0568V22.2829C21.0568 21.4501 21.4493 21.0551 22.2727 21.0551C23.5856 21.0551 24.8977 21.0551 26.209 21.0551C26.967 21.0551 27.382 21.4659 27.382 22.2219V35.8717H29.4935V15.2616C29.4935 14.4085 29.8792 14.0226 30.7341 14.0226C32.0447 14.0226 33.3576 14.0226 34.6682 14.0226C35.3991 14.0226 35.8164 14.4446 35.8164 15.1804V35.8898H36.809C37.4428 35.8898 37.8714 36.1967 37.982 36.7271C38.0925 37.2575 37.8376 37.6705 37.2714 37.9504C37.2529 37.9641 37.2368 37.9809 37.224 38H2.77373C2.42564 37.8515 2.14841 37.5742 2 37.2259L2 36.6639Z" fill="#FF6B00"/>
<path d="M2 23.303C2.28197 22.7208 2.74892 22.5379 3.38956 22.5379C7.19957 22.5086 10.8539 21.669 14.3775 20.263C20.3228 17.9066 25.6208 14.1658 29.8318 9.35081C31.0042 8.02225 32.0495 6.58659 32.9538 5.06268C33.0102 4.96789 33.0621 4.86858 33.1501 4.7106L30.2875 5.47118C29.8702 5.58177 29.4528 5.69687 29.0333 5.79843C28.7648 5.86887 28.4794 5.83161 28.2379 5.69459C27.9965 5.55758 27.8181 5.33164 27.7407 5.06493C27.7028 4.92886 27.6926 4.78656 27.7108 4.64648C27.729 4.5064 27.7751 4.3714 27.8464 4.2495C27.9177 4.1276 28.0128 4.02129 28.1261 3.93689C28.2393 3.85249 28.3683 3.79172 28.5054 3.75818C30.2401 3.28197 31.9771 2.82156 33.7118 2.35438C34.0952 2.25057 34.481 2.15126 34.8645 2.0497C35.5096 1.87818 36.0578 2.16029 36.2315 2.79674C36.815 4.93629 37.3909 7.07885 37.9594 9.22442C37.9976 9.35721 38.0088 9.49629 37.9925 9.63349C37.9762 9.77069 37.9325 9.90324 37.8642 10.0233C37.7959 10.1434 37.7043 10.2486 37.5947 10.3327C37.4852 10.4168 37.3599 10.4782 37.2263 10.5131C36.9437 10.5763 36.6478 10.5283 36.3996 10.3792C36.1514 10.23 35.9701 9.99112 35.8931 9.71192C35.5795 8.56315 35.2773 7.41212 34.9682 6.2611C34.9502 6.19565 34.9231 6.1302 34.887 6.03541C34.8457 6.07554 34.8073 6.11853 34.772 6.16405C32.1192 10.5244 28.5979 14.0632 24.5037 17.0604C20.2796 20.2 15.4778 22.4748 10.3735 23.7544C8.06703 24.3218 5.70355 24.6247 3.32865 24.6572C2.69027 24.6572 2.23911 24.4586 2 23.8537L2 23.303Z" fill="#FF6B00"/>
</g>
<defs>
<clipPath id="clip0_17_107">
<rect width="36" height="36" fill="white" transform="translate(2 2)"/>
</clipPath>
</defs>
</svg>
