<svg width="157" height="41" viewBox="0 0 157 41" fill="none" xmlns="http://www.w3.org/2000/svg">
<mask id="mask0_17_13" style="mask-type:alpha" maskUnits="userSpaceOnUse" x="0" y="0" width="38" height="41">
<path fill-rule="evenodd" clip-rule="evenodd" d="M26.3535 39.65C26.3535 39.9668 26.0967 40.2237 25.7798 40.2237L-3.43323e-05 39.7816V39.5082L25.7798 39.0763C26.0967 39.0763 26.3535 39.3331 26.3535 39.65Z" fill="url(#paint0_linear_17_13)"/>
<path fill-rule="evenodd" clip-rule="evenodd" d="M36.2228 30.4931C36.2228 30.81 35.966 31.0668 35.6491 31.0668L6.58852 30.6248V30.3514L35.6491 29.9194C35.966 29.9194 36.2228 30.1763 36.2228 30.4931Z" fill="url(#paint1_linear_17_13)"/>
<path fill-rule="evenodd" clip-rule="evenodd" d="M31.015 37.3552C31.015 37.6721 30.7582 37.9289 30.4413 37.9289L2.00817 37.4869V37.2135L30.4413 36.7816C30.7582 36.7816 31.015 37.0384 31.015 37.3552Z" fill="url(#paint2_linear_17_13)"/>
<path fill-rule="evenodd" clip-rule="evenodd" d="M33.6592 35.0605C33.6592 35.3773 33.4024 35.6342 33.0856 35.6342L4.3566 35.1922V34.9188L33.0856 34.4868C33.4024 34.4868 33.6592 34.7437 33.6592 35.0605Z" fill="url(#paint3_linear_17_13)"/>
<path fill-rule="evenodd" clip-rule="evenodd" d="M35.3176 32.7658C35.3176 33.0826 35.0608 33.3395 34.744 33.3395L5.62954 32.8975V32.6241L34.744 32.1921C35.0608 32.1921 35.3176 32.449 35.3176 32.7658Z" fill="url(#paint4_linear_17_13)"/>
<path fill-rule="evenodd" clip-rule="evenodd" d="M10.8785 0.797342C10.8785 0.480506 11.1353 0.22366 11.4522 0.22366L31.549 0.665687V0.939082L11.4522 1.37103C11.1353 1.37103 10.8785 1.11418 10.8785 0.797342Z" fill="url(#paint5_linear_17_13)"/>
<path d="M36.2585 27.6602C36.5752 27.6602 36.8325 27.9168 36.8327 28.2335C36.8327 28.5503 36.5753 28.8077 36.2585 28.8077L21.5583 28.585L11.4519 28.8077C11.202 28.8076 10.9914 28.6469 10.9128 28.4239L7.02803 28.3653V28.0919L10.9157 28.0342C10.9969 27.8162 11.2055 27.6603 11.4519 27.6602L21.5583 27.877L36.2585 27.6602Z" fill="url(#paint6_linear_17_13)"/>
<path fill-rule="evenodd" clip-rule="evenodd" d="M1.00923 9.95419C1.00923 9.63735 1.26608 9.38051 1.58291 9.38051L17.2606 9.82254V10.0959L1.58291 10.5279C1.26608 10.5279 1.00923 10.271 1.00923 9.95419Z" fill="url(#paint7_linear_17_13)"/>
<path d="M34.7437 18.5034C35.0603 18.5034 35.3176 18.76 35.3179 19.0766C35.3179 19.3934 35.0605 19.6508 34.7437 19.6508L13.1226 19.3247L1.58252 19.6508C1.26589 19.6506 1.00928 19.3933 1.00928 19.0766C1.00953 18.7601 1.26604 18.5036 1.58252 18.5034L13.4956 18.8305L34.7437 18.5034Z" fill="url(#paint8_linear_17_13)"/>
<path d="M25.7797 11.6532C26.0964 11.6532 26.3537 11.9098 26.3539 12.2264C26.3539 12.5432 26.0965 12.8006 25.7797 12.8006L10.4965 12.4891L0.973036 12.8006C0.65654 12.8004 0.400018 12.5439 0.399794 12.2274C0.399794 11.9107 0.656402 11.6534 0.973036 11.6532L10.4965 11.9715L25.7797 11.6532Z" fill="url(#paint9_linear_17_13)"/>
<path d="M33.0853 16.2243C33.402 16.2243 33.6593 16.4809 33.6596 16.7976C33.6596 17.1144 33.4022 17.3718 33.0853 17.3718L11.2357 17.0281L0.973036 17.3718C0.656408 17.3716 0.399794 17.1143 0.399794 16.7976C0.400023 16.4811 0.65655 16.2246 0.973036 16.2243L11.5814 16.57L33.0853 16.2243Z" fill="url(#paint10_linear_17_13)"/>
<path d="M30.4406 13.9581C30.7573 13.9581 31.0146 14.2147 31.0148 14.5313C31.0148 14.8482 30.7575 15.1056 30.4406 15.1056L10.6496 14.7657L0.709173 15.1056C0.392539 15.1053 0.135931 14.848 0.135931 14.5313C0.136169 14.2149 0.392686 13.9583 0.709173 13.9581L10.6496 14.3048L30.4406 13.9581Z" fill="url(#paint11_linear_17_13)"/>
<path fill-rule="evenodd" clip-rule="evenodd" d="M6.21734 3.09207C6.21734 2.77524 6.47419 2.51839 6.79103 2.51839L31.549 2.96042V3.23381L6.79103 3.66576C6.47419 3.66576 6.21734 3.40891 6.21734 3.09207Z" fill="url(#paint12_linear_17_13)"/>
<path d="M36.523 25.3655C36.8395 25.3657 37.096 25.6222 37.0962 25.9387C37.0962 26.2555 36.8396 26.5128 36.523 26.513L20.2398 26.2718L6.79054 26.513C6.47391 26.5127 6.21729 26.2554 6.21729 25.9387C6.21753 25.6223 6.47405 25.3657 6.79054 25.3655L20.603 25.6057L36.523 25.3655Z" fill="url(#paint13_linear_17_13)"/>
<path fill-rule="evenodd" clip-rule="evenodd" d="M3.57294 5.3868C3.57294 5.06996 3.82979 4.81312 4.14662 4.81312L30.1506 5.25515V5.52854L4.14662 5.96048C3.82979 5.96048 3.57294 5.70364 3.57294 5.3868Z" fill="url(#paint14_linear_17_13)"/>
<path d="M36.2585 23.0588C36.5752 23.0588 36.8325 23.3154 36.8327 23.632C36.8327 23.9489 36.5753 24.2063 36.2585 24.2063L19.0681 23.9524L4.14618 24.2063C3.82955 24.206 3.57294 23.9487 3.57294 23.632C3.57318 23.3156 3.82969 23.059 4.14618 23.0588L19.4606 23.3127L36.2585 23.0588Z" fill="url(#paint15_linear_17_13)"/>
<path fill-rule="evenodd" clip-rule="evenodd" d="M1.91442 7.68155C1.91442 7.36471 2.17127 7.10786 2.48811 7.10786L22.0807 7.54989V7.82329L2.48811 8.25523C2.17127 8.25523 1.91442 7.99838 1.91442 7.68155Z" fill="url(#paint16_linear_17_13)"/>
<path d="M35.6488 20.776C35.9655 20.776 36.2228 21.0327 36.223 21.3493C36.223 21.6661 35.9656 21.9235 35.6488 21.9235L15.6459 21.6257L2.48767 21.9235C2.17103 21.9233 1.91442 21.666 1.91442 21.3493C1.91466 21.0328 2.17118 20.7763 2.48767 20.776L16.0375 21.0739L35.6488 20.776Z" fill="url(#paint17_linear_17_13)"/>
</mask>
<g mask="url(#mask0_17_13)">
<path fill-rule="evenodd" clip-rule="evenodd" d="M26.3536 39.65C26.3536 39.9668 26.0968 40.2237 25.7799 40.2237L5.47535e-05 39.7816V39.5082L25.7799 39.0763C26.0968 39.0763 26.3536 39.3331 26.3536 39.65Z" fill="black"/>
<path fill-rule="evenodd" clip-rule="evenodd" d="M36.2228 30.4931C36.2228 30.8099 35.9659 31.0668 35.6491 31.0668L6.58844 30.6248V30.3514L35.6491 29.9194C35.9659 29.9194 36.2228 30.1763 36.2228 30.4931Z" fill="black"/>
<path fill-rule="evenodd" clip-rule="evenodd" d="M31.0148 37.3552C31.0148 37.6721 30.7579 37.9289 30.4411 37.9289L2.00794 37.4869V37.2135L30.4411 36.7816C30.7579 36.7816 31.0148 37.0384 31.0148 37.3552Z" fill="black"/>
<path fill-rule="evenodd" clip-rule="evenodd" d="M33.6591 35.0605C33.6591 35.3773 33.4023 35.6342 33.0854 35.6342L4.35646 35.1922V34.9188L33.0854 34.4868C33.4023 34.4868 33.6591 34.7437 33.6591 35.0605Z" fill="black"/>
<path fill-rule="evenodd" clip-rule="evenodd" d="M35.3174 32.7658C35.3174 33.0826 35.0606 33.3395 34.7437 33.3395L5.62932 32.8974V32.624L34.7437 32.1921C35.0606 32.1921 35.3174 32.4489 35.3174 32.7658Z" fill="black"/>
<path fill-rule="evenodd" clip-rule="evenodd" d="M10.8783 0.79735C10.8783 0.480514 11.1352 0.223667 11.452 0.223667L31.5488 0.665694V0.93909L11.452 1.37103C11.1352 1.37103 10.8783 1.11419 10.8783 0.79735Z" fill="black"/>
<path d="M36.2585 28.8076C36.5754 28.8076 36.8322 28.5508 36.8322 28.2339C36.8322 27.9171 36.5754 27.6602 36.2585 27.6602L21.5585 27.8775L11.452 27.6602C11.2051 27.6602 10.9947 27.8161 10.9138 28.0348L7.0276 28.0922V28.3656L10.9106 28.4243C10.9891 28.6476 11.2018 28.8076 11.452 28.8076L21.5585 28.5853L36.2585 28.8076Z" fill="black"/>
<path fill-rule="evenodd" clip-rule="evenodd" d="M1.00918 9.9542C1.00918 9.63736 1.26603 9.38052 1.58286 9.38052L17.2605 9.82254V10.0959L1.58286 10.5279C1.26603 10.5279 1.00918 10.271 1.00918 9.9542Z" fill="black"/>
<path d="M34.7437 18.5034C35.0606 18.5034 35.3174 18.7602 35.3174 19.0771C35.3174 19.3939 35.0606 19.6507 34.7437 19.6507L13.1349 19.325L1.58286 19.6507C1.26603 19.6507 1.00918 19.3939 1.00918 19.0771C1.00918 18.7602 1.26603 18.5034 1.58286 18.5034L13.4847 18.8313L34.7437 18.5034Z" fill="black"/>
<path d="M25.7799 11.6532C26.0968 11.6532 26.3536 11.91 26.3536 12.2269C26.3536 12.5437 26.0968 12.8005 25.7799 12.8005L10.4971 12.4894L0.973326 12.8005C0.65649 12.8005 0.399643 12.5437 0.399643 12.2269C0.399643 11.91 0.65649 11.6532 0.973326 11.6532L10.4967 11.9716L25.7799 11.6532Z" fill="black"/>
<path d="M33.0854 16.2244C33.4023 16.2244 33.6591 16.4812 33.6591 16.798C33.6591 17.1149 33.4023 17.3717 33.0854 17.3717L11.2466 17.0283L0.973326 17.3717C0.65649 17.3717 0.399643 17.1149 0.399643 16.798C0.399643 16.4812 0.65649 16.2244 0.973326 16.2244L11.5717 16.5706L33.0854 16.2244Z" fill="black"/>
<path d="M0.709565 13.9581C0.392729 13.9581 0.135882 14.2149 0.135882 14.5318C0.135882 14.8486 0.392729 15.1055 0.709565 15.1055L10.6502 14.7661L30.4411 15.1055C30.7579 15.1055 31.0147 14.8486 31.0147 14.5318C31.0147 14.2149 30.7579 13.9581 30.4411 13.9581L10.6502 14.3054L0.709565 13.9581Z" fill="black"/>
<path fill-rule="evenodd" clip-rule="evenodd" d="M6.21715 3.09208C6.21715 2.77525 6.47399 2.5184 6.79083 2.5184L31.5488 2.96043V3.23382L6.79083 3.66576C6.47399 3.66576 6.21715 3.40892 6.21715 3.09208Z" fill="black"/>
<path d="M36.5223 25.3655C36.8392 25.3655 37.096 25.6223 37.096 25.9392C37.096 26.256 36.8392 26.5129 36.5223 26.5129L20.2516 26.2725L6.79083 26.5129C6.47399 26.5129 6.21715 26.256 6.21715 25.9392C6.21715 25.6223 6.47399 25.3655 6.79083 25.3655L20.5923 25.6063L36.5223 25.3655Z" fill="black"/>
<path fill-rule="evenodd" clip-rule="evenodd" d="M3.57283 5.38681C3.57283 5.06998 3.82967 4.81313 4.14651 4.81313L30.1505 5.25516V5.52855L4.14651 5.9605C3.82967 5.9605 3.57283 5.70365 3.57283 5.38681Z" fill="black"/>
<path d="M4.1466 24.2062C3.82976 24.2062 3.57291 23.9493 3.57291 23.6325C3.57291 23.3157 3.82976 23.0588 4.1466 23.0588L19.4494 23.313L36.2587 23.0588C36.5755 23.0588 36.8324 23.3157 36.8324 23.6325C36.8324 23.9493 36.5755 24.2062 36.2587 24.2062L19.0801 23.9523L4.1466 24.2062Z" fill="black"/>
<path fill-rule="evenodd" clip-rule="evenodd" d="M1.91452 7.68154C1.91452 7.36471 2.17137 7.10786 2.48821 7.10786L22.0808 7.54989V7.82329L2.48821 8.25523C2.17137 8.25523 1.91452 7.99838 1.91452 7.68154Z" fill="black"/>
<path d="M2.48821 21.9234C2.17137 21.9234 1.91452 21.6666 1.91452 21.3497C1.91452 21.0329 2.17137 20.776 2.48821 20.776L16.0265 21.0745L35.6491 20.776C35.9659 20.776 36.2228 21.0329 36.2228 21.3497C36.2228 21.6666 35.9659 21.9234 35.6491 21.9234L15.6584 21.6263L2.48821 21.9234Z" fill="black"/>
</g>
<g clip-path="url(#clip0_17_13)">
<path d="M60.9741 17.5801H45.8682C45.3525 17.5801 44.858 17.3742 44.4934 17.0076C44.1289 16.6409 43.924 16.1437 43.924 15.6252V5.44978C43.924 4.9313 44.1289 4.43406 44.4934 4.06744C44.858 3.70082 45.3525 3.49485 45.8682 3.49485H60.9741C61.4897 3.49485 61.9842 3.70082 62.3488 4.06744C62.7134 4.43406 62.9183 4.9313 62.9183 5.44978V8.90024H60.0021V6.94531C59.9996 6.81647 59.9476 6.69361 59.8569 6.60249C59.7663 6.51137 59.6441 6.45908 59.516 6.45657H47.3263C47.1974 6.45657 47.0737 6.50806 46.9826 6.59972C46.8914 6.69138 46.8402 6.81569 46.8402 6.94531V14.1786C46.8402 14.3082 46.8914 14.4325 46.9826 14.5241C47.0737 14.6158 47.1974 14.6673 47.3263 14.6673H59.9632V13.2695H62.8794V15.6057C62.8846 16.1208 62.6874 16.6172 62.3306 16.9869C61.9739 17.3567 61.4864 17.5699 60.9741 17.5801Z" fill="black"/>
<path d="M126.316 36.8951H111.201C110.685 36.8951 110.191 36.6903 109.826 36.3257C109.461 35.9611 109.257 35.4666 109.257 34.951V24.8803C109.257 24.3647 109.461 23.8702 109.826 23.5056C110.191 23.141 110.685 22.9362 111.201 22.9362H126.316C126.832 22.9362 127.327 23.141 127.691 23.5056C128.056 23.8702 128.261 24.3647 128.261 24.8803V28.302H125.344V26.3579C125.344 26.229 125.293 26.1054 125.202 26.0142C125.111 25.9231 124.987 25.8718 124.858 25.8718H112.707C112.579 25.8718 112.455 25.9231 112.364 26.0142C112.273 26.1054 112.221 26.229 112.221 26.3579V33.5512C112.221 33.6801 112.273 33.8037 112.364 33.8949C112.455 33.986 112.579 34.0372 112.707 34.0372H125.344V32.6569H128.261V34.9801C128.253 35.4907 128.045 35.9777 127.681 36.336C127.317 36.6944 126.827 36.8952 126.316 36.8951Z" fill="black"/>
<path d="M76.0411 17.5801H73.1249V3.49483H89.9028C90.4184 3.49483 90.9129 3.69966 91.2775 4.06426C91.6421 4.42886 91.847 4.92336 91.847 5.43897V11.1353C91.847 11.6509 91.6421 12.1454 91.2775 12.51C90.9129 12.8746 90.4184 13.0794 89.9028 13.0794H79.1517V10.1632H87.9587C88.2165 10.1632 88.4638 10.0608 88.6461 9.87852C88.8283 9.69622 88.9308 9.44897 88.9308 9.19116V7.38311C88.9308 7.1253 88.8283 6.87805 88.6461 6.69576C88.4638 6.51346 88.2165 6.41104 87.9587 6.41104H76.0411V17.5801Z" fill="black"/>
<path d="M111.007 3.49483V9.04535H98.1659V3.49483H95.2497V17.5801H98.1659V11.9616H111.007V17.5801H113.923V3.49483H111.007Z" fill="black"/>
<path d="M133.539 6.1097V3.49483H117.257V17.5801H133.539V14.8972H120.659C120.531 14.8972 120.407 14.846 120.316 14.7549C120.225 14.6637 120.173 14.5401 120.173 14.4112V12.467C120.173 12.3381 120.225 12.2145 120.316 12.1234C120.407 12.0322 120.531 11.981 120.659 11.981H132.908V9.06479H120.659C120.531 9.06479 120.407 9.01359 120.316 8.92244C120.225 8.83129 120.173 8.70766 120.173 8.57876V6.63462C120.173 6.50572 120.225 6.38209 120.316 6.29094C120.407 6.19979 120.531 6.14859 120.659 6.14859L133.539 6.1097Z" fill="black"/>
<path d="M147.702 25.4441V22.8292H131.42V36.9145H147.702V34.2316H134.822C134.693 34.2316 134.57 34.1804 134.478 34.0892C134.387 33.9981 134.336 33.8745 134.336 33.7456V31.8014C134.336 31.6725 134.387 31.5489 134.478 31.4577C134.57 31.3666 134.693 31.3154 134.822 31.3154H147.07V28.3992H134.822C134.693 28.3992 134.57 28.348 134.478 28.2568C134.387 28.1657 134.336 28.0421 134.336 27.9131V25.969C134.336 25.8401 134.387 25.7165 134.478 25.6253C134.57 25.5342 134.693 25.483 134.822 25.483L147.702 25.4441Z" fill="black"/>
<path d="M151.911 17.5801L142.988 9.58971H152.815C152.944 9.58971 153.068 9.5385 153.159 9.44735C153.25 9.35621 153.301 9.23258 153.301 9.10368V6.9068C153.301 6.77789 153.25 6.65427 153.159 6.56312C153.068 6.47197 152.944 6.42076 152.815 6.42076H140.344V17.5801H137.427V3.49483H154.818C155.202 3.49483 155.57 3.64743 155.842 3.91906C156.114 4.19068 156.266 4.55908 156.266 4.94322V11.0673C156.264 11.4497 156.11 11.8156 155.839 12.0851C155.567 12.3547 155.2 12.5059 154.818 12.5059H150.657L156.266 17.5801H151.911Z" fill="black"/>
<path d="M61.4347 36.9436H43.9374V22.8584H61.4347C61.9503 22.8584 62.4448 23.0632 62.8094 23.4278C63.174 23.7924 63.3788 24.2869 63.3788 24.8025V34.9995C63.3788 35.5151 63.174 36.0096 62.8094 36.3742C62.4448 36.7388 61.9503 36.9436 61.4347 36.9436ZM46.8536 33.7941H59.996C60.1249 33.7941 60.2485 33.7429 60.3397 33.6518C60.4308 33.5606 60.482 33.437 60.482 33.3081V26.4259C60.4796 26.2977 60.4275 26.1755 60.3369 26.0849C60.2463 25.9943 60.1241 25.9423 59.996 25.9398H46.8536V33.7941Z" fill="black"/>
<circle cx="75.2534" cy="33.4233" r="1.65084" fill="black"/>
<path d="M76.9351 22.8584L85.1199 36.9437H81.7469L75.2534 25.7746L68.76 36.9437H65.3869L73.5815 22.8584" fill="black"/>
<path d="M90.8261 22.8584L102.423 33.0165C102.493 33.0784 102.58 33.1186 102.673 33.1323C102.766 33.1459 102.861 33.1324 102.946 33.0933C103.031 33.0542 103.104 32.9913 103.154 32.9122C103.204 32.833 103.231 32.7409 103.23 32.6471V22.8584H106.146V36.9437H102.472L90.8747 26.8244C90.8049 26.763 90.7189 26.723 90.6269 26.709C90.535 26.695 90.441 26.7077 90.356 26.7456C90.2711 26.7835 90.1988 26.8449 90.1477 26.9226C90.0967 27.0004 90.069 27.0911 90.0679 27.1841V36.9437H87.1517V22.8584" fill="black"/>
<path d="M66.6052 3.50362H69.5209V17.5744H66.6052V3.50362Z" fill="black"/>
</g>
<defs>
<linearGradient id="paint0_linear_17_13" x1="26.3535" y1="39.65" x2="-3.43323e-05" y2="39.65" gradientUnits="userSpaceOnUse">
<stop stop-color="#FFB20E"/>
<stop offset="0.754253" stop-color="#FFB20E" stop-opacity="0.4"/>
</linearGradient>
<linearGradient id="paint1_linear_17_13" x1="36.2228" y1="30.4931" x2="6.58852" y2="30.4931" gradientUnits="userSpaceOnUse">
<stop stop-color="#FFB20E"/>
<stop offset="0.575764" stop-color="#FFB20E" stop-opacity="0.4"/>
</linearGradient>
<linearGradient id="paint2_linear_17_13" x1="31.015" y1="37.3552" x2="2.00817" y2="37.3552" gradientUnits="userSpaceOnUse">
<stop stop-color="#FFB20E"/>
<stop offset="0.613114" stop-color="#FFB20E" stop-opacity="0.4"/>
</linearGradient>
<linearGradient id="paint3_linear_17_13" x1="33.6592" y1="35.0605" x2="4.3566" y2="35.0605" gradientUnits="userSpaceOnUse">
<stop stop-color="#FFB20E"/>
<stop offset="0.53414" stop-color="#FFB20E" stop-opacity="0.4"/>
</linearGradient>
<linearGradient id="paint4_linear_17_13" x1="35.3176" y1="32.7658" x2="5.62954" y2="32.7658" gradientUnits="userSpaceOnUse">
<stop stop-color="#FFB20E"/>
<stop offset="0.566419" stop-color="#FFB20E" stop-opacity="0.4"/>
</linearGradient>
<linearGradient id="paint5_linear_17_13" x1="10.8785" y1="0.797342" x2="31.549" y2="0.797342" gradientUnits="userSpaceOnUse">
<stop stop-color="#FFB20E" stop-opacity="0.906342"/>
<stop offset="1" stop-color="#FFB20E" stop-opacity="0.2"/>
</linearGradient>
<linearGradient id="paint6_linear_17_13" x1="7.02803" y1="28.234" x2="36.8326" y2="28.234" gradientUnits="userSpaceOnUse">
<stop stop-color="#FFB20E" stop-opacity="0.4"/>
<stop offset="0.128722" stop-color="#FFB20E" stop-opacity="0.41"/>
<stop offset="0.131428" stop-color="#FFB20E"/>
<stop offset="0.456823" stop-color="#FFB20E" stop-opacity="0.5"/>
<stop offset="1" stop-color="#FFB20E"/>
</linearGradient>
<linearGradient id="paint7_linear_17_13" x1="1.00923" y1="9.95419" x2="17.2606" y2="9.95419" gradientUnits="userSpaceOnUse">
<stop stop-color="#FFB20E"/>
<stop offset="0.692835" stop-color="#FFB20E" stop-opacity="0.4"/>
</linearGradient>
<linearGradient id="paint8_linear_17_13" x1="1.00928" y1="19.0771" x2="35.3179" y2="19.0771" gradientUnits="userSpaceOnUse">
<stop stop-color="#FFB20E"/>
<stop offset="0.505241" stop-color="#FFB20E" stop-opacity="0.5"/>
<stop offset="1" stop-color="#FFB20E"/>
</linearGradient>
<linearGradient id="paint9_linear_17_13" x1="0.399794" y1="12.2269" x2="26.3539" y2="12.2269" gradientUnits="userSpaceOnUse">
<stop stop-color="#FFB20E"/>
<stop offset="0.447791" stop-color="#FFB20E" stop-opacity="0.5"/>
<stop offset="1" stop-color="#FFB20E"/>
</linearGradient>
<linearGradient id="paint10_linear_17_13" x1="0.399794" y1="16.7981" x2="33.6596" y2="16.7981" gradientUnits="userSpaceOnUse">
<stop stop-color="#FFB20E"/>
<stop offset="0.475107" stop-color="#FFB20E" stop-opacity="0.5"/>
<stop offset="1" stop-color="#FFB20E"/>
</linearGradient>
<linearGradient id="paint11_linear_17_13" x1="0.135931" y1="14.5318" x2="31.0146" y2="14.5318" gradientUnits="userSpaceOnUse">
<stop stop-color="#FFB20E"/>
<stop offset="0.395585" stop-color="#FFB20E" stop-opacity="0.5"/>
<stop offset="1" stop-color="#FFB20E"/>
</linearGradient>
<linearGradient id="paint12_linear_17_13" x1="6.21734" y1="3.09207" x2="31.549" y2="3.09207" gradientUnits="userSpaceOnUse">
<stop stop-color="#FFB20E"/>
<stop offset="0.508763" stop-color="#FFB20E" stop-opacity="0.4"/>
</linearGradient>
<linearGradient id="paint13_linear_17_13" x1="6.21729" y1="25.9393" x2="37.0964" y2="25.9393" gradientUnits="userSpaceOnUse">
<stop stop-color="#FFB20E"/>
<stop offset="0.456507" stop-color="#FFB20E" stop-opacity="0.5"/>
<stop offset="1" stop-color="#FFB20E"/>
</linearGradient>
<linearGradient id="paint14_linear_17_13" x1="3.57294" y1="5.3868" x2="30.1506" y2="5.3868" gradientUnits="userSpaceOnUse">
<stop stop-color="#FFB20E"/>
<stop offset="0.438754" stop-color="#FFB20E" stop-opacity="0.4"/>
</linearGradient>
<linearGradient id="paint15_linear_17_13" x1="3.57294" y1="23.6326" x2="36.8327" y2="23.6326" gradientUnits="userSpaceOnUse">
<stop stop-color="#FFB20E"/>
<stop offset="0.523329" stop-color="#FFB20E" stop-opacity="0.5"/>
<stop offset="1" stop-color="#FFB20E"/>
</linearGradient>
<linearGradient id="paint16_linear_17_13" x1="1.91442" y1="7.68155" x2="22.0807" y2="7.68155" gradientUnits="userSpaceOnUse">
<stop stop-color="#FFB20E"/>
<stop offset="0.566534" stop-color="#FFB20E" stop-opacity="0.4"/>
</linearGradient>
<linearGradient id="paint17_linear_17_13" x1="1.91442" y1="21.3498" x2="36.223" y2="21.3498" gradientUnits="userSpaceOnUse">
<stop stop-color="#FFB20E"/>
<stop offset="0.517263" stop-color="#FFB20E" stop-opacity="0.5"/>
<stop offset="1" stop-color="#FFB20E"/>
</linearGradient>
<clipPath id="clip0_17_13">
<rect width="112.532" height="33.4401" fill="white" transform="translate(43.6856 3.50363)"/>
</clipPath>
</defs>
</svg>
