<svg width="141" height="40" viewBox="0 0 141 40" fill="none" xmlns="http://www.w3.org/2000/svg">
<g clip-path="url(#clip0_206_993)">
<path d="M63.4174 12.8219C64.6371 14.4782 65.6246 16.2411 65.9701 18.3053C66.0545 18.8168 66.1457 19.3273 66.1985 19.8407C66.3827 21.6094 66.377 21.6103 64.5671 21.6103C59.6537 21.6103 54.7393 21.6266 49.8259 21.5892C49.0755 21.5834 48.9623 21.8301 49.0726 22.474C49.6235 25.6408 51.5466 27.944 54.4025 28.467C57.2814 28.9948 60.3523 28.2386 62.287 25.3558C62.3829 25.2119 62.501 25.0823 62.6555 24.8875C63.4232 25.565 64.1794 26.2598 64.9692 26.9152C65.2571 27.1504 65.0152 27.2156 64.9183 27.3663C63.095 30.1944 60.4483 31.6079 57.1519 31.9524C54.9675 32.1911 52.7598 31.8193 50.7741 30.8786C43.8234 26.9834 43.9529 17.5395 47.7435 13.081C50.3489 10.0101 55.414 8.59462 59.3044 10.0917C60.8935 10.7049 62.2179 11.6559 63.4174 12.8219ZM62.3541 18.7506C62.0662 16.885 61.2227 15.4177 59.7938 14.2767C55.9936 11.2413 50.0802 13.4005 49.1043 18.1661C49.0026 18.6623 49.1043 18.7688 49.5841 18.7592C50.9276 18.7352 52.2759 18.7506 53.6223 18.7506H62.3541Z" fill="#FFB072"/>
<path d="M24.0988 15.6163C23.857 14.0109 23.2783 12.4754 22.9357 10.893C22.8733 10.6127 22.81 10.3325 22.7236 9.94675H26.187C26.7321 9.9074 26.7628 10.3575 26.8472 10.6934C28.2109 16.1816 29.5746 21.6698 30.8969 27.1676C31.0697 27.8873 31.3528 28.1666 32.0965 28.0793C33.0437 27.967 34.2576 28.4631 34.8795 27.8873C35.4553 27.3576 35.4284 26.1686 35.653 25.2666C36.8554 20.4347 38.0655 15.6058 39.2372 10.7663C39.3802 10.1771 39.5798 9.93715 40.2142 9.9717C41.2583 10.0283 42.3071 9.98705 43.4136 9.98705C42.0241 15.2286 40.6566 20.3781 39.2939 25.5333C38.8246 27.3068 38.3496 29.0783 37.91 30.8594C37.7786 31.3939 37.5559 31.6031 36.9667 31.5945C34.4217 31.557 31.8806 31.5407 29.3318 31.6002C28.5535 31.6185 28.3049 31.3402 28.1255 30.6406C26.8645 25.7541 25.5613 20.879 24.2677 16.0012C24.222 15.8685 24.1655 15.7398 24.0988 15.6163Z" fill="#FFB072"/>
<path d="M112.876 15.2468C112.031 17.4971 111.521 19.8473 110.843 22.1466C109.151 27.8776 107.484 33.6163 105.842 39.3627C105.703 39.8473 105.51 40.0172 105.01 39.9989C103.99 39.9615 102.968 39.9874 101.859 39.9874C102.374 38.1324 102.838 36.3484 103.372 34.5865C103.616 33.7814 103.826 32.9686 104.069 32.1672C104.235 31.6222 104.082 31.5703 103.63 31.5751C102.489 31.5867 101.347 31.556 100.207 31.5905C99.6953 31.6059 99.439 31.4878 99.3066 30.9379C98.9295 29.3277 98.4823 27.7346 98.0591 26.1349C98.6531 25.99 98.7673 25.4248 99.0398 25.0035C99.6156 24.1091 99.9995 23.0947 100.681 22.2637C101.283 23.9258 101.62 25.6608 102.054 27.3671C102.2 27.9429 102.438 28.0782 102.999 28.0744C105.292 28.0609 105.303 28.082 105.903 25.9084C107.329 20.7865 108.75 15.6642 110.167 10.5416C110.281 10.0839 110.551 9.93607 111.036 9.96582C111.877 10.0124 112.72 10.0124 113.561 9.96582C114.198 9.93319 114.31 10.0983 114.118 10.7182C113.66 12.2162 113.286 13.7363 112.876 15.2468Z" fill="#FFB072"/>
<path d="M90.6592 8.08789C90.6458 10.5686 90.6247 13.0493 90.6199 15.5309C90.6122 20.5825 90.5959 25.635 90.6285 30.6866C90.6333 31.4361 90.4155 31.6463 89.6996 31.5781C88.9994 31.5167 88.2952 31.5167 87.5951 31.5781C86.9425 31.6347 86.7698 31.438 86.7736 30.7739C86.8024 25.5467 86.7899 20.3186 86.7842 15.0914C86.7842 13.0483 86.7659 11.0052 86.7554 8.96117C86.765 6.254 86.7938 3.54588 86.7707 0.838715C86.765 0.228379 86.8523 -0.0566356 87.5576 0.00670108C88.3732 0.0652405 89.1918 0.0671644 90.0076 0.012459C90.5268 -0.0134515 90.6333 0.185195 90.6314 0.6631C90.6218 3.13899 90.6467 5.61392 90.6592 8.08789Z" fill="#FFB072"/>
<path d="M71.8528 9.94805C72.5534 9.96149 73.2549 9.99988 73.9545 9.97876C74.3777 9.96629 74.512 10.1064 74.4966 10.5248C74.4679 11.2925 74.488 12.0689 74.488 13.0621C76.7288 9.72062 79.9321 9.35691 83.3302 9.48646C83.6574 9.49894 83.7141 9.6592 83.7093 9.92694C83.7093 10.8319 83.6872 11.7368 83.7179 12.6399C83.7342 13.1082 83.502 13.1533 83.1277 13.1466C82.2516 13.1293 81.3725 13.1216 80.4964 13.1466C77.9792 13.2157 76.082 14.2981 75.036 16.6349C74.5715 17.6723 74.4938 18.8066 74.4919 19.9332C74.4851 23.552 74.4688 27.1699 74.5072 30.7877C74.5139 31.4595 74.3278 31.6361 73.6829 31.5881C72.8954 31.5233 72.1039 31.5233 71.3164 31.5881C70.5928 31.6543 70.6158 31.2743 70.6168 30.7599C70.6283 24.6316 70.6306 18.5039 70.6235 12.3769C70.6235 12.0564 70.6053 11.7368 70.5947 11.4173C70.6065 11.3616 70.6145 11.3051 70.6187 11.2484C70.6523 10.0306 70.6523 10.0306 71.8528 9.94805Z" fill="#FFB072"/>
<path d="M128.391 13.1564C126.726 13.0192 125.105 13.1631 123.713 14.1813C122.103 15.3569 121.284 17.0334 121.237 18.9795C121.141 22.8325 121.147 26.6884 121.184 30.5423C121.193 31.4204 120.928 31.6526 120.106 31.5691C119.436 31.5074 118.762 31.5074 118.091 31.5691C117.452 31.6238 117.324 31.3724 117.324 30.7803C117.343 26.5742 117.324 22.369 117.324 18.1638C117.324 17.8433 117.298 17.5237 117.284 17.2042C117.296 15.0469 117.331 12.8858 117.302 10.7333C117.294 10.1095 117.483 9.93006 118.088 9.96557C118.906 10.01 119.725 10.0132 120.542 9.97517C121.034 9.95597 121.221 10.1134 121.195 10.6181C121.157 11.3321 121.185 12.048 121.185 13.022C123.254 10.1431 125.945 9.30054 129.096 9.57979C128.861 10.7736 128.626 11.9658 128.391 13.1564Z" fill="#FFB072"/>
<path d="M128.392 13.1567C128.626 11.9661 128.86 10.7752 129.093 9.58398C132.776 9.74712 135.733 12.4322 136.51 16.2881C136.818 17.8149 136.767 19.3589 136.775 20.8944C136.782 22.4068 136.802 23.9182 136.815 25.4306C136.648 27.1781 136.746 28.9295 136.763 30.678C136.77 31.4284 136.527 31.6559 135.814 31.5791C134.892 31.4831 133.692 31.9677 133.114 31.3814C132.581 30.8411 132.967 29.6588 132.963 28.7596C132.948 25.635 132.983 22.5095 132.949 19.3849C132.928 17.4771 132.593 15.6672 131 14.3352C130.231 13.6922 129.308 13.4456 128.392 13.1567Z" fill="#FFB072"/>
<path d="M138.836 9.28127C139.276 9.27892 139.7 9.4501 140.015 9.75774C140.33 10.0654 140.512 10.4848 140.52 10.9251C140.52 11.8263 139.752 12.6074 138.86 12.6036C137.996 12.6036 137.254 11.8541 137.229 10.9722C137.206 10.0212 137.893 9.29567 138.836 9.28127ZM138.092 10.1901C138.035 10.0096 137.979 10.0557 137.924 10.1901C137.494 11.0441 137.59 11.548 138.254 11.9347C138.868 12.3282 139.406 12.2418 139.83 11.6535C140.214 11.1161 140.204 10.5461 139.742 10.0682C139.331 9.64498 138.837 9.4924 138.243 9.94151C138.627 10.0039 138.938 10.0375 139.239 10.1123C139.54 10.1872 139.71 10.4588 139.571 10.7092C139.379 11.047 139.693 11.522 139.343 11.7169C139.055 11.879 139.061 11.3551 138.751 11.2533C138.571 11.3906 138.68 11.8858 138.251 11.7898C138.025 11.2745 138.26 10.7121 138.093 10.1901H138.092Z" fill="#FFB072"/>
<path d="M100.684 22.2641C99.9974 23.0952 99.6203 24.1095 99.0426 25.0039C98.77 25.4252 98.6587 25.9905 98.0618 26.1354C97.3037 23.4023 96.5459 20.6689 95.7884 17.9352C95.1167 15.4881 94.4689 13.0323 93.7616 10.5948C93.61 10.0718 93.7415 9.97875 94.206 9.98835C95.2884 10.0095 96.5811 9.65151 97.3949 10.1227C98.2086 10.5939 98.0897 12.042 98.3545 13.0621C99.1587 16.1224 99.9111 19.1933 100.684 22.2641Z" fill="#FFB072"/>
<path d="M17.5213 24.8739C18.2007 25.4814 18.7861 26.108 19.4741 26.5878C20.0825 27.0129 19.9271 27.3555 19.5893 27.8066C17.9013 30.055 15.6701 31.4149 12.89 31.8419C9.80761 32.316 6.89508 31.9225 4.33474 29.9955C2.09397 28.3094 0.767737 26.0389 0.265841 23.303C-0.38384 19.7753 0.104621 16.4252 2.31661 13.5309C4.99114 10.033 8.65028 8.89962 12.8958 9.76042C17.4829 10.6894 20.3129 14.455 20.929 18.8032C21.0556 19.6947 21.452 20.8242 20.9664 21.4249C20.5058 22.0007 19.3254 21.6005 18.4636 21.6034C13.8695 21.6226 9.27532 21.6226 4.68118 21.6034C4.05645 21.6034 3.8127 21.6668 3.93265 22.4028C4.45374 25.5773 6.42773 27.9563 9.28268 28.4764C12.1789 29.0033 15.315 28.1636 17.1595 25.3384C17.2545 25.1906 17.3696 25.061 17.5213 24.8739ZM3.86836 18.7504C8.21172 18.7504 12.4812 18.7504 16.7507 18.7561C17.1547 18.7561 17.242 18.6467 17.147 18.2475C16.8111 16.8503 16.1653 15.645 15.0972 14.6661C13.1299 12.8591 10.8172 12.4023 8.36142 13.243C5.82795 14.1182 4.36641 16.026 3.86836 18.7504Z" fill="#FFB072"/>
</g>
<defs>
<clipPath id="clip0_206_993">
<rect width="140.52" height="40" fill="white"/>
</clipPath>
</defs>
</svg>
