<svg width="89" height="40" viewBox="0 0 89 40" fill="none" xmlns="http://www.w3.org/2000/svg">
<g clip-path="url(#clip0_206_1019)">
<path d="M22.7201 6.0802C23.4895 6.32988 24.1815 6.44346 24.7529 6.76738C25.5483 7.21636 25.9231 7.99059 25.92 8.93009C25.9129 11.1604 25.8983 13.3907 25.9359 15.6202C25.9429 16.0431 26.0972 16.512 26.3217 16.8739C27.0424 18.0357 27.8432 19.1479 28.5776 20.3018C28.7367 20.5515 28.9046 21.0004 28.7897 21.1675C28.6373 21.3906 28.2153 21.521 27.9059 21.5294C25.9204 21.5877 25.92 21.5736 25.92 23.5931C25.92 24.6577 25.9275 25.7223 25.92 26.7864C25.9032 28.6455 24.8594 29.68 22.983 29.7065C22.2724 29.7167 21.5618 29.7065 20.8512 29.7065H18.7018C18.6837 29.9664 18.6496 30.2293 18.6496 30.4922C18.6457 32.9758 18.6399 35.4593 18.6496 37.9429C18.6536 38.7052 18.62 39.4454 17.8317 39.8387C17.0433 40.232 16.4176 39.8457 15.8192 39.376C12.6601 36.8942 9.50047 34.4123 6.34022 31.9302C4.57258 30.5417 2.80803 29.1435 1.01873 27.7798C0.343933 27.2663 -0.00296682 26.6737 0.00101038 25.7961C0.0253155 20.3221 0.00896477 14.8486 0.0155934 9.37421C0.0182449 7.26364 0.968353 6.29983 3.07627 6.28879C6.17229 6.27332 9.26921 6.30867 12.3648 6.2605C12.873 6.25255 13.4603 6.03955 13.8673 5.73021C16.1073 4.03239 18.3005 2.27314 20.5154 0.54262C20.9785 0.180695 21.5176 -0.2484 22.0802 0.17716C22.4063 0.424188 22.6737 0.951388 22.6918 1.36457C22.7616 2.95722 22.7201 4.55429 22.7201 6.0802ZM19.9851 16.8094H17.2453C15.1939 16.8094 15.1201 16.7652 14.0719 18.5196C13.3242 19.7706 12.5358 20.5722 10.9189 20.3676C9.92014 20.2412 9.24932 21.0199 9.23429 21.9267C9.21927 22.8105 9.88523 23.491 10.9025 23.5176C11.6538 23.5379 11.9255 23.8446 11.9189 24.5879C11.8894 27.021 11.8925 29.4542 11.9282 31.8874C11.9335 32.2466 12.1005 32.7186 12.3617 32.9391C13.599 33.9811 14.8779 34.9719 16.1705 35.9441C16.787 36.4081 17.1768 36.2035 17.1838 35.4355C17.2011 33.5092 17.2068 31.5824 17.171 29.6566C17.1662 29.3839 16.9244 29.1015 16.7543 28.8488C16.2841 28.1501 15.7547 27.4877 15.3362 26.7603C15.2195 26.5575 15.4069 26.1805 15.4551 25.8831C15.714 25.987 16.0225 26.0325 16.2231 26.2044C17.0353 26.8999 17.9267 27.4205 19.0138 27.4488C20.4597 27.4859 21.9105 27.5164 23.352 27.4294C23.7767 27.4037 24.448 27.0418 24.5341 26.7113C24.7375 25.9046 24.775 25.0652 24.6446 24.2436C24.5947 23.9343 23.9225 23.7169 23.5306 23.4632C23.3401 23.3404 23.1258 23.2493 22.9521 23.107C22.8345 23.0111 22.7696 22.8507 22.6812 22.719C22.8244 22.6452 22.9609 22.5299 23.1121 22.506C23.3604 22.4676 23.6207 22.5091 23.8713 22.4795C24.3834 22.419 24.6937 22.1759 24.7211 21.6023C24.7763 20.433 24.7935 20.4339 26.0026 20.365C26.7211 20.3243 26.9014 19.9942 26.5064 19.3817C26.0534 18.6795 25.6097 17.9641 25.0808 17.3215C24.8642 17.059 24.4387 16.8429 24.0993 16.8292C22.728 16.7771 21.3559 16.8094 19.9851 16.8094ZM13.7002 8.8996C10.5021 8.8996 7.30403 8.90622 4.10592 8.89385C3.44305 8.8912 3.01838 9.0905 3.01882 9.82893C3.01882 14.9489 3.01528 20.0684 3.03252 25.1884C3.03252 25.431 3.16509 25.7426 3.34627 25.9021C3.8582 26.3534 4.39956 26.7701 4.96676 27.1496C5.23191 27.3264 5.57174 27.3975 5.87754 27.5164C5.97034 27.196 6.14269 26.8765 6.14269 26.5548C6.16522 24.0205 6.15285 21.4861 6.15639 18.9513C6.15639 17.9623 6.32873 17.79 7.2921 17.7833C8.02832 17.7785 8.76454 17.7913 9.50165 17.7807C13.0113 17.7303 11.9419 18.242 13.9464 15.3899C14.1179 15.146 14.1545 14.8075 14.2535 14.5132C13.9389 14.4164 13.6251 14.2405 13.3092 14.2361C11.3042 14.2109 9.29881 14.2251 7.29386 14.2215C6.79671 14.2215 6.31105 14.1937 6.1745 13.5635C5.85633 12.0977 6.23902 11.6089 7.71456 11.6085H8.32396C13.1467 11.6085 17.9693 11.6085 22.7917 11.6085C24.1488 11.6085 24.3468 11.4317 24.3468 10.2616C24.3468 9.04277 24.189 8.90092 22.8385 8.90092L13.7002 8.8996ZM20.0342 15.7541C21.0996 15.7541 22.165 15.7651 23.2301 15.7505C24.0909 15.739 24.3521 15.4527 24.3463 14.5892C24.3406 13.6926 24.1126 13.4402 23.2464 13.4354C21.6997 13.4261 20.1477 13.5056 18.6063 13.4075C17.5016 13.3373 16.7419 13.6621 16.3124 14.6776C16.2041 14.9334 16.0313 15.3024 16.1334 15.4699C16.2465 15.6546 16.6398 15.7351 16.9147 15.7421C17.9541 15.7722 18.9943 15.7545 20.0342 15.7541ZM19.6546 6.27906V6.26581C20.0841 6.26581 20.5304 6.33563 20.9361 6.23973C21.1862 6.18096 21.5389 5.88621 21.5632 5.66525C21.6436 4.94184 21.6219 4.20341 21.5853 3.47337C21.5632 3.0266 21.3002 2.79283 20.8756 3.10968C19.9257 3.81851 18.9909 4.54736 18.0712 5.29625C17.9293 5.41248 17.8127 5.74303 17.8785 5.88311C17.9629 6.06297 18.232 6.22957 18.4433 6.26095C18.8397 6.31972 19.2502 6.27906 19.6546 6.27906Z" fill="#FFB072"/>
<path d="M59.0845 27.7878C57.3871 29.3128 55.4091 29.4383 53.3586 28.9761C50.7911 28.3976 49.5631 25.6264 50.9829 23.6528C51.8977 22.3814 53.2866 21.9775 54.7692 21.8662C56.2518 21.7548 57.6964 21.9103 58.9815 22.7973C59.411 21.1092 58.5272 19.8466 56.8877 19.6902C55.4926 19.5576 54.1704 19.798 52.918 20.4322C52.6719 20.5568 52.3705 20.7702 52.1549 20.7137C51.7775 20.6147 51.2622 20.4087 51.15 20.1157C51.0417 19.832 51.2644 19.1678 51.5225 19.0437C52.5561 18.5456 53.63 18.0118 54.7449 17.8275C56.4684 17.5425 58.2192 17.573 59.811 18.5726C60.9599 19.2929 61.6069 20.3053 61.6506 21.6169C61.7227 23.7677 61.7006 25.922 61.6882 28.075C61.6842 28.7644 61.2626 29.1356 60.5772 29.1731C59.9144 29.2112 59.3549 29.0742 59.2188 28.2893C59.1919 28.1439 59.1406 28.0016 59.0845 27.7878ZM55.7259 27.4714C57.1401 27.3657 57.8122 27.196 58.4888 26.6759C59.3514 26.01 59.3501 24.8199 58.415 24.2529C56.9492 23.3642 55.3883 23.377 53.8328 24.0169C53.1797 24.2856 52.8999 24.8703 52.9083 25.549C52.9172 26.2371 53.2548 26.7952 53.9053 27.0343C54.4886 27.246 55.1174 27.3299 55.7259 27.4714Z" fill="#FFB072"/>
<path d="M41.3409 22.1022C41.3409 24.0992 41.3626 25.9698 41.3325 27.8395C41.3148 28.9545 40.3687 29.5086 39.3846 29.0384C38.761 28.7406 38.7615 28.1666 38.7601 27.6115C38.7525 24.1154 38.7525 20.6193 38.7601 17.1232C38.7601 16.7193 38.784 16.3141 38.8211 15.9115C38.9767 14.23 39.9975 13.2158 41.6869 13.1792C44.121 13.1279 46.5568 13.1403 48.9917 13.1394C49.2644 13.1394 49.6104 13.1456 49.792 13.3007C50.0496 13.5216 50.3258 13.8787 50.3338 14.1845C50.3404 14.4474 50.0311 14.7948 49.7699 14.9645C49.5419 15.113 49.1866 15.097 48.8861 15.0997C46.882 15.1099 44.8775 15.0997 42.873 15.1068C41.6865 15.1103 41.3555 15.4479 41.3462 16.6512C41.3391 17.5377 41.3776 18.4264 41.3334 19.3107C41.3025 19.9267 41.485 20.1578 42.1359 20.1401C43.6826 20.0959 45.2293 20.1251 46.776 20.1273C47.0292 20.1273 47.2837 20.1304 47.5356 20.1529C48.1516 20.2086 48.6364 20.426 48.6059 21.1592C48.5759 21.8817 48.0672 22.0872 47.4649 22.0947C45.7414 22.1133 44.0145 22.1018 42.2892 22.1022H41.3409Z" fill="#FFB072"/>
<path d="M87.0073 14.6241C87.4541 15.0002 87.8872 15.2742 88.2005 15.6472C88.9518 16.5398 88.7993 18.0724 87.9274 18.8965C86.0661 20.658 81.597 20.3288 80.0309 18.296C79.6716 17.8298 79.4564 17.3207 80.0256 16.8226C80.5364 16.3741 81.0234 16.3927 81.5621 16.9026C81.7093 17.0418 81.8454 17.193 81.9939 17.3308C82.963 18.2288 84.1005 18.4034 85.3113 17.9937C85.6206 17.8894 85.9556 17.5628 86.0798 17.2575C86.4055 16.4585 85.9742 15.7709 85.1199 15.6639C84.5693 15.5955 84.0068 15.6198 83.4495 15.6047C82.906 15.5897 82.6125 15.3294 82.5759 14.7713C82.5392 14.2132 82.807 13.8941 83.339 13.8393C83.8419 13.788 84.3515 13.8062 84.8579 13.7951C85.4324 13.7801 85.8473 13.5401 85.9348 12.9431C86.0276 12.3134 85.6953 11.9267 85.1067 11.7676C84.1826 11.5162 83.301 11.6059 82.4994 12.1675C82.2506 12.3417 82.016 12.5365 81.7636 12.7045C81.2594 13.0403 80.7512 13.0889 80.3495 12.5684C79.9478 12.0478 80.1091 11.5122 80.6041 11.1878C81.2908 10.7384 82.0093 10.2757 82.7822 10.0331C84.052 9.63043 85.4227 9.68547 86.656 10.1887C87.6132 10.5736 88.3066 11.2493 88.4104 12.3708C88.5107 13.4615 87.9345 14.1279 87.0073 14.6241Z" fill="#FFB072"/>
<path d="M72.3981 19.8293C73.3159 18.7771 74.3283 18.0966 75.617 17.968C76.1698 17.9103 76.7274 17.9174 77.2785 17.9892C77.7965 18.0608 78.1769 18.3904 78.1182 18.9755C78.0607 19.5253 77.7023 19.8218 77.1495 19.8638C76.6444 19.9026 76.1362 19.9128 75.6329 19.9667C73.8148 20.1603 72.6385 21.2823 72.5134 23.1065C72.4043 24.6974 72.4445 26.2962 72.4219 27.8915C72.4127 28.5451 72.1789 29.025 71.4718 29.1492C70.5058 29.3184 69.9446 28.8752 69.9411 27.8911C69.9305 24.9258 69.9305 21.9603 69.9411 18.9945C69.9446 18.1107 70.3604 17.6997 71.1678 17.7041C71.9632 17.7086 72.338 18.127 72.361 19.0299C72.3676 19.2482 72.3813 19.4669 72.3981 19.8293Z" fill="#FFB072"/>
<path d="M67.0289 23.41C67.0289 24.8533 67.0378 26.2961 67.0245 27.7407C67.0188 28.3749 66.9012 28.9675 66.1447 29.1451C65.1283 29.3838 64.518 28.9242 64.5069 27.8468C64.4862 25.8975 64.5003 23.9478 64.5003 21.9985C64.5003 21.0617 64.495 20.1253 64.5003 19.1884C64.5083 18.1049 64.86 17.6992 65.7681 17.7071C66.6259 17.7147 67.0205 18.184 67.0258 19.2339C67.0347 20.6251 67.0294 22.0175 67.0289 23.41Z" fill="#FFB072"/>
<path d="M67.3731 14.4571C67.3621 15.2526 66.6104 15.9092 65.7381 15.8832C64.7363 15.8531 64.1083 15.2671 64.1198 14.3723C64.1299 13.5618 64.8737 12.9012 65.746 12.9286C66.7218 12.959 67.3851 13.5821 67.3731 14.4571Z" fill="#FFB072"/>
</g>
<defs>
<clipPath id="clip0_206_1019">
<rect width="88.6849" height="40" fill="white"/>
</clipPath>
</defs>
</svg>
